<?xml version="1.0" encoding="utf-8"?>
<!-- Generator: Adobe Illustrator 22.1.0, SVG Export Plug-In . SVG Version: 6.00 Build 0)  -->
<svg version="1.1" id="Layer_1" xmlns="http://www.w3.org/2000/svg" xmlns:xlink="http://www.w3.org/1999/xlink" x="0px" y="0px"
	 viewBox="0 0 960 1080" style="enable-background:new 0 0 960 1080;" xml:space="preserve">
<style type="text/css">
	.st0{fill:#9245BA;}
	.st1{fill:#6A1B9A;}
	.st2{fill:#E6E6E6;stroke:#9245BA;stroke-width:4.9233;stroke-miterlimit:10;}
	.st3{fill:#9E60C6;}
	.st4{fill:#E6E6E6;stroke:#9245BA;stroke-width:3.0363;stroke-miterlimit:10;}
	.st5{fill:#E6E6E6;stroke:#9245BA;stroke-width:3.2253;stroke-miterlimit:10;}
	.st6{fill:#E6E6E6;stroke:#9245BA;stroke-width:4.1821;stroke-miterlimit:10;}
	.st7{fill:#E6E6E6;stroke:#9245BA;stroke-width:5.6862;stroke-miterlimit:10;}
	.st8{fill:#E6E6E6;stroke:#9245BA;stroke-width:2.3926;stroke-miterlimit:10;}
	.st9{opacity:7.000000e-02;enable-background:new    ;}
	.st10{opacity:0.1;enable-background:new    ;}
	.st11{fill:#E6E6E6;stroke:#9245BA;stroke-width:8.7341;stroke-miterlimit:10;}
	.st12{fill:#E6E6E6;stroke:#9245BA;stroke-width:6.0684;stroke-miterlimit:10;}
	.st13{fill:#E6E6E6;stroke:#9245BA;stroke-width:6.389;stroke-miterlimit:10;}
	.st14{fill:#E6E6E6;stroke:#9245BA;stroke-width:7.1003;stroke-miterlimit:10;}
	.st15{fill:#E6E6E6;stroke:#9245BA;stroke-width:8.8626;stroke-miterlimit:10;}
	.st16{fill:#E6E6E6;stroke:#9245BA;stroke-width:4.6334;stroke-miterlimit:10;}
	.st17{fill:#E6E6E6;stroke:#9245BA;stroke-width:3.6612;stroke-miterlimit:10;}
	.st18{fill:#E6E6E6;stroke:#9245BA;stroke-width:3.3594;stroke-miterlimit:10;}
	.st19{fill:#E6E6E6;stroke:#9245BA;stroke-width:2.7782;stroke-miterlimit:10;}
	.st20{fill:#E6E6E6;stroke:#9245BA;stroke-width:4.7271;stroke-miterlimit:10;}
	.st21{fill:#E6E6E6;stroke:#9245BA;stroke-width:4.9365;stroke-miterlimit:10;}
	.st22{fill:#E6E6E6;stroke:#9245BA;stroke-width:6.4916;stroke-miterlimit:10;}
	.st23{fill:#E6E6E6;stroke:#9245BA;stroke-width:6.0869;stroke-miterlimit:10;}
	.st24{fill:none;}
	.st25{fill:#E6E6E6;stroke:#9245BA;stroke-width:4.5048;stroke-miterlimit:10;}
	.st26{fill:#E6E6E6;stroke:#9245BA;stroke-width:7.3835;stroke-miterlimit:10;}
	.st27{fill:#E6E6E6;stroke:#9245BA;stroke-width:2.5604;stroke-miterlimit:10;}
	.st28{fill:#E6E6E6;stroke:#9245BA;stroke-width:2.6537;stroke-miterlimit:10;}
	.st29{fill:#E6E6E6;stroke:#9245BA;stroke-width:4.4316;stroke-miterlimit:10;}
	.st30{fill:#E6E6E6;stroke:#9245BA;stroke-width:5.0661;stroke-miterlimit:10;}
	.st31{fill:#E6E6E6;stroke:#9245BA;stroke-width:3.7707;stroke-miterlimit:10;}
	.st32{fill:#E6E6E6;stroke:#9245BA;stroke-width:5.1859;stroke-miterlimit:10;}
	.st33{opacity:0.35;}
	.st34{opacity:0.37;}
	.st35{opacity:0.5;fill:#9245BA;enable-background:new    ;}
</style>
<g>
	<g>
		<path class="st0" d="M199.3,408c-5.1-8.6-13-27.8-7.9-59.1c1.7-2.6,3.6-5.4,5.6-8.2c3.8-5.4,7.9-10.7,12.1-15.9
			c6.7-8.2,14-16.2,21.7-23.8c13.7-13.5,28.7-25.7,44.7-36.2c27.3-18,57.2-31.1,88.7-39c0.6-0.1,1.2-0.2,1.8-0.2
			c3.4,0,6.4,2.3,7.2,5.7c0.1,0.6,0.2,1.2,0.2,1.8c0,3.2-2,6-5.1,7.1c-29,9.7-55.9,24.1-80,42.9c-7.4,5.8-14.7,12.1-21.6,18.7
			c-6.4,6.2-12.7,12.9-18.6,19.9c-9.5,11.3-18.2,23.3-25.7,35.9C213,373.5,205.2,390.4,199.3,408z"/>
		<g>
			<path class="st1" d="M366,222v7.3c1.8,0,3.3,1.2,3.7,3c0.1,0.3,0.1,0.6,0.1,0.9c0,1.6-1,3.1-2.6,3.6c-29.4,9.8-56.6,24.4-81,43.4
				c-7.5,5.9-14.9,12.2-21.9,18.9c-6.5,6.3-12.9,13.1-18.9,20.1c-9.7,11.4-18.4,23.7-26.1,36.4c-8.2,13.7-15.1,28.2-20.7,43.1
				c-0.3-0.8-0.7-1.7-1-2.6c-3.2-9-6.3-24.3-2.9-45.9c1.6-2.4,3.3-4.9,5.1-7.4c3.8-5.3,7.8-10.6,12-15.7c6.6-8.1,13.8-16,21.4-23.5
				c13.5-13.3,28.4-25.4,44.1-35.7c27-17.8,56.4-30.7,87.6-38.5c0.3-0.1,0.6-0.1,0.9-0.1L366,222 M366,222c-0.9,0-1.8,0.1-2.7,0.3
				c-31.7,7.9-62.2,21.3-89.8,39.5c-16.2,10.6-31.4,22.9-45.2,36.6c-7.7,7.6-15.1,15.7-22,24.1c-4.3,5.2-8.4,10.6-12.3,16.1
				c-2.1,2.9-4.1,5.9-6.1,8.9c-8,47.4,12.6,68.4,12.6,68.4c6-19.6,14.5-38.7,25.1-56.6c7.4-12.4,15.9-24.3,25.4-35.4
				c5.8-6.8,11.9-13.4,18.4-19.6c6.8-6.5,13.9-12.7,21.3-18.4c23.5-18.3,50.2-32.7,78.9-42.3c4.6-1.5,7.6-5.8,7.6-10.5
				c0-0.9-0.1-1.8-0.3-2.7C375.5,225.4,371,222,366,222L366,222z"/>
		</g>
	</g>
	<path class="st0" d="M194.9,350.3c0,0,30.2-80.9,145.6-113.6l-91.1,58.5l-36,43.2L194.9,350.3z"/>
	<g>
		<path class="st0" d="M760.7,408.1c-5.9-17.6-13.8-34.6-23.3-50.6c-7.5-12.6-16.2-24.7-25.7-36c-6.3-7.4-13-14.6-20.1-21.2
			c-3.6-3.4-7.5-6.9-11.5-10.3c-2.9-2.4-5.8-4.8-8.6-7c-5.1-3.9-10.3-7.7-15.4-11.1c-20-13.4-41.8-24.1-64.6-31.7
			c-3-1-5.1-3.9-5.1-7.1c0-0.6,0.1-1.2,0.2-1.8c0.8-3.3,3.8-5.7,7.2-5.7c0.6,0,1.2,0.1,1.8,0.2c31.5,7.9,61.4,21,88.7,39
			c3.2,2.1,6.6,4.4,9.9,6.8c4.3,3.1,8.4,6.2,12.2,9.3c4.4,3.5,8.7,7.2,12.8,10.9c3.3,2.9,6.6,6.1,9.8,9.3
			c9.1,8.9,17.6,18.5,25.3,28.4c2.8,3.6,5.7,7.4,8.4,11.2c1.8,2.6,3.7,5.3,5.6,8.1C773.8,380.6,765.9,399.6,760.7,408.1z"/>
		<g>
			<path class="st1" d="M594,229.3c0.3,0,0.6,0,0.9,0.1c31.1,7.8,60.6,20.7,87.6,38.5c3.2,2.1,6.5,4.3,9.8,6.7
				c4.3,3.1,8.3,6.2,12.1,9.2c4.3,3.4,8.6,7.1,12.7,10.8c3.2,2.9,6.5,6,9.7,9.1c9,8.8,17.4,18.2,25,28c2.8,3.5,5.6,7.3,8.3,11.1
				c1.7,2.3,3.4,4.8,5.1,7.4c2.7,17,1.7,32.8-2.8,45.6c-0.4,1-0.7,2-1.1,2.9c-5.6-15-12.5-29.4-20.7-43.1
				c-7.6-12.8-16.4-25-26.1-36.4c-6.4-7.5-13.2-14.8-20.3-21.5c-3.7-3.5-7.6-7-11.7-10.5c-2.9-2.5-5.8-4.8-8.7-7.1
				c-5.2-4-10.4-7.8-15.6-11.2c-20.3-13.6-42.3-24.4-65.5-32.2c-1.6-0.5-2.6-2-2.6-3.6c0-0.2,0-0.5,0.1-1
				C590.7,230.4,592.2,229.3,594,229.3 M594,222c-5,0-9.5,3.4-10.8,8.4c-0.2,0.9-0.3,1.8-0.3,2.7c0,4.7,3,9,7.6,10.5
				c22.6,7.6,44.1,18.2,63.7,31.3c5.2,3.5,10.2,7.1,15.2,10.9c2.9,2.2,5.7,4.5,8.5,6.9c3.9,3.3,7.7,6.7,11.3,10.2
				c7,6.6,13.6,13.6,19.8,20.9c9.4,11.1,18,23,25.4,35.5c10.6,17.9,19.1,36.9,25.1,56.6c0,0,0,0,0-0.1c1.1-1.2,20.4-22.2,12.6-68.3
				c-2-3-4-6-6.1-8.9c-2.7-3.9-5.6-7.7-8.5-11.4c-7.9-10.1-16.5-19.7-25.6-28.7c-3.2-3.2-6.6-6.3-10-9.4c-4.2-3.8-8.6-7.5-13-11.1
				c-4-3.3-8.2-6.4-12.4-9.4c-3.3-2.4-6.6-4.7-10-6.9c-27.6-18.2-58.1-31.6-89.8-39.5C595.8,222.1,594.9,222,594,222L594,222z"/>
		</g>
	</g>
	<path class="st0" d="M765.1,350.3c0,0-30.2-80.9-145.6-113.6l91.1,58.5l36,43.2L765.1,350.3z"/>
	<g>
		
			<ellipse transform="matrix(0.8784 -0.478 0.478 0.8784 -90.9926 170.5564)" class="st2" cx="289.6" cy="264.1" rx="5.3" ry="3.7"/>
		<g>
			<path class="st1" d="M297.1,262.5c0.3,0.9,0.3,1.9,0,2.8s-0.7,1.8-1.3,2.6c-1.2,1.6-2.8,2.7-4.6,3.4c-1.8,0.7-3.9,0.9-5.8,0.3
				c-1-0.3-1.9-0.9-2.5-1.6c-0.6-0.8-0.9-1.8-0.8-2.7c0.6,1.8,2.1,2.7,3.7,2.9c0.8,0.1,1.6,0.1,2.4,0s1.6-0.3,2.4-0.6
				c1.5-0.6,3-1.5,4.2-2.6C295.9,265.7,296.9,264.3,297.1,262.5z"/>
		</g>
		<g>
			<path class="st3" d="M283.7,265.8c-0.3-1.3,0.2-2.8,1.1-3.9s2.1-1.9,3.4-2.4s2.8-0.7,4.2-0.3c0.7,0.2,1.3,0.6,1.8,1.1
				c0.4,0.6,0.7,1.3,0.7,1.9c-0.3-1.3-1.5-2.1-2.7-2.3c-1.2-0.2-2.5,0-3.6,0.4c-1.2,0.4-2.3,1.1-3.1,2
				C284.5,263.4,283.8,264.5,283.7,265.8z"/>
		</g>
	</g>
	<g>
		
			<ellipse transform="matrix(0.9056 -0.4242 0.4242 0.9056 -81.016 156.2773)" class="st4" cx="310.5" cy="260.1" rx="3.2" ry="2.3"/>
		<g>
			<path class="st1" d="M306.5,259c0.3-1.1,1.1-2.1,2.1-2.7c1-0.7,2.2-1.1,3.4-1.1c1.2,0,2.6,0.4,3.3,1.5c0.4,0.5,0.5,1.2,0.5,1.8
				c-0.1,0.6-0.3,1.2-0.7,1.6c0.3-1.1,0.1-2.2-0.5-2.8c-0.6-0.7-1.6-0.9-2.6-0.9s-2,0.3-2.9,0.7C308.1,257.5,307.2,258.1,306.5,259z
				"/>
		</g>
		<g>
			<path class="st3" d="M313.8,260.6c-0.3,0.8-0.9,1.5-1.6,1.9c-0.7,0.5-1.6,0.7-2.4,0.7c-0.9,0-1.8-0.3-2.4-1.1
				c-0.6-0.8-0.4-1.8,0.1-2.5c-0.3,0.8-0.2,1.6,0.3,2.2c0.5,0.5,1.2,0.8,2,0.7c0.8,0,1.5-0.2,2.2-0.5
				C312.6,261.7,313.3,261.2,313.8,260.6z"/>
		</g>
	</g>
	<g>
		
			<ellipse transform="matrix(0.7751 -0.6318 0.6318 0.7751 -72.297 276.6728)" class="st5" cx="352.5" cy="239.9" rx="3.4" ry="2.4"/>
		<g>
			<path class="st1" d="M347.8,241.8c-0.6-1.1-0.4-2.5,0.2-3.6s1.5-2.1,2.6-2.8s2.4-1.1,3.7-0.9c0.6,0.1,1.3,0.3,1.8,0.8
				c0.5,0.4,0.8,1,0.9,1.6c-0.6-1.1-1.7-1.5-2.7-1.4c-1,0-2.1,0.4-3,1s-1.7,1.3-2.4,2.2S347.8,240.6,347.8,241.8z"/>
		</g>
		<g>
			<path class="st3" d="M356,238c0.4,0.8,0.2,1.8-0.2,2.6c-0.4,0.8-1.1,1.5-1.9,2s-1.7,0.8-2.7,0.7c-0.5-0.1-0.9-0.2-1.3-0.5
				s-0.6-0.7-0.7-1.2c0.4,0.8,1.2,1.2,2,1.2s1.6-0.3,2.3-0.7c0.7-0.4,1.3-1,1.8-1.7C355.8,239.7,356.1,238.9,356,238z"/>
		</g>
	</g>
	<g>
		
			<ellipse transform="matrix(0.8538 -0.5207 0.5207 0.8538 -79.836 205.172)" class="st6" cx="325.3" cy="244.7" rx="4.4" ry="3.2"/>
		<g>
			<path class="st1" d="M331.5,243.9c0.3,1.6-0.3,3.2-1.3,4.5s-2.4,2.2-4,2.8c-1.6,0.5-3.4,0.6-4.9-0.2c-0.8-0.4-1.5-1-1.9-1.7
				c-0.4-0.8-0.5-1.6-0.3-2.4c0.3,1.5,1.4,2.6,2.7,2.9c1.3,0.4,2.7,0.2,4-0.2s2.5-1.2,3.6-2.1C330.3,246.6,331.2,245.4,331.5,243.9z
				"/>
		</g>
		<g>
			<path class="st3" d="M320.5,245.8c-0.2-1.1,0.3-2.3,1.1-3.2c0.8-0.9,1.8-1.6,2.9-2s2.4-0.4,3.6,0.1c0.6,0.2,1.1,0.7,1.4,1.2
				s0.4,1.1,0.3,1.7c-0.2-1.1-1-2-1.9-2.3c-1-0.3-2.1-0.2-3,0.1c-1,0.3-1.9,0.9-2.7,1.6C321.3,243.8,320.7,244.7,320.5,245.8z"/>
		</g>
	</g>
	<g>
		<ellipse transform="matrix(0.478 -0.8784 0.8784 0.478 118.1167 726.8079)" class="st2" cx="670.5" cy="264" rx="3.7" ry="5.3"/>
		<g>
			<path class="st1" d="M662.9,262.5c0.2,1.8,1.2,3.2,2.4,4.4c1.2,1.2,2.6,2,4.2,2.6c0.8,0.3,1.6,0.5,2.4,0.6c0.8,0.1,1.6,0.1,2.4,0
				c1.6-0.2,3.1-1.1,3.7-2.9c0.1,0.9-0.2,1.9-0.8,2.7c-0.6,0.8-1.5,1.3-2.5,1.6c-1.9,0.6-4,0.4-5.8-0.3c-1.8-0.7-3.5-1.9-4.6-3.4
				c-0.6-0.8-1-1.6-1.3-2.6C662.7,264.3,662.6,263.3,662.9,262.5z"/>
		</g>
		<g>
			<path class="st3" d="M676.3,265.8c-0.1-1.4-0.8-2.5-1.7-3.4s-2-1.6-3.1-2c-1.2-0.5-2.4-0.6-3.6-0.4c-1.2,0.2-2.3,1-2.7,2.3
				c0-0.7,0.2-1.4,0.7-1.9c0.5-0.6,1.1-0.9,1.8-1.1c1.4-0.4,2.9-0.2,4.2,0.3s2.5,1.3,3.4,2.4C676.1,263,676.6,264.5,676.3,265.8z"/>
		</g>
	</g>
	<g>
		
			<ellipse transform="matrix(0.6318 -0.7751 0.7751 0.6318 37.7352 559.2187)" class="st5" cx="607.5" cy="239.9" rx="2.4" ry="3.4"/>
		<g>
			<path class="st1" d="M612.2,241.8c0.1-1.2-0.4-2.2-1-3.1c-0.6-0.9-1.5-1.6-2.4-2.2c-0.9-0.6-2-0.9-3-1c-1,0-2.1,0.4-2.7,1.4
				c0-0.6,0.4-1.2,0.9-1.6c0.5-0.4,1.2-0.7,1.8-0.8c1.3-0.2,2.6,0.2,3.7,0.9c1.1,0.7,2,1.6,2.6,2.8
				C612.5,239.3,612.8,240.7,612.2,241.8z"/>
		</g>
		<g>
			<path class="st3" d="M604,238c-0.1,0.9,0.2,1.7,0.7,2.4s1.1,1.3,1.8,1.7s1.5,0.7,2.3,0.7s1.6-0.3,2-1.2c-0.1,0.4-0.3,0.9-0.7,1.2
				s-0.8,0.5-1.3,0.5c-0.9,0.1-1.9-0.2-2.7-0.7s-1.5-1.2-1.9-2C603.8,239.9,603.6,238.8,604,238z"/>
		</g>
	</g>
	<g>
		
			<ellipse transform="matrix(0.4242 -0.9056 0.9056 0.4242 138.4902 737.9411)" class="st4" cx="649.5" cy="260.1" rx="2.3" ry="3.2"/>
		<g>
			<path class="st1" d="M653.5,259c-0.7-0.9-1.6-1.5-2.5-1.9s-1.9-0.7-2.9-0.7s-2,0.3-2.6,0.9c-0.6,0.7-0.8,1.8-0.5,2.8
				c-0.4-0.4-0.6-1-0.7-1.6c-0.1-0.6,0.1-1.3,0.5-1.8c0.8-1.1,2.1-1.5,3.3-1.5s2.4,0.4,3.4,1.1C652.4,257,653.2,257.9,653.5,259z"/>
		</g>
		<g>
			<path class="st3" d="M646.2,260.6c0.5,0.7,1.1,1.2,1.8,1.5s1.5,0.6,2.2,0.5c0.7,0,1.5-0.2,2-0.7s0.6-1.4,0.3-2.2
				c0.5,0.7,0.6,1.7,0.1,2.5s-1.5,1.1-2.4,1.1s-1.7-0.3-2.4-0.7C647.1,262,646.5,261.4,646.2,260.6z"/>
		</g>
	</g>
	<g>
		
			<ellipse transform="matrix(0.5207 -0.8538 0.8538 0.5207 95.344 659.1787)" class="st6" cx="634.7" cy="244.7" rx="3.2" ry="4.4"/>
		<g>
			<path class="st1" d="M628.5,243.9c0.3,1.5,1.2,2.7,2.2,3.7c1,0.9,2.3,1.7,3.6,2.1c1.3,0.4,2.7,0.6,4,0.2c1.3-0.3,2.3-1.4,2.7-2.9
				c0.2,0.8,0.1,1.6-0.3,2.4c-0.4,0.8-1.1,1.4-1.9,1.7c-1.6,0.8-3.4,0.6-4.9,0.2c-1.6-0.5-3-1.5-4-2.8
				C628.8,247.1,628.2,245.4,628.5,243.9z"/>
		</g>
		<g>
			<path class="st3" d="M639.5,245.8c-0.2-1.1-0.8-2-1.6-2.8c-0.8-0.7-1.7-1.3-2.7-1.6s-2.1-0.4-3-0.1c-1,0.3-1.8,1.1-1.9,2.3
				c-0.1-0.6,0-1.2,0.3-1.7s0.8-0.9,1.4-1.2c1.1-0.5,2.4-0.4,3.6-0.1c1.1,0.4,2.2,1.1,2.9,2C639.2,243.5,639.7,244.7,639.5,245.8z"
				/>
		</g>
	</g>
	<g>
		<path class="st1" d="M829.5,726.3c-0.5-8.4-2.1-16.3-4.1-23.6c-4.1-14.6-10.1-27.1-16.3-38.5c-4.8-8.7-9.8-16.9-14.8-24.7
			c15.9,73.2-26.8,94.7-30.1,100.7c-0.7,1.7-1.6,3.4-2.7,5.1c-1.6,2.5-3.8,5.1-6.4,7.8c-0.7,0.7-1.3,1.3-2.1,2l-2.2,2
			c-1.6,1.3-3.1,2.6-4.8,3.7c-3.3,2.4-6.9,4.6-10.7,6.5c-15.2,7.9-34,12.3-53.9,14c-20,1.7-41.1,0.9-62.3-1.6
			c-20.9-2.4-41.9-6.4-62.8-11.5c13-7.9,25.3-17.7,36.7-28.9c50.1-49.2,83-125.3,83-188.5c0-85.4-59.9-157.4-141.5-179.4
			c-16.8-4.5-34.5-7-52.8-7h-0.5c-18.5,0-36.4,2.6-53.3,7.2c-81.1,22.4-140.5,94.1-140.5,179.1c0,63.7,33.3,140.5,84.2,189.7
			c10.8,10.4,22.4,19.6,34.6,27.2c-0.4,0.1-0.8,0.2-1.2,0.3c-21.3,5.2-42.7,9.3-64,11.8c-21.2,2.4-42.4,3.3-62.3,1.6
			s-38.8-6.1-53.9-14c-3.8-1.9-7.4-4.2-10.7-6.5c-1.7-1.2-3.2-2.5-4.8-3.7l-2.2-2c-0.8-0.7-1.4-1.3-2.1-2c-2.6-2.6-4.8-5.2-6.4-7.8
			c-1.1-1.7-2-3.4-2.7-5.1c-3.4-6-46-27.5-30.1-100.7c-5,7.8-10,16-14.8,24.7c-6.2,11.4-12.2,23.8-16.3,38.5
			c-2,7.3-3.6,15.2-4.1,23.6c-0.5,8.4,0,17.3,1.8,26s5,17.2,9.1,24.9s8.9,14.5,14.1,20.5c1.3,1.5,2.6,3,4,4.4l4.1,4.1
			c2.8,2.6,5.6,5.2,8.5,7.6c5.8,4.8,12,9.3,18.3,13.1s12.8,7.3,19.4,10.2c6.6,2.9,13.2,5.5,19.9,7.7c6.7,2.1,13.3,4,20,5.5
			c6.7,1.5,13.3,2.8,19.9,3.8c26.4,4,52.3,4.5,77.7,3.3c25.3-1.3,50.2-4.4,74.6-8.7c12.2-2.2,24.4-4.6,36.5-7.5
			c6.1-1.4,12.1-2.9,18.2-4.5c1.1-0.3,2.3-0.6,3.4-0.9c1.1,0.3,2.3,0.6,3.4,0.9c6.1,1.6,12.1,3.1,18.2,4.5
			c12.1,2.8,24.3,5.3,36.5,7.5c24.5,4.3,49.3,7.4,74.6,8.7c25.3,1.2,51.2,0.7,77.7-3.3c6.6-1,13.2-2.3,19.9-3.8s13.3-3.4,20-5.5
			c6.7-2.2,13.3-4.7,19.9-7.7c6.6-2.9,13.1-6.4,19.4-10.2c6.3-3.8,12.5-8.2,18.3-13.1c2.9-2.4,5.7-5,8.5-7.6l4.1-4.1
			c1.3-1.4,2.6-2.9,4-4.4c5.2-6,10.1-12.8,14.1-20.5c4.1-7.6,7.3-16.1,9.1-24.9C829.5,743.6,830,734.7,829.5,726.3z"/>
	</g>
	<g>
		
			<ellipse transform="matrix(0.7854 -0.619 0.619 0.7854 -237.3722 248.9266)" class="st1" cx="240.3" cy="466.8" rx="2.6" ry="6.7"/>
	</g>
	<g>
		<ellipse transform="matrix(0.619 -0.7854 0.7854 0.619 -92.194 743.3998)" class="st1" cx="720.1" cy="466.7" rx="6.7" ry="2.6"/>
	</g>
	<g>
		
			<ellipse transform="matrix(0.4986 -0.8668 0.8668 0.4986 -122.0093 362.1057)" class="st7" cx="252" cy="286.5" rx="6.2" ry="4.1"/>
		<g>
			<path class="st1" d="M259.2,282.9c0.9,2,0.7,4.4,0,6.4c-0.7,2.1-1.9,4-3.6,5.6c-0.9,0.7-1.8,1.4-2.9,1.8
				c-1.1,0.4-2.3,0.6-3.5,0.4c-0.6-0.1-1.2-0.3-1.7-0.6c-0.5-0.3-1-0.7-1.3-1.2c-0.7-1-1-2.1-1-3.1c0.8,2,2.5,3.3,4.2,3.3
				c0.9,0,1.7-0.2,2.6-0.6c0.8-0.4,1.6-0.9,2.3-1.6c1.4-1.2,2.6-2.8,3.5-4.6C258.5,286.9,259.2,285,259.2,282.9z"/>
		</g>
		<g>
			<path class="st3" d="M246.5,290c-0.5-1.5-0.4-3.2,0.2-4.7c0.5-1.5,1.5-2.9,2.7-4s2.9-1.9,4.6-1.6c0.9,0.1,1.7,0.6,2.2,1.2
				c0.5,0.7,0.8,1.5,0.8,2.2c-0.5-1.5-1.7-2.6-3.1-2.6c-1.4,0-2.7,0.7-3.8,1.6s-2,2.2-2.6,3.5C246.9,287,246.5,288.5,246.5,290z"/>
		</g>
	</g>
	<g>
		
			<ellipse transform="matrix(0.5584 -0.8296 0.8296 0.5584 -110.8196 350.2057)" class="st4" cx="273.5" cy="279.2" rx="3.2" ry="2.3"/>
		<g>
			<path class="st1" d="M277.5,278c0.3,1.1,0.1,2.3-0.4,3.4s-1.3,2-2.3,2.7c-1,0.6-2.4,0.9-3.6,0.4c-0.6-0.3-1.1-0.8-1.3-1.3
				c-0.3-0.6-0.3-1.2-0.3-1.7c0.3,1.1,1,1.9,1.9,2.2c0.9,0.2,1.9,0,2.7-0.5c0.8-0.5,1.6-1.2,2.2-2.1
				C276.9,280.1,277.3,279.1,277.5,278z"/>
		</g>
		<g>
			<path class="st3" d="M270.4,280.4c-0.2-0.8,0-1.7,0.4-2.5s1-1.4,1.7-1.9c0.7-0.4,1.7-0.7,2.6-0.3c0.9,0.4,1.3,1.3,1.2,2.1
				c-0.2-0.8-0.7-1.5-1.4-1.7c-0.7-0.2-1.5,0-2.1,0.4s-1.2,1-1.6,1.6C270.8,278.9,270.5,279.6,270.4,280.4z"/>
		</g>
	</g>
	<g>
		
			<ellipse transform="matrix(0.6312 -0.7756 0.7756 0.6312 -147.8767 290.6136)" class="st8" cx="231.7" cy="300.8" rx="2.7" ry="1.7"/>
		<g>
			<path class="st1" d="M234.7,298.2c0.7,0.6,0.8,1.8,0.6,2.7c-0.2,0.9-0.7,1.8-1.3,2.5s-1.4,1.3-2.4,1.5c-0.5,0.1-1,0.2-1.5,0.1
				s-0.9-0.4-1.1-0.8c0.7,0.6,1.6,0.4,2.3,0.1s1.4-0.9,1.9-1.5c0.6-0.6,1-1.3,1.3-2.1C234.9,299.9,235.1,299,234.7,298.2z"/>
		</g>
		<g>
			<path class="st3" d="M229.5,303.1c-0.5-0.5-0.5-1.3-0.4-1.9c0.2-0.7,0.5-1.3,1-1.8s1-0.9,1.7-1.1c0.3-0.1,0.7-0.1,1-0.1
				c0.3,0.1,0.7,0.3,0.8,0.6c-0.5-0.5-1.2-0.4-1.7-0.1c-0.6,0.2-1.1,0.6-1.5,1.1c-0.4,0.4-0.8,1-1,1.6
				C229.3,301.9,229.2,302.5,229.5,303.1z"/>
		</g>
	</g>
	<g>
		<path class="st1" d="M474.9,825.1c-40.2,2.3-80.8-2.8-118.8-15.2S282.8,778,252.5,753c-4.6-3.7-9-7.6-13.3-11.6
			c-6.3-5.8-12.3-11.8-18-18c-3.6-3.9-7.2-8-10.6-12.1c-7.4-8.9-14.3-18.2-20.7-27.8c-4.3-6.5-8.4-13.2-12.2-20
			c-18.9-34-31.2-71.4-36.2-109.4c-1.3-10-2.2-20.1-2.5-30.2c0,0,17.8-2.6,32.7-3.1c10.1-0.4,18.9,0.2,19.7,3.1
			c0.3,1,2.1,14.1,3.6,21.1c0.7,3.1,1.4,6.2,2.2,9.4c6,23.9,15.5,46.6,28.1,67.4c1.9,3.2,3.9,6.3,5.9,9.4c4,6,8.3,11.9,12.9,17.6
			c3.4,4.3,7,8.4,10.6,12.4c5.6,6.2,11.6,12,17.8,17.6c7.3,6.5,15,12.6,23.1,18.2c25.1,17.5,53.2,30.2,82.5,37.1
			c29.2,7,59.4,8.3,88.8,4.3L474.9,825.1z"/>
	</g>
	<path class="st9" d="M254.6,661.1c-1.7,3.4-3.5,6.7-5.3,9.9c-4.8,8.8-9.7,17.3-14.4,25.5c-4.6,8.2-9,16.2-12.6,24
		c-0.4,0.9-0.9,1.9-1.3,2.8c-3.6-3.9-7.2-8-10.6-12.1c-7.4-8.9-14.3-18.2-20.7-27.8c2.2-6.6,5.2-12.8,8.9-18.4
		c3.8-5.7,7.8-11.3,11.5-17.1c5-7.8,9.6-15.5,13.4-23.1c0.5-1,1-2.1,1.5-3.1c1.9,3.2,3.9,6.3,5.9,9.4c4,6,8.3,11.9,12.9,17.6
		C247.4,653,251,657.1,254.6,661.1z"/>
	<g>
		<path class="st0" d="M190,731.3c-13.2-9.3-36.3-30.2-20.9-90.3c1.3-2,2.6-4,3.9-6l0.4-0.6c2.5-3.8,5-7.6,7.4-11.3
			c4-6.1,7.9-11.9,11.6-17.8c7-11,12.2-20,16.4-28.3c5.1-10,8.7-19.3,10.8-27.8c2.3-9.5,2.7-18,1.3-26.2c-0.3-1.8-0.7-3.8-1.4-6.2
			l-0.6-1.9c-0.1-0.4-0.3-0.9-0.5-1.4l-1.2-3.2c-0.4-1.1-0.9-2.1-1.3-3.1c-1.5-3.4-3.3-6.8-5.2-10.1c-4.6-7.9-10.8-15.7-18.4-23.1
			l-0.2-0.2c-1.4-1.3-2.8-2.6-4.3-3.9c-2.4-2-4.9-4.1-7.7-6.2l-0.4-0.3c-0.9-0.7-1.9-1.4-2.9-2.1l-2.1-1.5c-0.4-0.3-0.7-0.5-1.1-0.8
			l-7.2-4.9c-4.8-3.3-9.8-6.8-14.9-10.5l-3.8-2.9l-1.9-1.5l-1.9-1.5c-0.4-0.3-0.8-0.7-1.3-1.1c-0.8-0.7-1.6-1.3-2.4-2l-3.7-3.4
			c-4.3-4.1-9.3-9.2-13.6-15.3l-1.6-2.2c-0.4-0.6-0.7-1.1-1.1-1.7c0,0-0.8-1.4-1.1-1.8c-0.7-1.1-1.3-2.1-1.9-3.2
			c-0.3-0.7-0.7-1.4-1.1-2.1c-1.3-2.6-2.5-5-3.3-7.5l-1.2-3.2c-0.2-0.6-0.5-1.2-0.6-1.8l-1.4-5.4c-0.4-1.5-0.7-3-1-4.6l-0.9-5.5
			l-0.4-5.1c0-0.5-0.1-1-0.1-1.6c-0.1-1.2-0.2-2.2-0.2-3.3v-5.3l0.4-5.2v-0.1c2.9-21.2,19-37.2,37.2-37.2c0.9,0,1.8,0,2.7,0.1
			c-2.3,3.3-4.3,6.8-6.1,10.4c-2.1,4.5-3.8,9.2-5,14c-1.1,4.6-1.8,9.5-1.9,14.6v3.7l0.2,3.4c0,1,0.2,1.9,0.3,2.7
			c0.1,0.4,0.1,0.7,0.2,1.1l0.5,3.7v0.2c1.1,4.8,2.3,9.2,4.3,13.2c0.6,1.5,1.4,2.8,2.1,4.1c0.3,0.6,0.7,1.1,1,1.7l0.1,0.1l0.1,0.1
			c0.4,0.6,0.8,1.1,1.2,1.7c0.2,0.3,0.5,0.7,0.7,1l1,1.5l1.1,1.3c2.9,3.7,6.6,6.9,9.4,9.4l0.1,0.1c0.3,0.2,0.5,0.4,0.8,0.7l2.9,2.3
			c0.7,0.5,1.4,1,2.1,1.6c0.4,0.3,2.7,2,2.7,2l4.9,3.3c4.5,2.8,9.2,5.7,14.4,8.8l7.5,4.5c0.4,0.2,0.7,0.4,1.1,0.7
			c0.3,0.2,0.6,0.4,0.9,0.6l0.9,0.5l1.1,0.7c1.2,0.7,2.3,1.5,3.5,2.3l0.5,0.3c1.4,0.9,2.8,1.9,4.3,3c4.2,3,7.9,5.8,11.3,8.6
			c4.9,4.1,9.5,8.4,13.6,12.8c5,5.4,9.6,11,13.4,16.7c3.8,5.5,7.2,11.5,10.3,17.7l2.2,4.8c0.3,0.6,0.6,1.4,0.9,2.2l1.1,2.7
			c1.3,3.5,2.4,7.1,3.3,10.5c1.8,7.1,2.7,14.5,2.9,22c0.1,6.9-0.5,14.2-1.7,21.4c-2.1,12.3-5.9,24.5-11.8,38.4
			c-4.3,10.2-9.5,20.5-16.6,33.5c-3.8,6.9-7.6,13.6-11.3,20.1c-2.1,3.6-4.1,7.2-6.1,10.7c-5,8.8-10.7,19.2-15.4,29.4
			c-4.8,10.4-8.1,19.7-9.7,27.4c-0.9,4.3-1.3,8.3-1.2,11.8C189.9,729.7,189.9,730.5,190,731.3z"/>
		<g>
			<path class="st1" d="M140.7,322.8c-0.9,1.6-1.8,3.3-2.7,5.1l0,0l0,0c-2.2,4.6-3.9,9.6-5.2,14.6v0.1v0.1c-1.2,4.8-1.8,10-2,15.2
				v0.1v0.1v3.4v0.2v0.2l0.2,3.2c0,1.2,0.2,2.3,0.4,3.1c0.1,0.3,0.1,0.6,0.1,0.9l0,0l0,0l0.5,3.4v0.3l0.1,0.3
				c1.2,5,2.3,9.5,4.5,13.8c0.7,1.7,1.6,3.2,2.3,4.5c0.3,0.6,0.6,1.1,0.9,1.6l0.1,0.3l0.2,0.3c0.4,0.7,0.9,1.3,1.3,1.8
				c0.2,0.3,0.5,0.6,0.7,1l0,0l0,0l0.9,1.3l0.2,0.3l0.2,0.3l1,1.1c3.1,3.9,6.9,7.3,9.9,9.8l0.1,0.1c0.3,0.2,0.6,0.5,0.9,0.7l0,0l0,0
				l2.9,2.3l0,0l0,0c0.7,0.6,1.5,1.1,2.2,1.6c0.3,0.2,0.7,0.5,1.1,0.8l1.5,1.1l0.1,0.1l0.1,0.1l1.7,1.1l3.3,2.2h0.1h0.1
				c4.4,2.8,9.2,5.7,14.5,8.8l7.5,4.5h0.1h0.1c0.3,0.2,0.6,0.4,0.9,0.5c0.3,0.2,0.6,0.4,1,0.6l0.9,0.5l1.1,0.7l0,0l0,0
				c1.1,0.7,2.2,1.4,3.4,2.2l0.5,0.3c1.4,0.9,2.8,1.9,4.3,2.9c4.1,2.9,7.7,5.7,11.1,8.5c4.8,4,9.2,8.2,13.3,12.5
				c4.9,5.2,9.3,10.7,13.1,16.3c3.7,5.4,7,11.1,10,17.1l2.1,4.7v0.1l0.1,0.1c0.2,0.4,0.5,1.2,0.8,1.9v0.1l1,2.6
				c1.3,3.4,2.4,6.8,3.2,10.2c1.7,6.8,2.6,13.9,2.8,21.2c0.1,6.7-0.4,13.7-1.6,20.8c-2.1,12-5.7,24-11.6,37.6
				c-4.3,10.1-9.4,20.3-16.4,33.2c-3.8,6.9-7.6,13.6-11.3,20.1c-2.1,3.6-4.1,7.2-6.1,10.7c-5,8.9-10.8,19.4-15.5,29.6
				c-5,10.7-8.3,20.2-9.9,28.2c-0.5,2.6-0.9,5.2-1.1,7.6c-4.5-3.9-9.2-9.1-12.8-16.7c-7.6-16-8-37.8-1.2-64.8
				c1.2-1.8,2.4-3.6,3.5-5.4l0.4-0.7c2.5-3.8,5-7.6,7.4-11.3c4.1-6.1,7.9-11.9,11.6-17.8c7.1-11.1,12.4-20.2,16.6-28.6
				c5.2-10.2,8.9-19.8,11.1-28.6c2.4-9.9,2.9-19,1.4-27.6c-0.3-2-0.8-4.1-1.5-6.6v-0.1v-0.1l-0.5-1.5c0-0.1-0.1-0.2-0.1-0.3
				c-0.1-0.4-0.3-1-0.6-1.7l-1.2-3.2v-0.1v-0.1c-0.4-1.1-0.9-2.2-1.3-3.1l0,0l0,0c-1.6-3.5-3.4-7-5.3-10.4
				c-4.7-8.2-11.1-16.2-19-23.9l0,0l-0.1-0.1l0,0H195c-1.4-1.3-2.8-2.6-4.4-4c-2.4-2.1-5-4.2-7.8-6.3l-0.3-0.3c-1-0.7-1.9-1.5-3-2.2
				l-1.6-1.1c-0.2-0.1-0.3-0.2-0.5-0.4c-0.4-0.3-0.8-0.6-1.2-0.9l-7.3-5c-4.8-3.2-9.7-6.7-14.7-10.4l-2.7-2l-1.1-0.8l-1.8-1.4
				l-1.8-1.5c-0.4-0.4-0.9-0.7-1.3-1.1c-0.8-0.7-1.6-1.3-2.3-1.9l-3.7-3.3c-4.2-4-9-8.9-13.1-14.8l0,0l0,0l-1.5-2.1
				c-0.3-0.4-0.6-1-0.9-1.5l-0.3-0.5c-0.3-0.5-0.6-1-0.9-1.4c-0.6-1-1.2-2-1.8-3c-0.3-0.7-0.7-1.4-1-2.1c-1.2-2.5-2.4-4.8-3.2-7.1
				v-0.1v-0.1l-1-2.6l-0.2-0.5c-0.2-0.5-0.4-1-0.5-1.4v-0.1v-0.1l-1.4-5.3v-0.1v-0.1c-0.4-1.3-0.6-2.7-0.8-4.2l-0.1-0.3l-0.8-5
				l-0.4-4.9c0-0.6-0.1-1.1-0.1-1.7c-0.1-1.1-0.2-2-0.1-2.9v-0.1V366v-5.1l0.4-4.9c1.3-9.3,5.4-17.9,11.5-24.2
				C126.3,328.4,132.4,323.9,140.7,322.8 M144.7,315.2c-21.5,0-37.8,18.6-40.8,40.3c0,0.1,0,0.2,0,0.3l-0.4,5.3v5.4
				c-0.1,1.8,0.2,3.5,0.3,5.3l0.4,5.2l0.9,5.3c0.3,1.8,0.6,3.5,1.1,5.3l1.4,5.3c0.2,0.9,0.6,1.8,0.9,2.6l1,2.6
				c1.2,3.5,3,6.8,4.6,10.2c0.9,1.6,1.9,3.2,2.9,4.8c0.5,0.8,1,1.6,1.5,2.4l1.6,2.2c4.2,6.1,9.2,11.2,14.1,15.9l3.8,3.4
				c1.3,1.1,2.5,2.1,3.8,3.2l1.9,1.6l1.9,1.5l1.1,0.8l2.7,2.1c5.1,3.7,10.1,7.3,15,10.6l7.2,4.9c0.6,0.4,1.1,0.8,1.6,1.2l1.6,1.1
				c1.1,0.7,2.1,1.5,3.1,2.3c2.6,2,5.1,4,7.5,6.1c1.4,1.2,2.8,2.5,4.1,3.7c0.1,0.1,0.1,0.1,0.2,0.2c7.1,6.8,13.1,14.2,17.8,22.3
				c1.8,3.2,3.5,6.4,5,9.7c0.4,1,0.8,2,1.2,2.9l1.3,3.3c0.3,0.6,0.4,1,0.5,1.5l0.5,1.4c0.6,1.9,1,3.9,1.3,5.8
				c1.4,7.8,0.9,16-1.2,24.7c-2.1,8.7-5.8,17.8-10.5,27s-10.2,18.5-16.3,28c-6,9.5-12.5,19-19,29.1c-1.5,2.4-3.1,4.7-4.6,7.1
				c-21.1,81.6,26.8,94.7,30.1,100.7c-0.4-0.8-0.7-1.7-1-2.6c-0.8-2.6-1.3-5.5-1.4-8.8c-0.1-3.3,0.3-7,1.1-11
				c1.6-8.1,5-17.2,9.4-26.6c4.4-9.4,9.6-19.1,15.2-29.1c5.6-10,11.6-20.2,17.4-30.9c5.9-10.7,11.6-21.9,16.8-33.9
				c5.1-12,9.6-25,12-39.2c1.2-7.1,1.9-14.5,1.8-22.1s-1.1-15.3-3-22.8c-0.9-3.8-2.1-7.4-3.4-11l-1-2.7c-0.3-0.9-0.7-1.8-1.1-2.6
				l-2.2-4.8c-3.1-6.3-6.6-12.3-10.5-18.1c-4.2-6.1-8.8-11.9-13.8-17.2c-4.4-4.7-9.1-9.1-13.9-13.1c-3.7-3.2-7.6-6.1-11.5-8.8
				c-1.5-1-2.9-2-4.4-3c-1.4-0.9-2.7-1.8-4.1-2.7l-1.2-0.7l-0.9-0.6c-0.7-0.4-1.4-0.9-2-1.2l-7.5-4.5c-5-3-9.7-5.8-14.3-8.7
				l-3.3-2.2l-1.6-1.1l-1.5-1.1c-1-0.8-2.1-1.5-3.1-2.2l-2.9-2.3c-0.3-0.2-0.6-0.5-0.8-0.7c-3.4-2.9-6.5-5.8-9-8.9l-1.1-1.2
				l-0.9-1.3c-0.6-0.9-1.3-1.7-1.8-2.6c-1-1.9-2.2-3.6-3-5.6c-1.9-3.8-3-8.1-4-12.5l-0.5-3.4c-0.1-1.2-0.4-2.3-0.5-3.5l-0.2-3.4
				v-3.4c0.2-4.6,0.7-9.2,1.8-13.8c1.2-4.6,2.7-9,4.8-13.4c2.5-5.2,5.6-10.1,9.3-14.6C150.8,315.6,147.7,315.2,144.7,315.2
				L144.7,315.2z"/>
		</g>
	</g>
	<path class="st10" d="M172.4,642.6c-6.8,26.9-6.4,48.7,1.2,64.7c3.4,7.1,7.7,12.2,11.9,16l0.8,0.7c0,0,0.6-7.6,2.6-13.9
		C189,710.1,169.5,695.3,172.4,642.6z"/>
	<g>
		<ellipse class="st11" cx="232.9" cy="607.7" rx="6.9" ry="8.8"/>
		<g>
			<path class="st1" d="M226.8,618.6c-1.5-0.6-2.8-1.7-3.9-2.9c-1.1-1.3-1.9-2.8-2.4-4.4c-1.1-3.2-1.1-6.8,0-10.2
				c1.1-3.3,3.4-6.4,6.7-7.8c1.6-0.7,3.5-0.9,5.2-0.6c1.7,0.3,3.2,1.2,4.3,2.4c-3-1.2-6.1-0.9-8.3,0.6c-2.3,1.5-3.9,3.9-4.8,6.5
				c-0.9,2.7-1.1,5.6-0.6,8.4C223.4,613.4,224.6,616.3,226.8,618.6z"/>
		</g>
		<g>
			<path class="st3" d="M236.8,598.7c2.2,1,3.7,3.2,4.4,5.5s0.7,4.9-0.1,7.3c-0.8,2.3-2.4,4.6-4.8,5.6c-1.2,0.5-2.5,0.7-3.7,0.5
				s-2.4-0.8-3.2-1.6c2.1,1,4.5,0.9,6.3-0.2c1.8-1.1,3.1-2.9,3.7-5c0.7-2,0.8-4.3,0.4-6.4C239.5,602.4,238.5,600.3,236.8,598.7z"/>
		</g>
	</g>
	<g>
		
			<ellipse transform="matrix(0.7845 -0.6201 0.6201 0.7845 -254.3641 234.9566)" class="st12" cx="210.9" cy="483.5" rx="4.3" ry="6.7"/>
		<g>
			<path class="st1" d="M206,474.7c0.9-0.7,2.1-1.1,3.3-1c1.2,0,2.4,0.3,3.5,0.8c2.2,1,4.1,2.6,5.5,4.6c1.4,1.9,2.3,4.3,2.4,6.7
				c0.1,1.2-0.2,2.5-0.7,3.6c-0.6,1.1-1.6,2-2.7,2.3c1.8-1.5,1.9-3.7,1.6-5.7c-0.4-2-1.3-3.9-2.5-5.6s-2.7-3.2-4.4-4.3
				C210.3,474.9,208.2,474.1,206,474.7z"/>
		</g>
		<g>
			<path class="st3" d="M215.2,490.1c-0.7,0.5-1.6,0.7-2.5,0.7s-1.7-0.3-2.5-0.7c-1.6-0.7-2.9-1.9-3.9-3.4c-1-1.4-1.7-3.1-1.8-4.9
				c-0.1-0.9,0.1-1.8,0.4-2.6c0.4-0.8,1.1-1.5,1.9-1.7c-0.7,0.5-1.1,1.2-1.3,1.9c-0.2,0.7-0.2,1.5-0.1,2.3c0.3,1.5,0.9,3,1.9,4.2
				c0.9,1.3,2.1,2.4,3.4,3.2C212,490,213.6,490.6,215.2,490.1z"/>
		</g>
	</g>
	<g>
		
			<ellipse transform="matrix(0.3828 -0.9238 0.9238 0.3828 -285.8459 456.3733)" class="st13" cx="198.6" cy="442.1" rx="4.8" ry="6.7"/>
		<g>
			<path class="st1" d="M205.6,448.8c-0.7,0.9-1.8,1.6-3,2.1c-1.2,0.4-2.4,0.6-3.7,0.6c-2.5,0-5-0.8-7.1-2.2
				c-2.1-1.4-3.9-3.5-4.5-6.1c-0.3-1.3-0.3-2.7,0.2-3.9c0.5-1.2,1.4-2.2,2.5-2.7c-1.5,1.9-1.7,4.2-0.8,6c0.8,1.9,2.3,3.4,4,4.6
				c1.8,1.2,3.8,2,5.9,2.4C201.2,449.9,203.4,449.8,205.6,448.8z"/>
		</g>
		<g>
			<path class="st3" d="M192.7,437.3c1.2-1.3,3.1-1.8,4.9-1.8c1.8,0.1,3.6,0.7,5.1,1.7s2.8,2.5,3.3,4.3c0.2,0.9,0.2,1.9-0.1,2.8
				s-0.9,1.6-1.7,2c1.2-1.3,1.4-3.1,0.8-4.5c-0.6-1.5-1.7-2.7-3-3.6s-2.9-1.5-4.5-1.7C195.9,436.3,194.2,436.4,192.7,437.3z"/>
		</g>
	</g>
	<g>
		
			<ellipse transform="matrix(0.9993 -3.821956e-02 3.821956e-02 0.9993 -20.7901 9.2985)" class="st14" cx="232.8" cy="548.4" rx="5.5" ry="7.3"/>
		<g>
			<path class="st1" d="M237.3,539.1c2.5,1,4.3,3.4,5.3,6s1.1,5.5,0.4,8.2c-0.7,2.7-2.3,5.4-4.9,6.8c-1.3,0.7-2.8,1-4.2,0.8
				s-2.7-0.9-3.6-1.8c2.5,1,5,0.6,6.7-0.8c1.7-1.4,2.8-3.5,3.4-5.7c0.6-2.2,0.6-4.6,0.2-7C240,543.3,239.1,541,237.3,539.1z"/>
		</g>
		<g>
			<path class="st3" d="M230,556c-1.8-0.8-3-2.6-3.7-4.5c-0.6-1.9-0.7-4-0.2-6c0.5-1.9,1.6-3.9,3.5-4.9c0.9-0.5,2-0.8,3-0.7
				s2,0.5,2.7,1.2c-1.8-0.8-3.7-0.6-5.1,0.4c-1.4,1-2.2,2.6-2.7,4.3c-0.4,1.7-0.4,3.5-0.1,5.3C227.8,553,228.6,554.7,230,556z"/>
		</g>
	</g>
	<g>
		
			<ellipse transform="matrix(0.6257 -0.78 0.78 0.6257 -447.5701 404.0736)" class="st15" cx="197.3" cy="668.4" rx="8.5" ry="7.3"/>
		<g>
			<path class="st1" d="M186,674.1c-1.1-1.2-1.7-2.8-2-4.5s-0.2-3.4,0.2-5.1c0.8-3.4,2.9-6.5,5.8-8.5c2.8-2.1,6.6-3.2,10.1-2.4
				c1.8,0.3,3.4,1.2,4.7,2.3c1.3,1.2,2.2,2.6,2.6,4.2c-2.1-2.5-4.9-3.8-7.7-3.8c-2.8-0.1-5.5,0.9-7.8,2.5s-4.1,3.9-5.2,6.6
				C185.5,668,185.1,671,186,674.1z"/>
		</g>
		<g>
			<path class="st3" d="M205.6,663.1c1.4,1.9,1.7,4.7,1.1,7c-0.6,2.4-2.2,4.6-4.2,6.1c-1,0.7-2.2,1.3-3.4,1.6s-2.5,0.4-3.8,0.2
				s-2.5-0.8-3.4-1.6c-1-0.8-1.7-1.8-2.1-3c1.4,1.9,3.5,3,5.6,3.1s4.3-0.6,6-1.9c1.8-1.2,3.1-3,3.9-5.1
				C206.1,667.7,206.3,665.4,205.6,663.1z"/>
		</g>
	</g>
	<g>
		
			<ellipse transform="matrix(0.7658 -0.643 0.643 0.7658 -359.8188 285.0433)" class="st16" cx="211.5" cy="636.6" rx="4.5" ry="3.8"/>
		<g>
			<path class="st1" d="M217.9,634.8c0.8,1.5,0.7,3.5,0,5.1c-0.8,1.7-2.2,3-3.8,3.8c-0.8,0.4-1.8,0.6-2.7,0.7
				c-0.9,0-1.9-0.1-2.7-0.5c-1.7-0.7-3-2.4-3.1-4.1c0.8,1.5,2.1,2.4,3.6,2.8c1.4,0.3,2.9,0.1,4.2-0.5s2.5-1.6,3.4-2.8
				C217.4,638,218,636.5,217.9,634.8z"/>
		</g>
		<g>
			<path class="st3" d="M206.7,638.5c-0.5-1.1-0.4-2.6,0.2-3.7c0.6-1.2,1.6-2.1,2.8-2.7c1.2-0.5,2.6-0.7,3.9-0.2
				c1.3,0.5,2.2,1.6,2.3,2.9c-0.5-1.1-1.5-1.9-2.6-2.2s-2.2-0.1-3.3,0.3c-1,0.5-1.9,1.2-2.5,2.2
				C206.9,636.1,206.5,637.2,206.7,638.5z"/>
		</g>
	</g>
	<g>
		
			<ellipse transform="matrix(0.3245 -0.9459 0.9459 0.3245 -406.1949 597.1986)" class="st16" cx="215" cy="583" rx="4.5" ry="3.8"/>
		<g>
			<path class="st1" d="M219.6,578.2c1.5,0.9,2.4,2.6,2.6,4.4c0.2,1.8-0.3,3.7-1.3,5.2c-0.5,0.8-1.2,1.4-2,2c-0.8,0.5-1.7,0.9-2.6,1
				c-1.8,0.3-3.8-0.5-4.8-1.9c1.5,0.9,3.1,1,4.5,0.5s2.6-1.4,3.4-2.6c0.8-1.2,1.3-2.7,1.4-4.2C220.9,581.2,220.5,579.6,219.6,578.2z
				"/>
		</g>
		<g>
			<path class="st3" d="M211.9,587.1c-1.1-0.7-1.7-2-1.8-3.3s0.2-2.6,1-3.7c0.7-1.1,1.9-2,3.2-2.2s2.7,0.3,3.5,1.3
				c-1-0.7-2.3-0.9-3.3-0.5c-1.1,0.3-2,1-2.6,2c-0.6,0.9-1,2-1,3.2C210.8,584.9,211.1,586.1,211.9,587.1z"/>
		</g>
	</g>
	<g>
		
			<ellipse transform="matrix(0.9921 -0.1256 0.1256 0.9921 -62.8026 32.5194)" class="st17" cx="226.5" cy="514.3" rx="2.5" ry="4.3"/>
		<g>
			<path class="st1" d="M225.8,507.8c0.6-0.3,1.5-0.3,2.2,0.1c0.7,0.3,1.3,0.9,1.7,1.4c0.9,1.2,1.4,2.6,1.7,4
				c0.2,1.4,0.2,2.9-0.3,4.4c-0.2,0.7-0.6,1.4-1.1,1.9c-0.5,0.6-1.2,1-1.9,1c1.2-0.7,1.6-2,1.9-3.3c0.2-1.3,0.2-2.6,0-3.9
				c-0.2-1.3-0.6-2.5-1.2-3.7C228.1,508.9,227.3,507.8,225.8,507.8z"/>
		</g>
		<g>
			<path class="st3" d="M227.3,519.3c-0.5,0.2-1.1,0.1-1.6-0.1c-0.5-0.3-0.9-0.6-1.2-1.1c-0.6-0.9-1-1.9-1.2-2.9s-0.1-2.1,0.2-3.2
				c0.2-0.5,0.4-1,0.7-1.4s0.8-0.8,1.3-0.8c-0.9,0.5-1.3,1.5-1.5,2.4c-0.2,1-0.2,1.9,0,2.9c0.1,1,0.4,1.9,0.9,2.7
				C225.5,518.6,226.2,519.4,227.3,519.3z"/>
		</g>
	</g>
	<path class="st0" d="M147.8,435.7c0,0-25.9-66.4-24.9-102.7C122.8,332.9,74.1,386.9,147.8,435.7z"/>
	<g>
		
			<ellipse transform="matrix(0.9728 -0.2315 0.2315 0.9728 -100.5299 61.9019)" class="st18" cx="213.5" cy="459.3" rx="3.6" ry="2.5"/>
		<g>
			<path class="st1" d="M218.7,457.8c0.4,0.5,0.6,1.1,0.6,1.8c0,0.7-0.3,1.4-0.6,1.9c-0.7,1.2-1.9,1.9-3.2,2.4
				c-1.3,0.4-2.6,0.5-3.9,0.2c-1.3-0.3-2.5-1.1-2.9-2.4c0.9,0.9,2,1.3,3.1,1.4s2.3-0.1,3.3-0.4c1.1-0.4,2-0.9,2.8-1.8
				C218.7,460.1,219.1,459,218.7,457.8z"/>
		</g>
		<g>
			<path class="st3" d="M209.6,460.8c-0.3-0.4-0.4-0.8-0.4-1.3s0.2-1,0.5-1.4c0.5-0.8,1.4-1.4,2.3-1.7c0.9-0.3,1.9-0.4,2.8-0.2
				c0.9,0.2,1.8,0.8,2.2,1.7c-0.6-0.7-1.4-1-2.3-1.1c-0.8-0.1-1.7,0-2.5,0.3s-1.5,0.7-2.1,1.4C209.6,459,209.3,459.9,209.6,460.8z"
				/>
		</g>
	</g>
	<g>
		
			<ellipse transform="matrix(0.1817 -0.9834 0.9834 0.1817 -302.7823 453.3362)" class="st19" cx="121" cy="408.6" rx="2.9" ry="2.1"/>
		<g>
			<path class="st1" d="M121.6,404.2c0.5-0.2,1.1-0.1,1.6,0.1s0.9,0.6,1.2,1.1c0.6,0.9,0.8,2.1,0.7,3.2c-0.1,1.1-0.5,2.2-1.2,3
				c-0.6,0.9-1.7,1.5-2.8,1.4c1-0.3,1.6-1.1,2.1-1.9c0.4-0.8,0.7-1.7,0.8-2.7c0.1-0.9,0-1.9-0.4-2.7
				C123.3,405,122.6,404.3,121.6,404.2z"/>
		</g>
		<g>
			<path class="st3" d="M120.8,412c-0.4,0.1-0.8,0-1.1-0.1c-0.4-0.2-0.6-0.5-0.9-0.8c-0.4-0.7-0.6-1.5-0.5-2.3s0.3-1.6,0.8-2.2
				s1.2-1.1,2-1.1c-0.7,0.2-1.3,0.7-1.6,1.3c-0.3,0.6-0.6,1.3-0.6,2c-0.1,0.7,0,1.4,0.3,2C119.5,411.5,120,412,120.8,412z"/>
		</g>
	</g>
	<g>
		
			<ellipse transform="matrix(0.8213 -0.5705 0.5705 0.8213 -218.5579 156.0507)" class="st20" cx="139.8" cy="426.9" rx="3.6" ry="4.9"/>
		<g>
			<path class="st1" d="M134.7,421.5c0.3-0.8,0.9-1.6,1.7-2.1s1.8-0.7,2.8-0.7c1.9,0.1,3.7,1.1,5,2.4s2.3,3,2.6,4.8
				c0.4,1.8,0.1,3.9-1.1,5.2c0.5-1.7,0.3-3.3-0.3-4.8s-1.4-2.8-2.5-3.9s-2.4-1.9-3.9-2.3C137.5,419.8,135.9,420.2,134.7,421.5z"/>
		</g>
		<g>
			<path class="st3" d="M144,430.6c-0.2,0.6-0.7,1.1-1.3,1.5c-0.6,0.3-1.3,0.5-2,0.4c-1.4-0.1-2.7-0.8-3.6-1.7
				c-0.9-1-1.7-2.2-1.9-3.5c-0.3-1.3-0.1-2.8,0.7-3.8c-0.5,1.2-0.3,2.5,0.1,3.6c0.4,1.1,1,2.2,1.9,3c0.8,0.8,1.9,1.5,3,1.7
				C142,432,143.2,431.7,144,430.6z"/>
		</g>
	</g>
	<g>
		
			<ellipse transform="matrix(0.937 -0.3493 0.3493 0.937 -127.7839 70.7642)" class="st21" cx="132.3" cy="389.7" rx="3.5" ry="5.5"/>
		<g>
			<path class="st1" d="M136.3,397c-0.4,0.8-1.3,1.5-2.3,1.8c-1,0.2-2.1,0-3-0.4c-1.9-0.8-3.2-2.4-4.2-4.1s-1.5-3.7-1.5-5.6
				c0-1,0.1-2,0.5-2.9c0.3-0.9,0.8-1.8,1.6-2.4c-0.8,1.7-0.8,3.4-0.6,5.1c0.3,1.7,0.9,3.3,1.7,4.8c0.8,1.5,1.9,2.8,3.2,3.7
				c0.7,0.4,1.4,0.7,2.2,0.8C134.7,397.9,135.5,397.6,136.3,397z"/>
		</g>
		<g>
			<path class="st3" d="M128.9,384.4c0.3-0.6,1-1,1.7-1.2c0.7-0.1,1.5,0,2.2,0.3c1.3,0.6,2.3,1.8,3,3s1.1,2.6,1.1,4.1
				c0,1.4-0.3,2.9-1.4,3.9c0.7-1.2,0.7-2.5,0.6-3.8c-0.2-1.3-0.6-2.5-1.2-3.6c-0.6-1.1-1.4-2.1-2.5-2.8c-0.5-0.3-1.1-0.5-1.7-0.5
				C130,383.7,129.4,384,128.9,384.4z"/>
		</g>
	</g>
	<g>
		<path class="st0" d="M244.3,598.6c0,0,29.1-94.4-37.4-154.6C206.9,444,302.4,492.8,244.3,598.6z"/>
	</g>
	<path class="st10" d="M185.4,472.7c1.8-4,3.6-7.9,5.7-11.8l0,0c1.3-2.5,2.6-5,4-7.4c0.6-1.1,1.3-2.2,1.9-3.3c0.6-1,1.2-2,1.8-3.1
		c1.5-2.5,3.1-5,4.7-7.4c0.1-0.2,0.3-0.4,0.4-0.6c0.9-1.4,1.8-2.7,2.8-4.1c3.9,2.8,7.8,5.7,11.5,8.8c4.8,4,9.5,8.4,13.9,13.1
		c-0.8,1.3-1.5,2.7-2.2,4c-1,2-2.1,4-3,6l0,0c-0.4,0.8-0.8,1.6-1.2,2.4c-2.3,4.9-4.4,9.9-6.2,14.9l0,0c-2.9,7.9-5.3,16.1-7.1,24.3
		c-1.5-3.3-3.2-6.6-5-9.7c-4.7-8.1-10.8-15.5-17.8-22.3L185.4,472.7z"/>
	<g>
		
			<ellipse transform="matrix(0.8312 -0.5559 0.5559 0.8312 -239.2047 225.6682)" class="st22" cx="252.1" cy="506.8" rx="5" ry="6.7"/>
		<g>
			<path class="st1" d="M255.5,516.2c-1,0.6-2.3,0.9-3.6,0.8c-1.3-0.1-2.5-0.5-3.7-1c-2.3-1.2-4.1-3.1-5.3-5.4
				c-1.2-2.3-1.8-4.9-1.2-7.5c0.3-1.3,0.9-2.5,1.7-3.5c0.9-0.9,2.1-1.6,3.3-1.7c-2.1,1.3-3,3.4-3.1,5.5s0.5,4.2,1.5,6.1
				s2.4,3.6,4.1,4.9C251,515.6,253.1,516.5,255.5,516.2z"/>
		</g>
		<g>
			<path class="st3" d="M248.8,499.7c1.6-0.9,3.7-0.5,5.2,0.3c1.6,0.9,2.9,2.3,3.8,3.9c0.8,1.6,1.3,3.5,0.9,5.4
				c-0.2,0.9-0.6,1.8-1.2,2.5s-1.4,1.2-2.3,1.3c1.6-0.8,2.4-2.4,2.5-4c0.1-1.6-0.3-3.2-1.1-4.6c-0.7-1.4-1.8-2.7-3.2-3.6
				C252.2,500,250.6,499.4,248.8,499.7z"/>
		</g>
	</g>
	<g>
		
			<ellipse transform="matrix(0.3523 -0.9359 0.9359 0.3523 -450.7033 583.7805)" class="st23" cx="196.4" cy="617.5" rx="6.3" ry="4.6"/>
		<g>
			<path class="st1" d="M203.1,611.7c1.6,1.6,2.2,4.2,2.1,6.5c-0.2,2.4-1,4.7-2.4,6.6c-1.4,1.9-3.6,3.5-6.2,3.8
				c-1.3,0.2-2.6-0.1-3.6-0.8s-1.8-1.6-2.2-2.7c1.6,1.6,3.7,2.2,5.5,1.7s3.4-1.8,4.6-3.4c1.2-1.6,2.1-3.5,2.5-5.5
				C203.8,615.9,203.8,613.8,203.1,611.7z"/>
		</g>
		<g>
			<path class="st3" d="M191.6,622.6c-1.1-1.3-1.5-3.1-1.3-4.8c0.1-1.7,0.8-3.4,1.8-4.8c1.1-1.4,2.6-2.5,4.4-2.7
				c0.9-0.1,1.8,0.1,2.6,0.5s1.4,1.1,1.7,1.9c-1.1-1.3-2.7-1.8-4.1-1.4c-1.4,0.4-2.7,1.3-3.6,2.5c-0.9,1.2-1.5,2.7-1.8,4.2
				C190.9,619.5,190.9,621.1,191.6,622.6z"/>
		</g>
	</g>
	<path class="st24" d="M196.1,740.8c0,0-0.1-0.2-0.3-0.5"/>
	<g>
		<path class="st1" d="M391.5,273.5c0,2.5-1.3,5-3.7,6.2c-8.9,4.6-18.4,8.1-28.1,10.5c-12.1,2.9-24.4,4.1-36.6,4.4
			c-24.4,0.5-48-2.7-70.9-4.5c-5.7-0.4-11.4-0.8-17-1s-11.1-0.2-16.5,0.1c-10.9,0.6-21.5,2.1-31.2,5.3c-4.9,1.6-9.5,3.5-13.8,5.8
			c-2.2,1.1-4.2,2.4-6.2,3.8l-2.9,2.1c-1,0.7-1.8,1.5-2.8,2.3c-2.8,2.4-5.5,5.1-7.9,8c-19.3,11-40.9,30.6-50.1,39.2
			c0.7-7,2.1-13.8,4.1-20.3c2.2-6.7,4.9-13,8.3-19.1c6.8-12,15.9-22.8,27.1-31.1c1.4-1,2.8-2.1,4.2-3l4.4-2.8c3-1.7,6-3.3,9.1-4.7
			c6.2-2.8,12.6-4.9,19-6.5s12.8-2.6,19.2-3.2s12.7-0.8,18.9-0.7c6.3,0.1,12.4,0.5,18.5,1.1s12,1.4,17.9,2.2
			c11.8,1.7,23.3,3.7,34.7,5.4c11.4,1.7,22.7,3.1,33.9,3.6c11.2,0.5,22.3,0.2,33.1-1.7c8.7-1.5,17.2-4,25.3-7.6
			c3.3-1.5,7.2-0.2,8.9,3C391.2,271.1,391.5,272.3,391.5,273.5z"/>
	</g>
	<g>
		<path class="st1" d="M200.5,415.9c-1.3,4.2-2.5,8.4-3.6,12.7c-0.6,2.5-1.2,5-1.8,7.5c-0.1,0.4-0.2,0.8-0.3,1.1
			c-0.5,2.3-1,4.6-1.4,7c-0.3,1.4-0.5,2.8-0.7,4.1c-0.1,0.5-0.2,1.1-0.3,1.6c-0.6,3.6-1.1,7.2-1.5,10.9l0,0
			c-0.6,5.2-1.1,10.5-1.4,15.7c-0.8,13.6-0.5,27.2,0.9,40.7c0.2,2.2,0.5,4.4,0.8,6.6h-52.4c-0.9-26.8,1.6-53.6,7.7-79.5
			c0.3-1.2,0.6-2.5,0.9-3.7c3.1-12.5,6.9-24.7,11.5-36.6c7.7-19.8,17.4-38.8,28.9-56.5C184.5,392.3,200.5,415.9,200.5,415.9z"/>
	</g>
	<g>
		
			<ellipse transform="matrix(0.7609 -0.6488 0.6488 0.7609 -288.0473 296.6565)" class="st25" cx="258.5" cy="539.2" rx="3.6" ry="4.5"/>
		<g>
			<path class="st1" d="M260.5,545.5c-1.5,0.8-3.4,0.6-5-0.2s-2.9-2.1-3.7-3.7c-0.8-1.6-1.1-3.5-0.4-5.3c0.3-0.9,0.8-1.6,1.5-2.2
				c0.7-0.5,1.5-0.9,2.4-0.9c-1.5,0.8-2.4,2.1-2.6,3.5c-0.3,1.4,0,2.9,0.7,4.1c0.6,1.3,1.6,2.4,2.8,3.3
				C257.4,545,258.8,545.6,260.5,545.5z"/>
		</g>
		<g>
			<path class="st3" d="M256.6,534.5c1.1-0.5,2.5-0.3,3.6,0.3s2.1,1.5,2.6,2.7c0.6,1.1,0.8,2.5,0.4,3.8s-1.5,2.2-2.8,2.3
				c1.1-0.5,1.8-1.5,2.1-2.5c0.2-1.1,0-2.2-0.5-3.2s-1.2-1.9-2.2-2.5C259,534.8,257.8,534.4,256.6,534.5z"/>
		</g>
	</g>
	<g>
		
			<ellipse transform="matrix(0.6151 -0.7884 0.7884 0.6151 -357.9579 414.6604)" class="st26" cx="245.7" cy="574" rx="6.1" ry="7.1"/>
		<g>
			<path class="st1" d="M250.6,583.4c-2.1,1.8-5.2,2.3-8,1.6c-2.8-0.6-5.4-2.4-7.2-4.7s-2.7-5.4-2.1-8.4c0.3-1.5,0.9-2.8,1.8-4
				c1-1.1,2.2-1.9,3.5-2.2c-2.1,1.8-3.1,4.1-3.1,6.5c0,2.3,0.8,4.6,2.2,6.5s3.3,3.4,5.5,4.3C245.5,583.8,248,584.1,250.6,583.4z"/>
		</g>
		<g>
			<path class="st3" d="M241.2,567.2c1.6-1.2,3.9-1.5,5.9-1s3.9,1.8,5.1,3.4c1.2,1.7,2,3.9,1.6,6c-0.3,2.1-1.8,4-3.7,4.6
				c1.6-1.2,2.5-3,2.5-4.7c0.1-1.8-0.5-3.5-1.6-5c-1.1-1.4-2.6-2.6-4.3-3.2C245,566.7,243.1,566.5,241.2,567.2z"/>
		</g>
	</g>
	<g>
		
			<ellipse transform="matrix(2.622548e-02 -0.9997 0.9997 2.622548e-02 -252.8363 708.663)" class="st16" cx="237.3" cy="484.1" rx="3.8" ry="4.5"/>
		<g>
			<path class="st1" d="M243.2,487.1c-0.4,1.7-1.8,3.1-3.4,3.8c-1.7,0.7-3.6,0.8-5.4,0.3c-0.9-0.3-1.7-0.7-2.5-1.3
				c-0.7-0.6-1.4-1.3-1.7-2.2c-0.9-1.7-0.7-3.8,0.4-5.1c-0.4,1.7,0,3.2,0.8,4.4c0.8,1.2,2.1,2,3.5,2.4s2.9,0.5,4.4,0.1
				C240.8,489.2,242.2,488.4,243.2,487.1z"/>
		</g>
		<g>
			<path class="st3" d="M232.4,482.4c0.3-1.2,1.4-2.2,2.6-2.7c1.2-0.5,2.6-0.6,3.9-0.2c1.3,0.4,2.4,1.2,3,2.4
				c0.6,1.2,0.6,2.7-0.2,3.7c0.4-1.2,0.1-2.4-0.5-3.3s-1.6-1.6-2.7-1.9c-1.1-0.3-2.2-0.3-3.4,0C234.1,480.7,233.1,481.4,232.4,482.4
				z"/>
		</g>
	</g>
	<path class="st0" d="M132.2,375.5c-8.3-22.8,13-53.4,13-53.4c-37.9-1.6-37.9,47.2-37.9,47.2L132.2,375.5z"/>
	<g>
		
			<ellipse transform="matrix(0.3601 -0.9329 0.9329 0.3601 -243.1948 328.4067)" class="st27" cx="117.8" cy="341.5" rx="2.9" ry="1.8"/>
		<g>
			<path class="st1" d="M120.5,338.6c0.7,0.7,0.9,1.8,0.8,2.8s-0.4,2-0.9,2.9c-0.6,0.8-1.3,1.6-2.4,2c-0.5,0.2-1.1,0.2-1.6-0.1
				c-0.5-0.2-0.8-0.7-1-1.1c0.3,0.3,0.7,0.6,1.1,0.7s0.8,0,1.2-0.2c0.7-0.4,1.3-1,1.8-1.8c0.5-0.7,0.8-1.6,1-2.4
				C120.8,340.5,120.8,339.6,120.5,338.6z"/>
		</g>
		<g>
			<path class="st3" d="M115.8,343.9c-0.5-0.6-0.6-1.3-0.5-2.1c0.1-0.7,0.3-1.4,0.7-2.1c0.4-0.6,0.9-1.2,1.7-1.4
				c0.4-0.1,0.8-0.1,1.1,0c0.4,0.2,0.6,0.4,0.8,0.8c-0.5-0.6-1.2-0.7-1.8-0.4c-0.6,0.3-1,0.8-1.4,1.3c-0.4,0.6-0.6,1.2-0.7,1.8
				C115.6,342.6,115.5,343.3,115.8,343.9z"/>
		</g>
	</g>
	<path class="st10" d="M145.2,322c-0.1,0-0.2,0-0.3,0c-21-0.7-30.3,14.2-34.4,27.4c-3.2,10.4-3.2,19.8-3.2,19.8
		S125.2,326.7,145.2,322z"/>
	<g>
		
			<ellipse transform="matrix(0.1504 -0.9886 0.9886 0.1504 -242.2517 429.8085)" class="st28" cx="128.9" cy="355.9" rx="2.6" ry="2.2"/>
		<g>
			<path class="st1" d="M128.8,359.8c-0.9,0.4-2.1,0-2.8-0.7c-0.8-0.7-1.2-1.8-1.2-2.9s0.3-2.1,1-2.9c0.6-0.8,1.7-1.4,2.7-1.3
				c-0.9,0.3-1.6,1-2,1.7s-0.6,1.6-0.6,2.5c0,0.8,0.3,1.7,0.7,2.4C127,359.2,127.8,359.7,128.8,359.8z"/>
		</g>
		<g>
			<path class="st3" d="M128.9,352.8c0.7-0.2,1.5,0.1,2,0.6s0.8,1.3,0.8,2.1c0,0.8-0.2,1.5-0.7,2.1s-1.2,1-1.9,1
				c0.7-0.2,1.2-0.7,1.5-1.2c0.3-0.6,0.5-1.2,0.5-1.9c0-0.6-0.2-1.3-0.6-1.8C130.2,353.2,129.6,352.8,128.9,352.8z"/>
		</g>
	</g>
	<g>
		
			<ellipse transform="matrix(0.9999 -1.254149e-02 1.254149e-02 0.9999 -4.6629 1.4226)" class="st29" cx="111.1" cy="372.5" rx="3.1" ry="5.1"/>
		<g>
			<path class="st1" d="M112.5,365.1c0.9,0.1,1.7,0.5,2.3,1.1c0.6,0.6,1.1,1.4,1.5,2.2c0.8,1.6,1,3.4,1,5.2c-0.1,1.8-0.6,3.5-1.6,5
				c-0.5,0.7-1.2,1.4-2,1.8s-1.9,0.4-2.6,0c1.8,0.1,2.8-1.2,3.5-2.5c0.3-0.7,0.6-1.4,0.7-2.1c0.2-0.7,0.3-1.5,0.3-2.3
				c0.1-1.5-0.1-3.1-0.5-4.6C114.6,367.5,113.9,366,112.5,365.1z"/>
		</g>
		<g>
			<path class="st3" d="M110.5,378.4c-0.6-0.1-1.2-0.4-1.6-0.9s-0.8-1-1.1-1.6c-0.5-1.2-0.7-2.5-0.7-3.7c0.1-1.3,0.4-2.6,1.1-3.7
				c0.4-0.5,0.8-1,1.4-1.3s1.3-0.3,1.9-0.1c-1.3-0.2-2.2,0.8-2.7,1.8s-0.8,2.2-0.8,3.3c-0.1,1.2,0.1,2.3,0.4,3.4
				C108.8,376.8,109.4,377.9,110.5,378.4z"/>
		</g>
	</g>
	<g>
		<ellipse transform="matrix(0.4711 -0.8821 0.8821 0.4711 -182.763 361.4291)" class="st30" cx="210" cy="333.1" rx="5.1" ry="4"/>
		<g>
			<path class="st1" d="M215.9,328.7c1.4,1.3,1.9,3.4,1.7,5.4s-1.1,3.9-2.5,5.3c-1.4,1.5-3.3,2.5-5.4,2.5c-1,0-2.1-0.3-2.9-0.8
				c-0.8-0.5-1.5-1.3-1.8-2.2c1.4,1.3,3.1,1.8,4.6,1.5c1.6-0.3,3-1.2,4.1-2.3c1.1-1.2,2-2.7,2.4-4.3
				C216.5,332.2,216.6,330.5,215.9,328.7z"/>
		</g>
		<g>
			<path class="st3" d="M205.7,337c-0.9-1-1.3-2.5-1.1-4c0.2-1.4,0.8-2.8,1.8-3.8s2.4-1.8,3.9-1.8c0.7,0,1.5,0.2,2.1,0.5
				c0.6,0.4,1.1,0.9,1.4,1.5c-0.9-1-2.2-1.4-3.4-1.3c-1.2,0.2-2.3,0.8-3.2,1.8c-0.9,0.9-1.5,2-1.8,3.3
				C205.2,334.4,205.2,335.8,205.7,337z"/>
		</g>
	</g>
	<g>
		
			<ellipse transform="matrix(0.5584 -0.8296 0.8296 0.5584 -210.6668 330.3075)" class="st31" cx="204.9" cy="363" rx="4" ry="2.8"/>
		<g>
			<path class="st1" d="M209.9,361.6c0.4,1.4,0.2,2.9-0.5,4.2c-0.6,1.3-1.6,2.5-2.9,3.3c-0.7,0.4-1.4,0.7-2.2,0.8
				c-0.8,0.1-1.6,0-2.3-0.3s-1.3-0.9-1.7-1.6c-0.3-0.7-0.4-1.4-0.3-2.1c0.4,1.4,1.3,2.4,2.4,2.7c1.1,0.3,2.3,0,3.4-0.7
				c1.1-0.6,2-1.5,2.7-2.6C209.1,364.2,209.7,363,209.9,361.6z"/>
		</g>
		<g>
			<path class="st3" d="M201.1,364.6c-0.2-1,0-2.1,0.4-3.1c0.5-1,1.2-1.8,2.1-2.4c0.9-0.6,2.1-0.8,3.2-0.4c0.5,0.2,0.9,0.6,1.2,1.1
				c0.2,0.5,0.3,1,0.3,1.5c-0.2-1-0.9-1.8-1.7-2.1c-0.9-0.3-1.8,0-2.6,0.5s-1.5,1.2-2,2C201.6,362.6,201.2,363.6,201.1,364.6z"/>
		</g>
	</g>
	<g>
		<ellipse transform="matrix(0.3631 -0.9318 0.9318 0.3631 -147.4576 426.131)" class="st32" cx="238" cy="320.9" rx="6" ry="3.6"/>
		<g>
			<path class="st1" d="M231.9,324.4c-0.7-1.9-0.6-4-0.1-6s1.4-3.9,2.9-5.4c0.7-0.8,1.5-1.5,2.5-2s2.2-0.8,3.3-0.6
				c0.6,0.1,1.1,0.4,1.6,0.7c0.4,0.4,0.8,0.8,1.1,1.3c0.5,1,0.7,2,0.6,3c-0.7-1.8-2-3.4-3.5-3.4s-3,1.1-4.2,2.4s-2.1,2.9-2.9,4.6
				C232.6,320.7,232.1,322.5,231.9,324.4z"/>
		</g>
		<g>
			<path class="st3" d="M242.6,317.6c0.4,1.4,0.3,2.9-0.1,4.4c-0.4,1.4-1.1,2.8-2.1,3.9c-0.5,0.6-1.1,1.1-1.8,1.4s-1.5,0.6-2.4,0.4
				c-0.8-0.1-1.5-0.7-1.9-1.4c-0.4-0.7-0.5-1.4-0.5-2.1c0.4,1.4,1.3,2.6,2.6,2.7c1.2,0.1,2.4-0.8,3.3-1.8c0.9-1,1.6-2.2,2.1-3.5
				C242.2,320.4,242.6,319,242.6,317.6z"/>
		</g>
	</g>
	<path class="st10" d="M198.7,398.7c0,0-8.8-18.2-3.8-48.7c0,0,1.8,24.3,6.6,41.3L198.7,398.7z"/>
	<g class="st33">
		<path class="st3" d="M342.9,838.4c-2.5,0.3-5,0.5-7.5,0.7c-2.5,0.1-5,0.2-7.5,0.3c-5,0.2-10.1,0.1-15.1-0.1
			c-10.1-0.3-20.1-1.2-30.1-2.6c-20-2.9-39.9-7.7-58.8-15.4c-9.5-3.9-18.7-8.5-27.4-14s-16.9-11.9-24.1-19.4
			c-3.6-3.7-6.9-7.7-10-11.9c-3-4.2-5.7-8.6-8-13.2c-2.3-4.6-4.2-9.4-5.6-14.3c-0.6-2.5-1.3-4.9-1.8-7.4s-0.8-5-1.1-7.5
			c1,2.3,1.7,4.7,2.8,7c0.9,2.3,2,4.5,3.1,6.7c2.3,4.4,4.7,8.6,7.5,12.6c2.7,4,5.8,7.8,9,11.4c3.2,3.6,6.7,7,10.3,10.1
			s7.4,6.1,11.4,8.9c4,2.7,8,5.3,12.2,7.7s8.5,4.7,12.8,6.8c4.4,2.1,8.8,4.1,13.3,5.9c18,7.4,36.9,12.8,56.1,17.2
			c9.6,2.2,19.3,4.1,29.1,5.9C323.1,835.4,332.9,837,342.9,838.4z"/>
	</g>
	<g class="st33">
		<path class="st3" d="M174.2,611.6c-2-3.9-3.7-7.9-5.3-12s-3.1-8.2-4.5-12.3c-2.7-8.3-5-16.8-6.9-25.4c-3.7-17.2-5.9-34.7-6.2-52.4
			c-0.1-4.4,0-8.8,0.1-13.2c0.3-4.4,0.5-8.8,1-13.2c0.4-4.4,1.1-8.8,1.7-13.1c0.8-4.3,1.5-8.7,2.6-13c3.9-17.2,10.5-33.9,19.6-48.7
			c-5.6,16.6-9.9,33.2-12.4,50.1c-0.3,2.1-0.7,4.2-0.9,6.3l-0.8,6.4c-0.3,4.3-0.8,8.5-1,12.8c-0.6,8.5-0.7,17.1-0.6,25.6
			c0.2,17.1,1.7,34.2,4,51.2c1.2,8.5,2.6,17,4.1,25.5C170.3,594.6,172.2,603.1,174.2,611.6z"/>
	</g>
	<g class="st33">
		<path class="st3" d="M133.7,307.5c1.4-2.6,3.1-4.9,5-7.1s4-4.3,6.2-6.2c4.4-3.9,9.3-7.2,14.4-10c5.2-2.8,10.6-5.1,16.2-7
			c5.6-1.8,11.3-3.2,17.1-4.1c0.7-0.1,1.4-0.2,2.2-0.3l2.2-0.3c1.5-0.2,2.9-0.4,4.4-0.5c2.9-0.2,5.8-0.5,8.8-0.5
			c1.5,0,2.9-0.1,4.4-0.1l4.4,0.1c2.9,0,5.8,0.4,8.7,0.6c11.6,1.1,22.9,3.6,33.8,7.4c-11.5-0.8-22.8-1.6-34.1-1.6h-4.2h-2.1L219,278
			l-4.2,0.1c-1.4,0.1-2.8,0.2-4.2,0.3c-5.6,0.3-11.1,1-16.6,1.8s-10.9,2.1-16.3,3.5c-5.3,1.5-10.6,3.3-15.7,5.5
			c-5.1,2.2-10.1,4.8-14.8,7.8C142.3,300,137.8,303.4,133.7,307.5z"/>
	</g>
	<g>
		<path class="st1" d="M821.1,523.9c-0.3,10.1-1.2,20.2-2.5,30.2c-3.9,29.3-12,58.2-24.2,85.4c-1.6,3.6-3.2,7.1-5,10.6
			c-0.5,1-0.9,1.9-1.4,2.9c-1.8,3.5-3.6,7-5.6,10.5c-6.8,12.3-14.5,24.1-23,35.4c-15,19.9-32.4,38.2-51.8,54.2
			c-13.1,10.8-27.1,20.5-41.8,29.1c-19.5,11.4-40.2,20.7-61.8,27.8c-37.9,12.4-78.5,17.6-118.8,15.2l6.8-72.4l1.3-14.3
			c29.4,4,59.6,2.7,88.8-4.3s57.4-19.6,82.4-37.1c23.6-16.5,44.6-37.3,61.3-61.2c1-1.5,2.1-3,3.1-4.5c11-16.5,20-34.5,26.8-53.4
			c3.8-10.7,7-21.6,9.4-32.8c1.5-7,3.3-20.1,3.6-21.1c1.4-4.7,23.2-3.3,38.3-1.7C815,523,821.1,523.9,821.1,523.9z"/>
	</g>
	<path class="st9" d="M705.4,661.1c1.7,3.4,3.5,6.7,5.3,9.9c4.8,8.8,9.7,17.3,14.4,25.5c4.6,8.2,9,16.2,12.6,24
		c0.4,0.9,0.9,1.9,1.3,2.8c3.6-3.9,7.2-8,10.6-12.1c7.4-8.9,14.3-18.2,20.7-27.8c-2.2-6.6-5.2-12.8-8.9-18.4
		c-3.8-5.7-7.8-11.3-11.5-17.1c-5-7.8-9.6-15.5-13.4-23.1c-0.5-1-1-2.1-1.5-3.1c-1.9,3.2-3.9,6.3-5.9,9.4c-4,6-8.3,11.9-12.9,17.6
		C712.6,653,709,657.1,705.4,661.1z"/>
	<g>
		<path class="st0" d="M770,731.3c0.1-0.8,0.1-1.6,0.1-2.4c0.1-3.6-0.3-7.5-1.2-11.8c-1.2-5.8-3.3-12.4-6.3-19.6
			c-1-2.4-2.1-5-3.4-7.8c-4.6-9.9-10.1-20-15.4-29.3c-2.1-3.7-4.2-7.5-6.4-11.3c-2.8-4.9-5.7-10-8.6-15.1c-0.8-1.5-1.6-2.9-2.4-4.4
			c-7.1-12.9-12.2-23.3-16.6-33.5c-5.9-14-9.7-26.2-11.8-38.4c-1.2-7.3-1.8-14.5-1.7-21.4c0.1-7.5,1.1-14.9,2.9-22
			c0.8-3.5,2-7,3.3-10.6l1.3-3.2c0.3-0.6,0.5-1.2,0.7-1.7l2.2-4.9c3-6.1,6.5-12,10.2-17.6c4.1-6,8.9-12,14.3-17.6
			c3.9-4.1,8.2-8.1,12.8-11.9c3.5-2.9,7.2-5.8,11.5-8.8c1.4-1,2.8-1.9,4.2-2.8l0.9-0.6c1.1-0.7,2.1-1.4,3.1-2l1.2-0.7l0.9-0.5
			c0.3-0.2,0.6-0.4,0.9-0.6c0.4-0.2,0.7-0.4,1-0.6l7.6-4.5c5.3-3.1,10-6,14.4-8.8l5.1-3.4l1.5-1.1c0.4-0.3,0.8-0.6,1.2-0.9
			c0.7-0.5,1.4-1,2-1.5l2.9-2.3c0.3-0.2,0.6-0.5,0.8-0.7l0.1-0.1c4.2-3.5,7.1-6.4,9.4-9.3l1.2-1.3l1-1.5c0.3-0.4,0.5-0.8,0.8-1.1
			c0.4-0.5,0.8-1,1.1-1.6l0.1-0.2l0.1-0.2c0.3-0.6,0.7-1.2,1-1.7c0.7-1.3,1.5-2.5,2.1-4c2-4,3.1-8.3,4.3-13.2v-0.2l0.5-3.7v-0.1
			c0-0.1,0.1-0.7,0.1-0.9c0.1-0.8,0.3-1.7,0.3-2.7l0.2-3.4v-3.7c-0.2-5-0.8-9.9-1.9-14.5c-1.2-4.8-2.9-9.6-5-14.1
			c-1.6-3.4-3.5-6.7-5.7-9.9c-0.1-0.2-0.3-0.4-0.4-0.6c0.9-0.1,1.8-0.1,2.7-0.1c18.3,0,34.3,16,37.2,37.2v0.2l0.4,5.1v5.3
			c0,1.1-0.1,2.2-0.2,3.3c0,0.6-0.1,1.1-0.1,1.7l-0.4,5l-0.9,5.2l-0.1,0.7c-0.2,1.5-0.5,2.8-0.9,4.2l-1.5,5.4
			c-0.2,0.6-0.4,1.2-0.6,1.8l-1.2,3.2c-0.9,2.5-2.1,5-3.3,7.5c-0.4,0.7-0.7,1.4-1.1,2.1c-0.5,1-1.1,1.9-1.8,3
			c-0.3,0.5-0.7,1.1-1,1.6c-0.1,0.2-0.3,0.5-0.5,0.8c-0.3,0.5-0.6,0.9-0.8,1.3l-1.6,2.2c-4.4,6.3-9.6,11.6-13.7,15.4l-3.7,3.4
			c-0.8,0.7-1.7,1.5-2.7,2.2l-1,0.8l-1.9,1.5l-1.9,1.5l-3.8,2.9c-2.7,2-5.6,4.1-8.5,6.1c-2,1.4-4.1,2.8-6.3,4.4l-7.2,5
			c-0.4,0.3-0.8,0.6-1.2,0.8l-2.1,1.5c-1,0.7-1.9,1.4-2.9,2.1l-0.3,0.3c-2.3,1.7-4.5,3.5-6.6,5.3c-1.9,1.6-3.7,3.2-5.3,4.8l-0.2,0.2
			c-7.6,7.4-13.8,15.1-18.4,23.1c-1.3,2.2-2.3,4.2-3.3,6.1c-1.2,2.4-2.2,4.7-3.2,7l-1.3,3.3c-0.2,0.6-0.4,1.1-0.5,1.4l-0.6,1.8
			c-0.7,2.4-1.2,4.4-1.5,6.3c-1.4,8.1-1,16.7,1.3,26.1c2.1,8.5,5.7,17.8,10.8,27.8c0,0,1,1.9,1.3,2.5c4,7.7,8.8,15.9,15.2,25.8
			c3.9,6.1,7.8,12.1,12,18.4c2.3,3.5,4.7,7.1,7,10.7l1.5,2.3c0.9,1.4,1.8,2.8,2.8,4.3C806.3,701.2,783.2,722,770,731.3z"/>
		<g>
			<path class="st1" d="M819.3,322.8c8.3,1.1,14.4,5.7,18.2,9.6c6.1,6.3,10.2,14.9,11.5,24.2v0.1l0.4,4.9v5.1v0.1v0.1
				c0,0.9-0.1,1.8-0.1,2.9c0,0.5-0.1,1.1-0.1,1.7l-0.4,4.9l-0.8,5l-0.1,0.7c-0.2,1.3-0.4,2.6-0.8,3.7v0.1v0.1l-1.4,5.3v0.1v0.1
				c-0.1,0.3-0.3,0.8-0.5,1.4l-0.2,0.5l-1,2.6v0.1v0.1c-0.8,2.3-1.9,4.6-3.2,7.1c-0.3,0.7-0.7,1.4-1,2.1c-0.5,0.9-1,1.8-1.6,2.7
				c-0.3,0.5-0.7,1.1-1,1.6c-0.2,0.3-0.4,0.6-0.5,0.9c-0.2,0.4-0.5,0.8-0.7,1.2l-1.5,2.1v0.1v0.1c-4.1,6-9.2,11-13.1,14.8l-3.7,3.3
				c-0.8,0.7-1.7,1.4-2.5,2.1c-0.4,0.3-0.7,0.6-1.1,0.9l-1.8,1.5l-1.8,1.4l-1.1,0.8l-2.7,2c-2.7,2-5.5,4-8.4,6l0,0l0,0
				c-1.9,1.4-4,2.8-6.3,4.4l-7.2,4.9c-0.5,0.3-0.9,0.6-1.3,0.9l-0.5,0.3l-1.5,1.1c-1.1,0.8-2.1,1.5-3,2.3l-0.3,0.2
				c-2.3,1.8-4.6,3.6-6.7,5.4c-1.9,1.6-3.8,3.3-5.5,4.9l-0.1,0.1l-0.1,0.1l-0.1,0.1c-7.9,7.6-14.3,15.7-19,23.9
				c-1.3,2.2-2.4,4.3-3.4,6.3c-1.2,2.5-2.3,4.9-3.3,7.3v0.1v0.1l-1.2,3.2c-0.3,0.7-0.5,1.3-0.6,1.7c0,0.1-0.1,0.2-0.1,0.3l0,0l0,0
				l-0.5,1.4v0.1v0.1c-0.7,2.5-1.2,4.6-1.5,6.6c-1.5,8.7-1,17.7,1.4,27.6c2.1,8.7,5.8,18.4,11.1,28.6l0.4,0.8
				c0.3,0.5,0.6,1.1,0.8,1.6c4.1,7.8,8.9,16,15.3,26.1c3.9,6.1,7.9,12.1,12.1,18.5c2.3,3.5,4.7,7,7,10.6c0.5,0.8,1,1.6,1.6,2.4
				c0.8,1.2,1.6,2.5,2.4,3.7c6.8,27,6.4,48.8-1.2,64.8c-3.6,7.6-8.3,12.9-12.8,16.7c-0.2-2.4-0.6-4.9-1.1-7.6
				c-1.2-6-3.4-12.8-6.5-20.3c-1-2.5-2.2-5.1-3.5-7.9c-4.6-10.1-10.2-20.2-15.5-29.6c-2.1-3.7-4.3-7.6-6.4-11.3
				c-2.8-4.9-5.7-10-8.6-15.2c-1-1.7-1.7-3.1-2.4-4.3c-7-12.8-12.1-23.1-16.4-33.2c-5.8-13.7-9.5-25.7-11.6-37.6
				c-1.2-7.1-1.8-14-1.6-20.7c0.1-7.3,1.1-14.4,2.8-21.2c0.8-3.3,1.9-6.7,3.2-10.1l1-2.6l0,0l0.2-0.6c0.2-0.5,0.4-1.1,0.6-1.4
				l0.1-0.1v-0.1l2.1-4.7c3-6,6.3-11.8,10-17.1c4-5.9,8.6-11.6,13.9-17.1c3.8-4,8-7.9,12.5-11.7c3.4-2.8,7-5.6,11.2-8.6
				c1.4-1,2.8-1.9,4.1-2.8l1-0.6c1-0.7,2-1.3,2.9-1.9l0,0l0,0l1.1-0.7l0.9-0.5c0.3-0.2,0.7-0.4,1-0.6s0.6-0.4,0.9-0.6l0,0l0,0
				l7.5-4.5c5.3-3.1,10-6,14.5-8.8h0.1h0.1l1.4-0.9l1.9-1.3l1.6-1.1l0.1-0.1l0.1-0.1l1.5-1.1l0,0l0,0c0.4-0.3,0.7-0.5,1.1-0.8
				c0.7-0.5,1.4-1,2.1-1.6l2.9-2.3l0,0l0,0c0.3-0.2,0.6-0.5,0.9-0.7l0.1-0.1c4.4-3.7,7.4-6.7,9.9-9.8l1-1.1l0.3-0.3l0.2-0.3l0.9-1.3
				c0.2-0.3,0.5-0.7,0.7-1c0.4-0.5,0.8-1.1,1.2-1.7l0.2-0.3l0.2-0.3c0.3-0.5,0.6-1,0.9-1.6c0.7-1.3,1.6-2.7,2.3-4.4
				c2.1-4.3,3.3-8.8,4.5-13.8l0.1-0.3v-0.3l0.5-3.4v-0.2v-0.1l0,0v-0.1v-0.1c0-0.2,0.1-0.4,0.1-0.6c0.1-0.9,0.3-1.9,0.3-3.1l0.2-3.2
				v-0.3v-0.3v-3.4v-0.1v-0.1c-0.2-5.3-0.9-10.4-2-15.2l0,0l0,0c-1.3-5-3-10-5.2-14.7l0,0l0,0C821.1,326.1,820.2,324.4,819.3,322.8
				 M828.6,369L828.6,369L828.6,369 M815.3,315.2c-3,0-6.1,0.4-9.2,1.1c1.4,1.7,2.7,3.4,3.9,5.2c2,3,3.8,6.1,5.4,9.4
				c2,4.3,3.6,8.8,4.8,13.4c1.1,4.6,1.7,9.2,1.8,13.8v3.4l-0.2,3.4c0,1-0.2,2-0.4,3c0,0.2-0.1,0.3-0.1,0.5l-0.5,3.4
				c-1,4.4-2.1,8.7-4,12.5c-0.8,2-2,3.7-3,5.6c-0.6,0.9-1.2,1.7-1.9,2.6l-0.9,1.3l-1.1,1.2c-2.5,3.1-5.6,6.1-9,8.9
				c-0.3,0.2-0.5,0.5-0.8,0.7l-2.9,2.3c-1,0.8-2,1.5-3.1,2.2l-1.5,1.1l-1.6,1.1l-1.9,1.3l-1.4,0.9c-4.6,2.9-9.2,5.8-14.3,8.7
				l-7.5,4.5c-0.6,0.3-1.3,0.8-2,1.2l-0.9,0.6l-1.2,0.7c-1.4,0.8-2.7,1.8-4.1,2.7c-1.4,0.9-2.8,1.9-4.2,2.9c-4,2.8-7.9,5.8-11.7,9
				c-4.5,3.8-8.9,7.9-13.1,12.2c-5.3,5.6-10.3,11.6-14.6,18.1c-3.9,5.8-7.4,11.8-10.5,18.1l-2.2,4.8c-0.4,0.7-0.7,1.7-1.1,2.6
				l-1,2.7c-1.4,3.6-2.5,7.3-3.4,11c-1.9,7.5-2.8,15.2-3,22.8c-0.1,7.6,0.5,15,1.8,22.1c2.4,14.2,6.9,27.2,12,39.2
				s10.9,23.2,16.8,33.9c0.8,1.5,1.6,3,2.5,4.4c5.1,9.1,10.1,17.9,15,26.4c5.6,10,10.9,19.7,15.2,29.1c1.2,2.6,2.3,5.1,3.4,7.6
				c2.7,6.7,4.9,13.1,6.1,19c0.8,4,1.2,7.7,1.1,11c-0.1,3.3-0.5,6.2-1.3,8.8c-0.3,0.9-0.6,1.8-1,2.6c0.1-0.1,0.1-0.2,0.2-0.4
				c4.9-6.2,50.5-20.4,29.9-100.4l0,0c-1.5-2.4-3.1-4.8-4.6-7.1c-6.5-10-13-19.6-19-29.1c-5.5-8.6-10.6-17.1-15-25.5
				c-0.4-0.8-0.8-1.6-1.2-2.4c-4.7-9.2-8.4-18.3-10.5-27s-2.6-16.9-1.3-24.7c0.3-2,0.8-3.9,1.4-5.8l0.5-1.4c0.2-0.5,0.3-0.9,0.5-1.5
				l1.3-3.3c0.9-2.3,2-4.5,3.1-6.8c1-2,2.1-4,3.2-5.9c4.7-8.1,10.8-15.5,17.8-22.3c0.1-0.1,0.1-0.1,0.2-0.2c1.7-1.6,3.4-3.1,5.2-4.7
				c2.1-1.8,4.2-3.5,6.4-5.1c1-0.8,2-1.6,3.1-2.3l1.6-1.1c0.5-0.4,1-0.7,1.7-1.2l7.2-4.9c2.1-1.4,4.2-2.9,6.4-4.4
				c2.9-2,5.7-4.1,8.6-6.2l2.7-2.1l1.1-0.8l1.9-1.5l1.9-1.6c1.3-1.1,2.6-2.1,3.8-3.2l3.8-3.4c5-4.7,9.9-9.9,14.1-15.9l1.6-2.2
				c0.5-0.8,1-1.6,1.5-2.4c1-1.6,2-3.2,2.9-4.8c1.6-3.4,3.4-6.7,4.6-10.2l1-2.6c0.3-0.9,0.7-1.7,0.9-2.6l1.4-5.3
				c0.5-1.8,0.8-3.6,1.1-5.3l0.9-5.3l0.4-5.2c0.1-1.8,0.3-3.5,0.3-5.3v-5.4l-0.4-5.3c0-0.1,0-0.2,0-0.3
				C853.1,333.9,836.8,315.2,815.3,315.2L815.3,315.2z"/>
		</g>
	</g>
	<path class="st10" d="M787.6,642.6c6.8,26.9,6.4,48.7-1.2,64.7c-3.4,7.1-7.7,12.2-11.9,16l-0.8,0.7c0,0-0.6-7.6-2.6-13.9
		C771,710.1,790.5,695.3,787.6,642.6z"/>
	<g>
		<ellipse class="st11" cx="727.1" cy="607.7" rx="6.9" ry="8.8"/>
		<g>
			<path class="st1" d="M733.3,618.6c2.2-2.3,3.3-5.1,3.8-8c0.5-2.8,0.3-5.8-0.6-8.4c-0.9-2.7-2.4-5-4.7-6.4s-5.4-1.6-8.4-0.4
				c1.1-1.2,2.6-2,4.3-2.4s3.5-0.2,5.2,0.4c1.7,0.6,3.2,1.8,4.3,3.2s2,3,2.5,4.6c1.1,3.3,1.1,6.9,0,10.1c-0.5,1.6-1.4,3.1-2.4,4.4
				C736.1,617,734.8,618,733.3,618.6z"/>
		</g>
		<g>
			<path class="st3" d="M723.2,598.7c-1.7,1.6-2.7,3.7-3.1,5.9c-0.4,2.2-0.3,4.4,0.4,6.4s1.9,3.9,3.7,5s4.2,1.2,6.3,0.2
				c-0.9,0.8-2,1.4-3.2,1.6c-1.2,0.2-2.5,0-3.7-0.5c-2.4-1.1-4-3.3-4.8-5.6c-0.8-2.4-0.8-5-0.1-7.3
				C719.5,601.9,721,599.7,723.2,598.7z"/>
		</g>
	</g>
	<g>
		
			<ellipse transform="matrix(0.6201 -0.7845 0.7845 0.6201 -94.7648 771.3699)" class="st12" cx="749.1" cy="483.5" rx="6.7" ry="4.3"/>
		<g>
			<path class="st1" d="M754,474.7c-2.2-0.5-4.3,0.3-6,1.4s-3.2,2.6-4.4,4.3c-1.2,1.7-2.1,3.6-2.5,5.6s-0.2,4.2,1.6,5.7
				c-1.1-0.3-2.1-1.2-2.7-2.3c-0.5-1.1-0.8-2.4-0.7-3.6c0.1-2.5,1-4.8,2.4-6.7c1.4-2,3.3-3.6,5.5-4.6c1.1-0.5,2.3-0.8,3.5-0.8
				C751.9,473.6,753.1,473.9,754,474.7z"/>
		</g>
		<g>
			<path class="st3" d="M744.8,490.1c1.6,0.5,3.2-0.1,4.5-0.9s2.5-1.9,3.4-3.2c0.9-1.3,1.6-2.7,1.9-4.2c0.1-0.8,0.1-1.5-0.1-2.3
				c-0.2-0.7-0.6-1.4-1.3-1.9c0.8,0.3,1.5,0.9,1.9,1.7c0.4,0.8,0.5,1.7,0.4,2.6c-0.1,1.8-0.8,3.4-1.8,4.9c-1,1.4-2.3,2.6-3.9,3.4
				c-0.8,0.4-1.6,0.6-2.5,0.7C746.4,490.8,745.5,490.6,744.8,490.1z"/>
		</g>
	</g>
	<g>
		
			<ellipse transform="matrix(0.9238 -0.3828 0.3828 0.9238 -111.244 325.1397)" class="st13" cx="761.4" cy="442.1" rx="6.7" ry="4.8"/>
		<g>
			<path class="st1" d="M754.4,448.8c2.1,1,4.4,1.1,6.5,0.8c2.1-0.4,4.1-1.2,5.9-2.4c1.7-1.2,3.2-2.7,4-4.6s0.7-4.1-0.8-6
				c1.1,0.5,2,1.5,2.5,2.7s0.5,2.6,0.2,3.9c-0.6,2.6-2.4,4.7-4.5,6.1s-4.6,2.2-7.1,2.2c-1.3,0-2.5-0.2-3.7-0.6
				C756.2,450.4,755.2,449.7,754.4,448.8z"/>
		</g>
		<g>
			<path class="st3" d="M767.3,437.3c-1.5-0.9-3.2-1-4.8-0.8s-3.1,0.8-4.5,1.7c-1.3,0.9-2.5,2.1-3,3.6c-0.6,1.4-0.4,3.2,0.8,4.5
				c-0.8-0.4-1.4-1.2-1.7-2c-0.3-0.9-0.3-1.9-0.1-2.8c0.5-1.8,1.8-3.3,3.3-4.3s3.3-1.6,5.1-1.7C764.2,435.5,766.1,436,767.3,437.3z"
				/>
		</g>
	</g>
	<g>
		
			<ellipse transform="matrix(3.821956e-02 -0.9993 0.9993 3.821956e-02 151.5147 1254.1329)" class="st14" cx="727.3" cy="548.4" rx="7.3" ry="5.5"/>
		<g>
			<path class="st1" d="M722.7,539.1c-1.8,1.9-2.8,4.2-3.2,6.5s-0.4,4.7,0.2,7c0.6,2.2,1.7,4.3,3.4,5.7s4.2,1.8,6.7,0.8
				c-0.9,1-2.2,1.6-3.6,1.8c-1.4,0.2-3-0.1-4.2-0.8c-2.6-1.4-4.2-4.1-4.9-6.8s-0.5-5.6,0.4-8.2C718.4,542.4,720.2,540,722.7,539.1z"
				/>
		</g>
		<g>
			<path class="st3" d="M730,556c1.4-1.3,2.2-3,2.6-4.8c0.4-1.8,0.4-3.6-0.1-5.3c-0.4-1.7-1.3-3.3-2.7-4.3s-3.3-1.2-5.1-0.4
				c0.7-0.7,1.6-1.1,2.7-1.2c1-0.1,2.1,0.1,3,0.7c1.8,1.1,3,3,3.5,4.9c0.5,2,0.4,4.1-0.2,6C733.1,553.5,731.8,555.2,730,556z"/>
		</g>
	</g>
	<g>
		
			<ellipse transform="matrix(0.78 -0.6257 0.6257 0.78 -250.5561 624.2817)" class="st15" cx="762.7" cy="668.5" rx="7.3" ry="8.5"/>
		<g>
			<path class="st1" d="M774,674.1c0.8-3.1,0.4-6.2-0.7-8.8c-1.1-2.7-3-4.9-5.2-6.6c-2.3-1.6-5-2.6-7.8-2.5s-5.6,1.3-7.7,3.8
				c0.4-1.6,1.3-3.1,2.6-4.2c1.3-1.1,3-1.9,4.7-2.3c3.5-0.7,7.3,0.4,10.1,2.4c2.9,2.1,5,5.1,5.8,8.5c0.4,1.7,0.5,3.5,0.2,5.1
				C775.8,671.3,775.1,672.9,774,674.1z"/>
		</g>
		<g>
			<path class="st3" d="M754.4,663.1c-0.7,2.3-0.5,4.6,0.2,6.6c0.8,2,2.2,3.8,3.9,5.1s3.9,2,6,1.9s4.2-1.2,5.6-3.1
				c-0.4,1.1-1.1,2.2-2.1,3s-2.2,1.3-3.4,1.6c-1.3,0.2-2.6,0.1-3.8-0.2s-2.4-0.9-3.4-1.6c-2-1.5-3.6-3.7-4.2-6.1
				C752.7,667.8,753,665.1,754.4,663.1z"/>
		</g>
	</g>
	<g>
		
			<ellipse transform="matrix(0.643 -0.7658 0.7658 0.643 -220.3686 800.453)" class="st16" cx="748.5" cy="636.6" rx="3.8" ry="4.5"/>
		<g>
			<path class="st1" d="M742.1,634.8c-0.1,1.7,0.4,3.2,1.3,4.5c0.9,1.2,2,2.2,3.4,2.8c1.3,0.6,2.8,0.8,4.2,0.5s2.7-1.3,3.6-2.8
				c-0.1,1.7-1.4,3.4-3.1,4.1c-0.9,0.4-1.8,0.5-2.7,0.5c-0.9-0.1-1.8-0.3-2.7-0.7c-1.7-0.8-3.1-2.1-3.8-3.8
				C741.4,638.3,741.3,636.3,742.1,634.8z"/>
		</g>
		<g>
			<path class="st3" d="M753.3,638.5c0.2-1.2-0.2-2.4-0.8-3.4s-1.5-1.7-2.5-2.2s-2.2-0.6-3.3-0.3s-2.1,1-2.6,2.2
				c0.1-1.2,1.1-2.4,2.3-2.9c1.3-0.5,2.7-0.4,3.9,0.2c1.2,0.6,2.2,1.5,2.8,2.7C753.7,635.9,753.9,637.3,753.3,638.5z"/>
		</g>
	</g>
	<path class="st0" d="M812.2,435.7c0,0,25.9-66.4,24.9-102.7C837.2,332.9,885.9,386.9,812.2,435.7z"/>
	<g>
		
			<ellipse transform="matrix(0.9459 -0.3245 0.3245 0.9459 -148.8813 273.2978)" class="st16" cx="745" cy="583" rx="3.8" ry="4.5"/>
		<g>
			<path class="st1" d="M740.4,578.2c-1,1.4-1.3,3-1.2,4.5s0.6,3,1.4,4.2c0.8,1.2,2,2.1,3.4,2.5s3,0.2,4.5-0.7
				c-0.9,1.4-2.8,2.3-4.7,2c-0.9-0.1-1.8-0.4-2.6-0.9s-1.4-1.2-2-2c-1-1.5-1.5-3.4-1.3-5.2C738,580.8,738.9,579.1,740.4,578.2z"/>
		</g>
		<g>
			<path class="st3" d="M748.1,587.1c0.8-1,1.1-2.2,1.1-3.3s-0.4-2.3-1-3.2s-1.5-1.7-2.6-2s-2.3-0.2-3.3,0.5c0.8-1,2.2-1.5,3.5-1.3
				s2.5,1.1,3.2,2.2c0.7,1.1,1.1,2.4,1,3.7C749.8,585.1,749.2,586.4,748.1,587.1z"/>
		</g>
	</g>
	<g>
		
			<ellipse transform="matrix(0.1256 -0.9921 0.9921 0.1256 131.213 1177.3771)" class="st17" cx="733.5" cy="514.3" rx="4.3" ry="2.5"/>
		<g>
			<path class="st1" d="M734.2,507.8c-1.5,0-2.3,1.1-3,2.1c-0.6,1.1-1,2.4-1.2,3.7s-0.2,2.6,0,3.9c0.2,1.2,0.7,2.6,1.9,3.3
				c-0.7,0-1.4-0.5-1.9-1c-0.5-0.6-0.8-1.2-1.1-1.9c-0.5-1.4-0.5-2.9-0.3-4.4c0.2-1.4,0.7-2.9,1.7-4c0.5-0.6,1-1.1,1.7-1.4
				C732.7,507.5,733.6,507.5,734.2,507.8z"/>
		</g>
		<g>
			<path class="st3" d="M732.7,519.3c1.1,0.1,1.8-0.7,2.3-1.5s0.8-1.8,0.9-2.7c0.2-1,0.2-1.9,0-2.9c-0.2-0.9-0.6-1.9-1.5-2.4
				c0.5,0.1,1,0.4,1.3,0.8s0.6,0.9,0.7,1.4c0.3,1,0.4,2.1,0.2,3.2c-0.2,1-0.5,2.1-1.2,2.9c-0.3,0.4-0.7,0.8-1.2,1.1
				C733.8,519.5,733.2,519.5,732.7,519.3z"/>
		</g>
	</g>
	<g>
		
			<ellipse transform="matrix(0.2315 -0.9728 0.9728 0.2315 126.8369 1079.1611)" class="st18" cx="746.5" cy="459.3" rx="2.5" ry="3.6"/>
		<g>
			<path class="st1" d="M741.3,457.8c-0.4,1.2,0.1,2.3,0.8,3.1c0.7,0.8,1.7,1.4,2.8,1.8s2.2,0.5,3.3,0.4s2.2-0.5,3.1-1.4
				c-0.4,1.2-1.7,2.1-2.9,2.4c-1.3,0.3-2.7,0.2-3.9-0.2c-1.2-0.4-2.4-1.2-3.2-2.4c-0.4-0.6-0.6-1.2-0.6-1.9
				C740.6,458.9,740.9,458.3,741.3,457.8z"/>
		</g>
		<g>
			<path class="st3" d="M750.4,460.8c0.3-0.9,0-1.8-0.5-2.4s-1.3-1.1-2.1-1.4s-1.7-0.4-2.5-0.3s-1.7,0.4-2.3,1.1
				c0.3-0.9,1.3-1.5,2.2-1.7s1.9-0.1,2.8,0.2c0.9,0.3,1.7,0.9,2.3,1.7c0.3,0.4,0.5,0.9,0.5,1.4C750.8,459.9,750.7,460.4,750.4,460.8
				z"/>
		</g>
	</g>
	<g>
		
			<ellipse transform="matrix(0.9834 -0.1817 0.1817 0.9834 -60.2726 159.2486)" class="st19" cx="839" cy="408.6" rx="2.1" ry="2.9"/>
		<g>
			<path class="st1" d="M838.4,404.2c-1,0.1-1.7,0.8-2.1,1.7c-0.4,0.8-0.5,1.8-0.4,2.7c0.1,0.9,0.3,1.8,0.8,2.7
				c0.5,0.8,1.1,1.5,2.1,1.9c-1.1,0.1-2.1-0.6-2.8-1.4c-0.7-0.9-1.1-1.9-1.2-3c-0.1-1.1,0.1-2.2,0.7-3.2c0.3-0.5,0.7-0.9,1.2-1.1
				C837.3,404.1,837.9,404,838.4,404.2z"/>
		</g>
		<g>
			<path class="st3" d="M839.2,412c0.8,0,1.3-0.6,1.6-1.2s0.4-1.3,0.3-2c0-0.7-0.3-1.4-0.6-2c-0.4-0.6-0.9-1.1-1.6-1.3
				c0.8,0,1.5,0.5,2,1.1s0.7,1.4,0.8,2.2c0.1,0.8-0.1,1.6-0.5,2.3c-0.2,0.3-0.5,0.6-0.9,0.8C840,412.1,839.6,412.1,839.2,412z"/>
		</g>
	</g>
	<g>
		
			<ellipse transform="matrix(0.5705 -0.8213 0.8213 0.5705 1.6734 857.0012)" class="st20" cx="820.2" cy="426.9" rx="4.9" ry="3.6"/>
		<g>
			<path class="st1" d="M825.3,421.5c-1.2-1.3-2.8-1.7-4.3-1.4c-1.5,0.3-2.8,1.2-3.9,2.3c-1.1,1.1-2,2.4-2.5,3.9s-0.8,3.1-0.3,4.8
				c-1.2-1.3-1.5-3.4-1.1-5.2c0.4-1.8,1.3-3.5,2.6-4.8s3.1-2.3,5-2.4c1-0.1,2,0.2,2.8,0.7C824.4,419.9,825,420.6,825.3,421.5z"/>
		</g>
		<g>
			<path class="st3" d="M816,430.6c0.8,1,2.1,1.4,3.2,1.2c1.1-0.2,2.2-0.8,3-1.7c0.8-0.8,1.5-1.9,1.9-3s0.5-2.4,0.1-3.6
				c0.8,1,1,2.5,0.7,3.8s-1,2.5-1.9,3.5c-1,0.9-2.2,1.7-3.6,1.7c-0.7,0.1-1.4-0.1-2-0.4C816.7,431.8,816.2,431.3,816,430.6z"/>
		</g>
	</g>
	<g>
		
			<ellipse transform="matrix(0.3493 -0.937 0.937 0.3493 173.4206 1029.1897)" class="st21" cx="827.7" cy="389.7" rx="5.5" ry="3.5"/>
		<g>
			<path class="st1" d="M823.7,397c0.7,0.6,1.6,0.9,2.4,0.8c0.8,0,1.6-0.3,2.2-0.8c1.4-0.9,2.4-2.2,3.2-3.7s1.4-3.1,1.7-4.8
				c0.2-1.7,0.3-3.5-0.6-5.1c0.7,0.6,1.3,1.5,1.6,2.4s0.5,1.9,0.5,2.9c0,1.9-0.5,3.9-1.5,5.6s-2.3,3.3-4.2,4.1c-0.9,0.4-2,0.6-3,0.4
				C825,398.5,824.2,397.8,823.7,397z"/>
		</g>
		<g>
			<path class="st3" d="M831.1,384.4c-0.5-0.4-1.1-0.7-1.8-0.7c-0.6,0-1.2,0.2-1.7,0.5c-1.1,0.6-1.9,1.7-2.5,2.8
				c-0.6,1.1-1,2.4-1.2,3.6c-0.1,1.3-0.1,2.6,0.6,3.8c-1-0.9-1.4-2.5-1.4-3.9s0.4-2.8,1.1-4.1c0.7-1.2,1.7-2.4,3-3
				c0.7-0.3,1.4-0.4,2.2-0.3C830.1,383.4,830.8,383.8,831.1,384.4z"/>
		</g>
	</g>
	<g>
		<path class="st0" d="M715.7,598.6c0,0-29.1-94.4,37.4-154.6C753.1,444,657.6,492.8,715.7,598.6z"/>
	</g>
	<g>
		
			<ellipse transform="matrix(0.5559 -0.8312 0.8312 0.5559 -106.9059 813.4446)" class="st22" cx="707.9" cy="506.8" rx="6.7" ry="5"/>
		<g>
			<path class="st1" d="M704.5,516.2c2.4,0.3,4.5-0.6,6.2-1.9c1.7-1.3,3.1-3,4.1-4.9s1.6-4,1.5-6.1s-1-4.2-3.1-5.5
				c1.2,0.1,2.4,0.8,3.3,1.7c0.9,1,1.5,2.2,1.7,3.5c0.5,2.6,0,5.3-1.2,7.5c-1.2,2.3-3,4.2-5.3,5.4c-1.1,0.6-2.4,1-3.7,1
				C706.8,517.1,705.5,516.9,704.5,516.2z"/>
		</g>
		<g>
			<path class="st3" d="M711.2,499.7c-1.7-0.3-3.4,0.3-4.7,1.2c-1.3,0.9-2.4,2.2-3.2,3.6s-1.2,3-1.1,4.6c0.1,1.6,0.9,3.2,2.5,4
				c-0.9-0.1-1.7-0.6-2.3-1.3s-1-1.6-1.2-2.5c-0.4-1.9,0.1-3.8,0.9-5.4c0.9-1.6,2.2-3,3.8-3.9C707.5,499.2,709.6,498.8,711.2,499.7z
				"/>
		</g>
	</g>
	<g>
		
			<ellipse transform="matrix(0.9359 -0.3523 0.3523 0.9359 -168.5832 308.6071)" class="st23" cx="763.6" cy="617.5" rx="4.6" ry="6.3"/>
		<g>
			<path class="st1" d="M756.9,611.7c-0.8,2.1-0.7,4.3-0.3,6.3c0.5,2,1.3,3.9,2.5,5.5s2.8,2.9,4.6,3.4s3.9,0,5.5-1.7
				c-0.4,1.1-1.2,2-2.2,2.7c-1.1,0.6-2.4,0.9-3.6,0.8c-2.6-0.3-4.7-1.9-6.2-3.8c-1.5-1.9-2.3-4.3-2.4-6.6
				C754.7,615.8,755.3,613.3,756.9,611.7z"/>
		</g>
		<g>
			<path class="st3" d="M768.4,622.6c0.7-1.5,0.7-3.1,0.4-4.7c-0.3-1.5-0.9-3-1.8-4.2c-0.9-1.2-2.1-2.2-3.6-2.5
				c-1.4-0.4-3,0.2-4.1,1.4c0.3-0.8,0.9-1.4,1.7-1.9c0.8-0.4,1.7-0.6,2.6-0.5c1.8,0.2,3.3,1.4,4.4,2.7c1,1.4,1.7,3.1,1.8,4.8
				C769.9,619.5,769.5,621.4,768.4,622.6z"/>
		</g>
	</g>
	<path class="st24" d="M764.2,740.3c-0.2,0.4-0.3,0.5-0.3,0.5"/>
	<path class="st10" d="M770.4,476.6c-7.1,6.8-13.1,14.2-17.8,22.3c-1.1,1.9-2.2,3.9-3.2,5.9c-1.3-5-2.8-9.9-4.5-14.7
		c-0.8-2.3-1.7-4.6-2.6-6.9c-0.2-0.6-0.5-1.1-0.7-1.7c-2.2-5.4-4.7-10.7-7.4-15.9l0,0c-0.2-0.3-0.4-0.7-0.5-1
		c-0.5-0.9-1-1.8-1.5-2.7c-0.3-0.6-0.7-1.2-1-1.8c-0.5-0.9-1-1.8-1.6-2.7c-0.1-0.2-0.3-0.5-0.4-0.7c-0.1-0.2-0.2-0.4-0.3-0.6
		c4.2-4.4,8.6-8.4,13.1-12.2c3.8-3.2,7.7-6.2,11.7-9c1,1.3,1.9,2.6,2.9,3.9c0.1,0.2,0.3,0.4,0.4,0.6c1.8,2.5,3.5,5,5.1,7.6
		c0.4,0.6,0.7,1.1,1.1,1.7c0.3,0.4,0.5,0.8,0.8,1.2c0.2,0.4,0.5,0.7,0.7,1.1c1.4,2.3,2.8,4.7,4.2,7.1c2.5,4.5,4.9,9,7.1,13.6
		L770.4,476.6z"/>
	<g>
		<path class="st1" d="M821.1,523.9h-52.4c0.6-4.5,1-9.1,1.4-13.7c0.8-11.2,1-22.4,0.3-33.6c-0.3-6.2-0.9-12.3-1.7-18.5
			c-0.3-2.7-0.7-5.4-1.2-8.1c-0.1-0.5-0.2-1.1-0.3-1.6c-0.2-1.4-0.5-2.8-0.7-4.1c-0.4-2.3-0.9-4.6-1.4-7c-0.1-0.4-0.2-0.8-0.3-1.1
			c-0.5-2.5-1.1-5-1.8-7.5c-1.1-4.2-2.3-8.5-3.6-12.7c0,0,0,0,0-0.1c0.8-1.3,15.9-24.9,12.6-68.3c11.6,17.7,21.3,36.6,28.9,56.5
			c4.6,11.9,8.5,24.2,11.5,36.6c0.3,1.2,0.6,2.5,0.9,3.7C819.4,470.3,822,497.1,821.1,523.9z"/>
	</g>
	<g>
		
			<ellipse transform="matrix(0.6488 -0.7609 0.7609 0.6488 -164.0193 723.0161)" class="st25" cx="701.3" cy="539.2" rx="4.5" ry="3.6"/>
		<g>
			<path class="st1" d="M699.5,545.5c1.7,0.1,3.1-0.5,4.3-1.3c1.2-0.9,2.2-2,2.8-3.3c0.7-1.3,1-2.7,0.7-4.1
				c-0.3-1.4-1.1-2.7-2.6-3.5c0.8,0,1.7,0.4,2.4,0.9c0.7,0.6,1.2,1.3,1.5,2.2c0.6,1.7,0.3,3.7-0.4,5.3c-0.8,1.6-2.1,2.9-3.7,3.7
				C703,546.1,701,546.3,699.5,545.5z"/>
		</g>
		<g>
			<path class="st3" d="M703.4,534.5c-1.2-0.1-2.3,0.3-3.3,0.9c-0.9,0.6-1.7,1.5-2.2,2.5s-0.7,2.1-0.5,3.2c0.2,1.1,0.9,2,2.1,2.5
				c-1.2-0.1-2.4-1.1-2.8-2.3c-0.4-1.3-0.2-2.6,0.4-3.8c0.6-1.1,1.5-2.1,2.6-2.7C700.9,534.2,702.2,534,703.4,534.5z"/>
		</g>
	</g>
	<g>
		
			<ellipse transform="matrix(0.7884 -0.6151 0.6151 0.7884 -202.0121 560.7414)" class="st26" cx="714.2" cy="574" rx="7.1" ry="6.1"/>
		<g>
			<path class="st1" d="M709.4,583.4c2.6,0.7,5.1,0.4,7.4-0.5c2.2-0.9,4.2-2.4,5.5-4.3c1.4-1.9,2.2-4.1,2.2-6.5
				c0-2.3-1.1-4.7-3.1-6.5c1.3,0.3,2.5,1.2,3.5,2.2c0.9,1.1,1.6,2.5,1.8,4c0.6,2.9-0.4,6.1-2.1,8.4c-1.8,2.4-4.3,4.1-7.2,4.7
				C714.6,585.7,711.4,585.2,709.4,583.4z"/>
		</g>
		<g>
			<path class="st3" d="M718.8,567.2c-1.9-0.6-3.8-0.5-5.5,0.1s-3.2,1.8-4.3,3.2s-1.7,3.2-1.6,5c0.1,1.8,1,3.5,2.5,4.7
				c-1.9-0.6-3.4-2.5-3.7-4.6c-0.4-2.1,0.3-4.3,1.6-6s3.1-2.9,5.1-3.4C714.9,565.7,717.2,565.9,718.8,567.2z"/>
		</g>
	</g>
	<g>
		
			<ellipse transform="matrix(0.9997 -2.622548e-02 2.622548e-02 0.9997 -12.4504 19.1206)" class="st16" cx="722.7" cy="484.2" rx="4.5" ry="3.8"/>
		<g>
			<path class="st1" d="M716.8,487.1c1,1.3,2.4,2.1,3.9,2.5s3,0.3,4.4-0.1s2.7-1.2,3.5-2.4c0.8-1.2,1.2-2.8,0.8-4.4
				c1.1,1.3,1.2,3.5,0.4,5.1c-0.4,0.9-1,1.6-1.7,2.2s-1.6,1-2.5,1.3c-1.8,0.5-3.7,0.4-5.4-0.3C718.6,490.2,717.2,488.7,716.8,487.1z
				"/>
		</g>
		<g>
			<path class="st3" d="M727.6,482.4c-0.7-1-1.7-1.7-2.8-2s-2.3-0.3-3.4,0c-1.1,0.3-2.1,1-2.7,1.9c-0.6,0.9-0.8,2.1-0.5,3.3
				c-0.7-1-0.8-2.5-0.2-3.7s1.8-2.1,3-2.4c1.3-0.4,2.7-0.3,3.9,0.2C726.2,480.2,727.2,481.2,727.6,482.4z"/>
		</g>
	</g>
	<g>
		
			<ellipse transform="matrix(0.8668 -0.4986 0.4986 0.8668 -48.5591 391.1474)" class="st7" cx="708" cy="286.5" rx="4.1" ry="6.2"/>
		<g>
			<path class="st1" d="M700.8,282.9c0,2.1,0.7,4,1.6,5.8c0.9,1.7,2.1,3.3,3.5,4.6c0.7,0.6,1.5,1.2,2.3,1.6s1.7,0.6,2.6,0.6
				c1.8,0.1,3.4-1.3,4.2-3.3c0,1.1-0.3,2.2-1,3.1c-0.3,0.5-0.8,0.9-1.3,1.2c-0.5,0.3-1.1,0.5-1.7,0.6c-1.2,0.2-2.5,0-3.5-0.4
				c-1.1-0.4-2.1-1.1-2.9-1.8c-1.7-1.5-3-3.4-3.6-5.6C700.1,287.3,699.9,284.9,700.8,282.9z"/>
		</g>
		<g>
			<path class="st3" d="M713.5,290c0.1-1.6-0.4-3-1-4.4c-0.6-1.3-1.5-2.5-2.6-3.5c-1.1-0.9-2.4-1.7-3.8-1.6c-1.4,0-2.6,1.1-3.1,2.6
				c0-0.8,0.3-1.6,0.8-2.2c0.5-0.7,1.3-1.1,2.2-1.2c1.8-0.3,3.4,0.6,4.6,1.6c1.2,1.1,2.2,2.5,2.7,4C713.9,286.8,714,288.5,713.5,290
				z"/>
		</g>
	</g>
	<g>
		<ellipse transform="matrix(0.8821 -0.4711 0.4711 0.8821 -68.4858 392.6008)" class="st30" cx="750" cy="333.1" rx="4" ry="5.1"/>
		<g>
			<path class="st1" d="M744.1,328.7c-0.7,1.7-0.6,3.5-0.2,5.1c0.4,1.6,1.3,3.1,2.4,4.3c1.1,1.2,2.5,2.1,4.1,2.3
				c1.6,0.3,3.3-0.2,4.6-1.5c-0.3,0.9-1,1.7-1.8,2.2c-0.9,0.5-1.9,0.8-2.9,0.8c-2.1,0-4-1.1-5.4-2.5c-1.4-1.5-2.3-3.4-2.5-5.3
				C742.2,332.2,742.7,330,744.1,328.7z"/>
		</g>
		<g>
			<path class="st3" d="M754.3,337c0.6-1.2,0.6-2.6,0.3-3.8c-0.3-1.2-0.9-2.4-1.8-3.3c-0.8-0.9-2-1.6-3.2-1.8
				c-1.2-0.2-2.5,0.2-3.4,1.3c0.3-0.6,0.8-1.2,1.4-1.5c0.6-0.4,1.4-0.6,2.1-0.5c1.5,0,2.9,0.8,3.9,1.8c1,1.1,1.6,2.4,1.8,3.8
				C755.5,334.5,755.2,336,754.3,337z"/>
		</g>
	</g>
	<g>
		<ellipse transform="matrix(0.8296 -0.5584 0.5584 0.8296 -73.9859 483.5008)" class="st31" cx="755.1" cy="363" rx="2.8" ry="4"/>
		<g>
			<path class="st1" d="M750.2,361.6c0.2,1.4,0.7,2.6,1.4,3.7s1.6,2,2.7,2.6c1,0.6,2.3,1,3.4,0.7c1.1-0.3,2-1.3,2.4-2.7
				c0.1,0.7,0,1.4-0.3,2.1s-0.9,1.3-1.7,1.6c-0.7,0.4-1.6,0.4-2.3,0.3c-0.8-0.1-1.5-0.4-2.2-0.8c-1.3-0.8-2.3-2-2.9-3.3
				C750,364.5,749.7,362.9,750.2,361.6z"/>
		</g>
		<g>
			<path class="st3" d="M758.9,364.6c-0.1-1-0.5-1.9-1-2.8c-0.5-0.8-1.2-1.5-2-2s-1.7-0.7-2.6-0.5c-0.9,0.3-1.5,1.1-1.7,2.1
				c0-0.5,0.1-1,0.3-1.5c0.3-0.5,0.7-0.9,1.2-1.1c1.1-0.5,2.3-0.2,3.2,0.4s1.7,1.4,2.1,2.4C758.9,362.5,759.1,363.6,758.9,364.6z"/>
		</g>
	</g>
	<g>
		
			<ellipse transform="matrix(0.8296 -0.5584 0.5584 0.8296 -38.8885 430.9241)" class="st4" cx="686.5" cy="279.2" rx="2.3" ry="3.2"/>
		<g>
			<path class="st1" d="M682.5,278c0.2,1.1,0.6,2.1,1.2,3c0.6,0.9,1.3,1.6,2.2,2.1c0.8,0.5,1.8,0.8,2.7,0.5c0.9-0.2,1.6-1.1,1.9-2.2
				c0.1,0.6,0,1.2-0.3,1.7s-0.7,1-1.3,1.3c-1.2,0.6-2.6,0.2-3.6-0.4s-1.9-1.6-2.3-2.7C682.4,280.4,682.2,279.1,682.5,278z"/>
		</g>
		<g>
			<path class="st3" d="M689.6,280.4c-0.1-0.8-0.4-1.6-0.8-2.2c-0.4-0.7-1-1.2-1.6-1.6s-1.4-0.6-2.1-0.4c-0.7,0.2-1.2,0.9-1.4,1.7
				c-0.1-0.8,0.3-1.8,1.2-2.1c0.9-0.4,1.8-0.1,2.6,0.3c0.7,0.5,1.3,1.1,1.7,1.9C689.6,278.7,689.8,279.6,689.6,280.4z"/>
		</g>
	</g>
	<g>
		
			<ellipse transform="matrix(0.7756 -0.6312 0.6312 0.7756 -26.4708 527.1904)" class="st8" cx="728.3" cy="300.8" rx="1.7" ry="2.7"/>
		<g>
			<path class="st1" d="M725.3,298.2c-0.4,0.8-0.2,1.7,0.1,2.4c0.3,0.8,0.8,1.5,1.3,2.1s1.2,1.1,1.9,1.5c0.7,0.3,1.6,0.5,2.3-0.1
				c-0.2,0.4-0.6,0.7-1.1,0.8c-0.5,0.1-1,0.1-1.5-0.1c-0.9-0.3-1.7-0.8-2.4-1.5c-0.6-0.7-1.1-1.6-1.3-2.5
				C724.5,299.9,724.5,298.8,725.3,298.2z"/>
		</g>
		<g>
			<path class="st3" d="M730.5,303.1c0.3-0.6,0.2-1.3,0-1.8c-0.2-0.6-0.5-1.1-1-1.6c-0.4-0.5-0.9-0.9-1.5-1.1s-1.2-0.3-1.7,0.1
				c0.2-0.3,0.5-0.5,0.8-0.6s0.7,0,1,0.1c0.7,0.2,1.2,0.6,1.7,1.1c0.4,0.5,0.8,1.1,1,1.8S731,302.6,730.5,303.1z"/>
		</g>
	</g>
	<g>
		<ellipse transform="matrix(0.9318 -0.3631 0.3631 0.9318 -67.2352 284.0522)" class="st32" cx="722" cy="320.9" rx="3.6" ry="6"/>
		<g>
			<path class="st1" d="M728.1,324.4c-0.1-2-0.6-3.8-1.3-5.5s-1.7-3.3-2.9-4.6c-1.2-1.3-2.7-2.4-4.2-2.4s-2.9,1.6-3.5,3.4
				c-0.1-1,0.1-2,0.6-3c0.3-0.5,0.6-0.9,1.1-1.3c0.5-0.3,1-0.6,1.6-0.7c1.2-0.3,2.4,0.1,3.3,0.6c1,0.5,1.8,1.2,2.5,2
				c1.4,1.6,2.3,3.5,2.9,5.4C728.7,320.4,728.8,322.6,728.1,324.4z"/>
		</g>
		<g>
			<path class="st3" d="M717.4,317.6c0,1.4,0.4,2.8,0.8,4.1c0.5,1.3,1.2,2.5,2.1,3.5c0.9,1,2.1,1.8,3.3,1.8s2.2-1.3,2.6-2.7
				c0,0.7-0.2,1.5-0.5,2.1c-0.4,0.7-1.1,1.2-1.9,1.4c-0.8,0.2-1.7-0.1-2.4-0.4c-0.7-0.4-1.3-0.9-1.8-1.4c-1-1.1-1.7-2.5-2.1-3.9
				C717.1,320.5,717,318.9,717.4,317.6z"/>
		</g>
	</g>
	<g>
		<path class="st1" d="M568.5,273.5c0,2.5,1.3,5,3.7,6.2c8.9,4.6,18.4,8.1,28.1,10.5c12.1,2.9,24.4,4.1,36.6,4.4
			c24.4,0.5,48-2.7,70.9-4.5c5.7-0.4,11.4-0.8,17-1s11.1-0.2,16.5,0.1c10.9,0.6,21.5,2.1,31.2,5.3c4.9,1.6,9.5,3.5,13.8,5.8
			c2.2,1.1,4.2,2.4,6.2,3.8l2.9,2.1c1,0.7,1.8,1.5,2.8,2.3c2.8,2.4,5.5,5.1,7.9,8c19.3,11,40.9,30.6,50.1,39.2
			c-0.7-7-2.1-13.8-4.1-20.3c-2.2-6.7-4.9-13-8.3-19.1c-6.8-12-15.9-22.8-27.1-31.1c-1.4-1-2.8-2.1-4.2-3l-4.4-2.8
			c-3-1.7-6-3.3-9.1-4.7c-6.2-2.8-12.6-4.9-19-6.5s-12.8-2.6-19.2-3.2s-12.7-0.8-18.9-0.7c-6.3,0.1-12.4,0.5-18.5,1.1
			s-12,1.4-17.9,2.2c-11.8,1.7-23.3,3.7-34.7,5.4c-11.4,1.7-22.7,3.1-33.9,3.6s-22.3,0.2-33.1-1.7c-8.7-1.5-17.2-4-25.3-7.6
			c-3.3-1.5-7.2-0.2-8.9,3C568.8,271.1,568.5,272.3,568.5,273.5z"/>
	</g>
	<path class="st10" d="M761.3,398.7c0,0,8.8-18.2,3.8-48.7c0,0-1.8,24.3-6.6,41.3L761.3,398.7z"/>
	<path class="st0" d="M827.8,375.5c8.3-22.8-13-53.4-13-53.4c37.9-1.6,37.9,47.2,37.9,47.2L827.8,375.5z"/>
	<g>
		
			<ellipse transform="matrix(0.9329 -0.3601 0.3601 0.9329 -66.4794 326.1887)" class="st27" cx="842.2" cy="341.5" rx="1.8" ry="2.9"/>
		<g>
			<path class="st1" d="M839.5,338.6c-0.3,0.9-0.2,1.8-0.1,2.7c0.2,0.9,0.5,1.7,1,2.4c0.5,0.7,1.1,1.4,1.8,1.8
				c0.4,0.2,0.8,0.3,1.2,0.2c0.4-0.1,0.8-0.3,1.1-0.7c-0.2,0.5-0.5,0.9-1,1.1s-1.1,0.2-1.6,0.1c-1-0.3-1.8-1.1-2.4-2
				c-0.5-0.9-0.9-1.8-0.9-2.9C838.6,340.5,838.8,339.4,839.5,338.6z"/>
		</g>
		<g>
			<path class="st3" d="M844.2,343.9c0.3-0.7,0.3-1.4,0.1-2c-0.1-0.7-0.4-1.3-0.7-1.8c-0.3-0.6-0.8-1.1-1.4-1.3
				c-0.6-0.3-1.3-0.2-1.8,0.4c0.1-0.3,0.4-0.6,0.8-0.8c0.4-0.1,0.8-0.1,1.1,0c0.7,0.2,1.3,0.8,1.7,1.4s0.6,1.3,0.7,2.1
				C844.8,342.6,844.7,343.4,844.2,343.9z"/>
		</g>
	</g>
	<path class="st10" d="M814.8,322c0.1,0,0.2,0,0.3,0c21-0.7,30.3,14.2,34.4,27.4c3.2,10.4,3.2,19.8,3.2,19.8S834.8,326.7,814.8,322z
		"/>
	<g class="st33">
		<path class="st3" d="M620.5,838.4c10-1.4,19.8-2.9,29.6-4.7c9.8-1.7,19.5-3.7,29.1-5.9c19.2-4.4,38.1-9.8,56.1-17.2
			c4.5-1.8,8.9-3.8,13.3-5.9c4.4-2.1,8.7-4.3,12.8-6.8c4.2-2.4,8.2-5,12.2-7.7c3.9-2.8,7.7-5.7,11.4-8.9c3.6-3.1,7.1-6.5,10.3-10.1
			s6.3-7.3,9-11.4c2.7-4,5.2-8.2,7.5-12.6c1.1-2.2,2.2-4.4,3.1-6.7c1.1-2.3,1.8-4.6,2.8-7c-0.3,2.5-0.6,5-1.1,7.5s-1.2,4.9-1.8,7.4
			c-1.4,4.9-3.3,9.7-5.6,14.3s-5,9-8,13.2s-6.3,8.2-10,11.9c-7.2,7.5-15.4,13.9-24.1,19.4c-8.7,5.5-18,10.1-27.4,14
			c-19,7.7-38.8,12.6-58.8,15.4c-10,1.4-20.1,2.3-30.1,2.6c-5,0.2-10.1,0.2-15.1,0.1c-2.5-0.1-5-0.2-7.5-0.3
			C625.5,838.8,623,838.7,620.5,838.4z"/>
	</g>
	<g class="st33">
		<path class="st3" d="M789.1,611.6c2-8.5,3.9-17,5.4-25.5c1.6-8.5,3-17,4.1-25.5c2.3-17,3.8-34.1,4-51.2c0.1-8.5,0-17.1-0.6-25.6
			c-0.2-4.3-0.7-8.5-1-12.8l-0.8-6.4c-0.2-2.1-0.6-4.2-0.9-6.3c-2.4-16.9-6.8-33.6-12.4-50.1c9.1,14.9,15.7,31.5,19.6,48.7
			c1.1,4.3,1.8,8.6,2.6,13c0.6,4.4,1.3,8.7,1.7,13.1c0.5,4.4,0.7,8.8,1,13.2c0.1,4.4,0.2,8.8,0.1,13.2c-0.2,17.7-2.4,35.2-6.2,52.4
			c-1.9,8.6-4.2,17.1-6.9,25.4c-1.4,4.1-2.8,8.3-4.5,12.3C792.8,603.7,791.1,607.7,789.1,611.6z"/>
	</g>
	<g class="st33">
		<path class="st3" d="M829.6,307.5c-4-4.1-8.6-7.5-13.3-10.5s-9.7-5.6-14.8-7.8c-5.1-2.2-10.4-4-15.7-5.5s-10.8-2.7-16.3-3.5
			c-5.5-0.9-11-1.5-16.6-1.8c-1.4-0.1-2.8-0.2-4.2-0.3l-4.2-0.1l-2.1-0.1h-2.1h-4.2c-11.3,0-22.6,0.8-34.1,1.6
			c10.9-3.8,22.3-6.2,33.8-7.4c2.9-0.2,5.8-0.6,8.7-0.6l4.4-0.1c1.5,0,2.9,0,4.4,0.1c2.9,0,5.8,0.3,8.8,0.5c1.5,0.1,2.9,0.3,4.4,0.5
			l2.2,0.3c0.7,0.1,1.4,0.2,2.2,0.3c5.8,0.9,11.5,2.3,17.1,4.1c5.6,1.8,11,4.1,16.2,7c5.2,2.8,10,6.2,14.4,10c2.2,1.9,4.3,4,6.2,6.2
			C826.5,302.6,828.2,305,829.6,307.5z"/>
	</g>
	<g>
		
			<ellipse transform="matrix(0.9886 -0.1504 0.1504 0.9886 -44.043 129.1804)" class="st28" cx="832" cy="355.8" rx="2.2" ry="2.6"/>
		<g>
			<path class="st1" d="M832.3,359.8c1-0.1,1.8-0.6,2.3-1.3c0.5-0.7,0.7-1.5,0.7-2.4c0-0.8-0.2-1.7-0.6-2.5c-0.4-0.7-1.1-1.4-2-1.7
				c1-0.1,2,0.5,2.7,1.3s1,1.9,1,2.9s-0.4,2.1-1.2,2.9C834.4,359.8,833.2,360.1,832.3,359.8z"/>
		</g>
		<g>
			<path class="st3" d="M832.2,352.8c-0.7,0-1.3,0.4-1.7,0.9s-0.6,1.2-0.6,1.8c0,0.6,0.2,1.3,0.5,1.9s0.9,1,1.5,1.2
				c-0.7,0-1.4-0.4-1.9-1s-0.7-1.4-0.7-2.1c0-0.8,0.3-1.5,0.8-2.1C830.6,352.9,831.5,352.6,832.2,352.8z"/>
		</g>
	</g>
	<g>
		
			<ellipse transform="matrix(1.254149e-02 -0.9999 0.9999 1.254149e-02 466.6745 1217.6865)" class="st29" cx="849.9" cy="372.6" rx="5.1" ry="3.1"/>
		<g>
			<path class="st1" d="M848.6,365.1c-1.5,0.9-2.1,2.3-2.6,3.8c-0.4,1.5-0.6,3-0.5,4.6c0,0.8,0.1,1.5,0.3,2.3s0.4,1.5,0.7,2.1
				c0.7,1.3,1.7,2.6,3.5,2.5c-0.7,0.4-1.8,0.4-2.6,0s-1.5-1.1-2-1.8c-1-1.5-1.5-3.3-1.6-5c-0.1-1.8,0.2-3.5,1-5.2
				c0.4-0.8,0.9-1.6,1.5-2.2C846.9,365.7,847.7,365.2,848.6,365.1z"/>
		</g>
		<g>
			<path class="st3" d="M850.5,378.4c1.1-0.6,1.7-1.7,2-2.7c0.3-1.1,0.5-2.3,0.4-3.4c-0.1-1.2-0.3-2.3-0.8-3.3s-1.4-1.9-2.7-1.8
				c0.6-0.3,1.3-0.2,1.9,0.1c0.6,0.3,1.1,0.8,1.4,1.3c0.7,1.1,1.1,2.4,1.1,3.7c0.1,1.3-0.1,2.6-0.7,3.7c-0.3,0.6-0.6,1.1-1.1,1.6
				C851.7,378,851.1,378.3,850.5,378.4z"/>
		</g>
	</g>
	<path class="st10" d="M757.5,327.3c-1.9-0.5-3.9-0.9-5.9-1.3c-5.6-1.1-11.4-1.8-17.3-2.2l0,0c-0.7-0.1-1.5-0.1-2.2-0.1
		c-1.3-0.1-2.6-0.1-3.9-0.2c-0.7,0-1.5,0-2.2-0.1c-2.2,0-4.4,0-6.7,0c-0.2,0-0.5,0-0.7,0c-1,0-2,0.1-3,0.1c-2.2,0.1-4.4,0.2-6.6,0.3
		c-6.2-7.3-12.8-14.3-19.8-20.9c2.3-0.3,4.6-0.7,6.9-1c5.9-0.8,11.8-1.6,17.9-2.2c0.1,0,0.2,0,0.3,0c3.6-0.4,7.1-0.6,10.7-0.8
		c0.6,0,1.1-0.1,1.7-0.1c0.5,0,1-0.1,1.6-0.1c0.2,0,0.3,0,0.5,0l0,0c0.1,0,0.1,0,0.2,0c1,0,2-0.1,3-0.1
		C741,307.6,749.6,317.1,757.5,327.3z"/>
	<g class="st34">
		<path class="st3" d="M554.6,399.3c5.5,2.8,10.8,6,15.8,9.5c5.1,3.5,10,7.3,14.8,11.2c9.5,8,18.3,16.8,26.4,26.4
			c16,19.2,28.7,41.7,35.8,66.3c1.7,6.1,3.1,12.4,4.2,18.6c1,6.3,1.6,12.7,1.9,19c0.5,12.7-0.6,25.5-3.2,37.8
			c-5.2,24.7-15.9,47.8-30.6,67.5c4.4-11.5,8.5-22.9,11.7-34.5s5.5-23.3,6.9-35c2.6-23.4,0.7-46.9-5.8-69.3
			c-6.4-22.4-17.1-43.6-30.5-63.2c-6.7-9.8-14.1-19.3-22-28.4C572,416.4,563.6,407.7,554.6,399.3z"/>
	</g>
	<path class="st10" d="M269.4,304.3c-6.5,6.2-12.6,12.8-18.4,19.6c-2.7-0.2-5.4-0.5-8.1-0.7c-0.4,0-0.8-0.1-1.3-0.1
		c-0.2,0-0.4,0-0.7-0.1c-2.3-0.2-4.6-0.3-6.9-0.5c-0.7,0-1.5-0.1-2.2-0.1c-1.6-0.1-3.3-0.2-4.9-0.2l0,0c-0.4,0-0.7,0-1.1-0.1
		c-5-0.2-9.9-0.2-14.8,0c-0.6,0-1.1,0.1-1.7,0.1c-1,0.1-2,0.1-3.1,0.2c6.9-8.5,14.2-16.5,22-24.1c0.9,0.1,1.9,0.2,2.8,0.3
		c4.7,0.5,9.4,1.2,14,1.8l0,0c0.1,0,0.2,0,0.3,0C253.5,301.8,261.5,303.1,269.4,304.3z"/>
	<g>
		
			<ellipse transform="matrix(0.9917 -0.1284 0.1284 0.9917 -65.044 38.4514)" class="st1" cx="265.7" cy="523.7" rx="2.8" ry="6.1"/>
	</g>
	<g>
		
			<ellipse transform="matrix(0.2426 -0.9701 0.9701 0.2426 -344.4653 682.0625)" class="st1" cx="264.6" cy="561.6" rx="6.1" ry="2.8"/>
	</g>
	<g>
		
			<ellipse transform="matrix(0.9817 -0.1903 0.1903 0.9817 -94.8478 50.705)" class="st1" cx="216.6" cy="519.2" rx="2.8" ry="6.1"/>
	</g>
	<g>
		
			<ellipse transform="matrix(0.2477 -0.9688 0.9688 0.2477 57.2255 1109.8574)" class="st1" cx="743.3" cy="518.1" rx="6.1" ry="2.8"/>
	</g>
	<g>
		
			<ellipse transform="matrix(0.9849 -0.1733 0.1733 0.9849 -86.8124 128.9914)" class="st1" cx="695.3" cy="561.7" rx="2.8" ry="6.1"/>
	</g>
	<g>
		
			<ellipse transform="matrix(4.498500e-02 -0.999 0.999 4.498500e-02 139.8797 1193.6611)" class="st1" cx="694.3" cy="523.7" rx="6.1" ry="2.8"/>
	</g>
	<g>
		
			<ellipse transform="matrix(0.3912 -0.9203 0.9203 0.3912 -384.4343 537.0258)" class="st1" cx="213.7" cy="559.1" rx="6.9" ry="3.8"/>
	</g>
	<g>
		
			<ellipse transform="matrix(0.9203 -0.3912 0.3912 0.9203 -159.2622 336.3896)" class="st1" cx="746" cy="559.1" rx="3.8" ry="6.9"/>
	</g>
	<g>
		
			<ellipse transform="matrix(0.7491 -0.6624 0.6624 0.7491 -249.1784 189.1169)" class="st1" cx="125.1" cy="423.5" rx="2.9" ry="6.9"/>
	</g>
	<g>
		
			<ellipse transform="matrix(0.6624 -0.7491 0.7491 0.6624 -35.4708 768.3205)" class="st1" cx="834.8" cy="423.5" rx="6.9" ry="2.9"/>
	</g>
	<g>
		
			<ellipse transform="matrix(0.9883 -0.1528 0.1528 0.9883 -54.8958 25.5052)" class="st1" cx="138.5" cy="369.9" rx="2.9" ry="6.9"/>
	</g>
	<g>
		<ellipse transform="matrix(0.973 -0.2308 0.2308 0.973 -88.5497 35.8144)" class="st1" cx="108.8" cy="396.4" rx="2.3" ry="5.5"/>
	</g>
	<g>
		
			<ellipse transform="matrix(0.3523 -0.9359 0.9359 0.3523 -225.0487 352.1653)" class="st1" cx="141.9" cy="338.7" rx="6.9" ry="2.9"/>
	</g>
	<g>
		<ellipse transform="matrix(0.7854 -0.619 0.619 0.7854 -213.1516 179.1975)" class="st1" cx="151.9" cy="397" rx="2.8" ry="6.6"/>
	</g>
	<g>
		
			<ellipse transform="matrix(0.6248 -0.7808 0.7808 0.6248 -6.1622 779.9291)" class="st1" cx="808.4" cy="396.4" rx="5.5" ry="2.3"/>
	</g>
	<g>
		
			<ellipse transform="matrix(0.9555 -0.2949 0.2949 0.9555 -63.5066 256.3217)" class="st1" cx="818.1" cy="338.7" rx="2.9" ry="6.9"/>
	</g>
	<g>
		
			<ellipse transform="matrix(0.3523 -0.9359 0.9359 0.3523 179.9458 1054.0095)" class="st1" cx="851.5" cy="397" rx="6.6" ry="2.8"/>
	</g>
	<g>
		
			<ellipse transform="matrix(0.8479 -0.5302 0.5302 0.8479 -133.6611 136.9317)" class="st1" cx="171.8" cy="301.4" rx="7.8" ry="3.3"/>
	</g>
	<g>
		
			<ellipse transform="matrix(0.9984 -5.642111e-02 5.642111e-02 0.9984 -15.9615 13.0483)" class="st1" cx="223.1" cy="289.2" rx="7.8" ry="3.3"/>
	</g>
	<g>
		<ellipse transform="matrix(0.973 -0.2308 0.2308 0.973 -62.0462 53.6083)" class="st1" cx="198.1" cy="292" rx="6.3" ry="2.7"/>
	</g>
	<g>
		
			<ellipse transform="matrix(2.383729e-02 -0.9997 0.9997 2.383729e-02 13.4845 603.3539)" class="st1" cx="315.7" cy="294.8" rx="3.3" ry="7.8"/>
	</g>
	<g>
		
			<ellipse transform="matrix(0.9247 -0.3807 0.3807 0.9247 -80.5943 164.2094)" class="st1" cx="374.8" cy="285.8" rx="6.8" ry="2.8"/>
	</g>
	<g>
		
			<ellipse transform="matrix(0.9875 -0.1576 0.1576 0.9875 -41.735 58.6885)" class="st1" cx="349.2" cy="292.5" rx="6.8" ry="2.8"/>
	</g>
	<g>
		
			<ellipse transform="matrix(0.1013 -0.9949 0.9949 0.1013 259.5762 873.5065)" class="st1" cx="613.3" cy="293.1" rx="2.7" ry="6.3"/>
	</g>
	<g>
		
			<ellipse transform="matrix(0.2292 -0.9734 0.9734 0.2292 304.4507 969.3755)" class="st1" cx="764.3" cy="292.5" rx="2.8" ry="6.8"/>
	</g>
	<g>
		
			<ellipse transform="matrix(0.5302 -0.8479 0.8479 0.5302 114.2737 809.0646)" class="st1" cx="787.2" cy="301.4" rx="3.3" ry="7.8"/>
	</g>
	<g>
		
			<ellipse transform="matrix(5.642111e-02 -0.9984 0.9984 5.642111e-02 405.7262 1007.5507)" class="st1" cx="735.9" cy="289.1" rx="3.3" ry="7.8"/>
	</g>
	<g>
		
			<ellipse transform="matrix(0.9997 -2.383729e-02 2.383729e-02 0.9997 -6.842 15.4156)" class="st1" cx="643.2" cy="294.7" rx="7.8" ry="3.3"/>
	</g>
	<g>
		
			<ellipse transform="matrix(0.3807 -0.9247 0.9247 0.3807 97.4449 717.1338)" class="st1" cx="584.1" cy="285.8" rx="2.8" ry="6.8"/>
	</g>
	<g>
		
			<ellipse transform="matrix(0.1528 -0.9883 0.9883 0.1528 330.4212 1125.1251)" class="st1" cx="821.4" cy="369.8" rx="6.9" ry="2.9"/>
	</g>
	<g>
		
			<ellipse transform="matrix(0.3912 -0.9203 0.9203 0.3912 -398.3442 596.4368)" class="st1" cx="251.6" cy="599.3" rx="6.9" ry="3.8"/>
	</g>
	<g>
		
			<ellipse transform="matrix(0.9203 -0.3912 0.3912 0.9203 -178.0239 324.7356)" class="st1" cx="708" cy="599.3" rx="3.8" ry="6.9"/>
	</g>
	<g>
		<circle class="st35" cx="474.9" cy="394.4" r="14.8"/>
		<circle class="st35" cx="434.7" cy="431.1" r="5.8"/>
		<circle class="st35" cx="433.3" cy="394.4" r="9.8"/>
		<circle class="st35" cx="395" cy="416.4" r="9.5"/>
		<circle class="st35" cx="368.3" cy="435" r="3.8"/>
		<circle class="st35" cx="395" cy="450.6" r="6.3"/>
		<circle class="st35" cx="442.3" cy="465.4" r="11.5"/>
		<circle class="st35" cx="474.9" cy="435.7" r="4.5"/>
		<circle class="st35" cx="372.4" cy="486.1" r="7.6"/>
		<circle class="st35" cx="342.9" cy="456.9" r="7.4"/>
		<circle class="st35" cx="352.3" cy="508.3" r="2.9"/>
		<circle class="st35" cx="321.2" cy="493.2" r="4.9"/>
		<circle class="st35" cx="382.7" cy="593.4" r="18.1"/>
		<circle class="st35" cx="426.4" cy="555.8" r="7.2"/>
		<circle class="st35" cx="430.3" cy="600.7" r="12"/>
		<circle class="st35" cx="475.9" cy="571.4" r="11.7"/>
		<circle class="st35" cx="507.6" cy="547" r="4.6"/>
		<circle class="st35" cx="473.8" cy="529.5" r="7.8"/>
		<circle class="st35" cx="431.1" cy="507.9" r="14.1"/>
		<circle class="st35" cx="371.2" cy="539.1" r="5.6"/>
		<circle class="st35" cx="499.5" cy="475.8" r="9.3"/>
		<circle class="st35" cx="537.5" cy="518.7" r="9.1"/>
		
			<ellipse transform="matrix(0.1602 -0.9871 0.9871 0.1602 0.8702 870.8228)" class="st35" cx="512.2" cy="434.9" rx="3.6" ry="3.6"/>
		<circle class="st35" cx="549.9" cy="474.1" r="6"/>
	</g>
	<g>
		<g>
			<circle class="st1" cx="375.3" cy="718.1" r="57.7"/>
		</g>
		<g>
			<circle class="st3" cx="380.9" cy="718.1" r="41"/>
			<g>
				<path class="st1" d="M422.3,718.1c0.1,10.8-4.3,21.6-12,29.4c-3.8,3.9-8.3,7.1-13.4,9.3c-5,2.2-10.5,3.4-16,3.5
					s-11.1-0.8-16.3-2.9c-5.2-2-10-5.1-14.1-8.9c-4-3.9-7.3-8.6-9.6-13.8c-2.3-5.2-3.5-10.8-3.6-16.5c0.1-5.7,1.3-11.4,3.6-16.5
					c2.3-5.2,5.6-9.9,9.6-13.8c4-3.9,8.9-6.9,14.1-8.9s10.8-3,16.3-2.9s11,1.3,16,3.5s9.6,5.4,13.4,9.3
					C417.9,696.5,422.3,707.3,422.3,718.1z M421.6,718.1c0-5.3-1.1-10.6-3.1-15.6c-2.1-4.9-5.1-9.4-8.9-13.1
					c-7.6-7.4-18.2-11.5-28.6-11.3c-5.2,0.1-10.4,1.3-15.1,3.4c-4.7,2.1-9,5.1-12.6,8.8c-3.5,3.7-6.3,8.1-8.2,12.8
					c-1.9,4.7-2.7,9.8-2.6,14.9c-0.1,5.1,0.8,10.1,2.6,14.9c1.8,4.7,4.6,9.1,8.2,12.8s7.8,6.7,12.6,8.8c4.7,2.1,9.9,3.3,15.1,3.4
					c10.5,0.2,21-3.9,28.6-11.3c3.8-3.7,6.9-8.2,8.9-13.1C420.5,728.7,421.6,723.4,421.6,718.1z"/>
			</g>
		</g>
		<g>
			<polygon class="st1" points="379.9,705.6 359,718 379.9,736.8 400.8,718 			"/>
		</g>
		<path class="st1" d="M380.3,677.1c-23,0-41.7,18.7-41.7,41.7h83.2C421.8,695,403.3,677.1,380.3,677.1z"/>
	</g>
	<g>
		<g>
			<circle class="st1" cx="577.2" cy="718.1" r="57.7"/>
		</g>
		<g>
			<circle class="st3" cx="571.6" cy="718.1" r="41"/>
			<g>
				<path class="st1" d="M530.9,718.1c0,5.3,1.1,10.6,3.1,15.6c2.1,4.9,5.1,9.4,8.9,13.1c7.6,7.4,18.2,11.5,28.6,11.3
					c5.2-0.1,10.4-1.3,15.1-3.4c4.7-2.1,9-5.1,12.6-8.8c3.5-3.7,6.3-8.1,8.2-12.8c1.8-4.7,2.7-9.8,2.6-14.9
					c0.1-5.1-0.8-10.1-2.6-14.9c-1.8-4.7-4.6-9.1-8.2-12.8c-3.6-3.7-7.8-6.7-12.6-8.8c-4.7-2.1-9.9-3.3-15.1-3.4
					c-10.5-0.2-21,3.9-28.6,11.3c-3.8,3.7-6.9,8.2-8.9,13.1C532,707.4,531,712.8,530.9,718.1z M530.3,718.1
					c-0.1-10.8,4.3-21.6,12-29.4c3.8-3.9,8.3-7.1,13.4-9.3c5-2.2,10.5-3.4,16-3.5s11.1,0.8,16.3,2.9c5.2,2,10,5.1,14.1,8.9
					c4,3.9,7.3,8.6,9.6,13.8s3.5,10.8,3.6,16.5c-0.1,5.7-1.3,11.4-3.6,16.5c-2.3,5.2-5.6,9.9-9.6,13.8c-4,3.9-8.9,6.9-14.1,8.9
					c-5.2,2-10.8,3-16.3,2.9s-11-1.3-16-3.5s-9.6-5.4-13.4-9.3C534.6,739.7,530.2,728.9,530.3,718.1z"/>
			</g>
		</g>
		<g>
			<polygon class="st1" points="570.6,705.6 591.5,718 570.6,736.8 549.7,718 			"/>
		</g>
		<path class="st1" d="M572.2,677.1c23,0,41.7,18.7,41.7,41.7h-83.2C530.7,695,549.2,677.1,572.2,677.1z"/>
	</g>
</g>
</svg>
