<?xml version="1.0" encoding="utf-8"?>
<!-- Generator: Adobe Illustrator 21.1.0, SVG Export Plug-In . SVG Version: 6.00 Build 0)  -->
<svg version="1.1" id="Octopeth" xmlns="http://www.w3.org/2000/svg" xmlns:xlink="http://www.w3.org/1999/xlink" x="0px" y="0px"
	 viewBox="0 0 1920 1080" style="enable-background:new 0 0 1920 1080;" xml:space="preserve">
<style type="text/css">
	.st0{fill:#3d3d3d;}
	.st1{fill:#303030;}
	.st2{fill:#FFFFFF;stroke:#1c1c1c;stroke-width:7.3849;stroke-miterlimit:10;}
	.st3{fill:#FFFFFF;stroke:#1c1c1c;stroke-width:3.6245;stroke-miterlimit:10;}
	.st4{fill:#FFFFFF;stroke:#1c1c1c;stroke-width:2.9071;stroke-miterlimit:10;}
	.st5{fill:#1c1c1c;}
	.st6{opacity:0.51;}
	.st7{fill:#969696;}
	.st8{fill:#FFFFFF;stroke:#1c1c1c;stroke-width:1.7705;stroke-miterlimit:10;}
	.st9{fill:#FFFFFF;stroke:#1c1c1c;stroke-width:4.2157;stroke-miterlimit:10;}
	.st10{fill:#FFFFFF;stroke:#1c1c1c;stroke-width:3.8439;stroke-miterlimit:10;}
	.st11{fill:#FFFFFF;stroke:#1c1c1c;stroke-width:3.3406;stroke-miterlimit:10;}
	.st12{fill:#FFFFFF;stroke:#1c1c1c;stroke-width:6.4785;stroke-miterlimit:10;}
	.st13{fill:#FFFFFF;stroke:#1c1c1c;stroke-width:5.8534;stroke-miterlimit:10;}
	.st14{fill:#FFFFFF;stroke:#1c1c1c;stroke-width:4.2073;stroke-miterlimit:10;}
	.st15{fill:#FFFFFF;stroke:#1c1c1c;stroke-width:5.2183;stroke-miterlimit:10;}
	.st16{fill:#FFFFFF;stroke:#1c1c1c;stroke-width:3.9009;stroke-miterlimit:10;}
	.st17{fill:#FFFFFF;stroke:#1c1c1c;stroke-width:4.0568;stroke-miterlimit:10;}
	.st18{fill:#FFFFFF;stroke:#1c1c1c;stroke-width:4.4936;stroke-miterlimit:10;}
	.st19{fill:none;}
	.st20{opacity:0.35;}
	.st21{fill:#969696;}
</style>
<g id="Body_and_Arms">
	<path class="st0" d="M683.5,623c-8-7.1-14.8-15.5-20.1-24.6c-5.3-9.1-9-19-11.1-29.2c-1.5-7.1-2.2-14.4-2.3-21.7
		c-0.5,0.2-1,0.4-1.4,0.6c-2.8,1.1-5.5,2.4-8,3.8c-0.4,0.2-0.9,0.5-1.3,0.7c0.9,6.4,2.3,12.8,4.2,19c3.3,10.8,8.4,21.1,14.9,30.2
		c6.5,9.1,14.4,17.1,23.3,23.7"/>
	<path class="st0" d="M728.8,355.5c-17.6,17-33.6,35.6-47.4,55.8c-8.2,12-15.6,24.6-21.9,37.7c-0.8,1.6-1.5,3.2-2.2,4.8
		c1-0.3,2.1-0.5,3.1-0.7c0.3-0.1,0.5-0.1,0.8-0.2c6.2-1.4,12.6-2.6,19.1-3.5c1.2-0.2,2.3-0.3,3.5-0.5c5.3-8,11.1-15.7,17.2-23
		c11.3-13.6,23.7-26.2,37-37.8c-0.4-1.3-0.8-2.6-1.2-3.8c-2.6-8.2-4.9-16.4-6.9-24.5v0C729.4,358.4,729.1,356.9,728.8,355.5z"/>
	<path class="st0" d="M1087.8,900.7c-11.4,4.8-23.1,8.9-35,12.2c-43.1,12.1-88.5,15.2-133.3,11.7c-25.8-2.2-51.5-6.7-76.7-13.8h0
		c-33.1-16.4-75.6-78.4-75.6-78.4c11.6,9.5,24.4,18.1,37.8,25.6l6.7,3.7l6.9,3.5c1.2,0.6,2.3,1.2,3.5,1.7l3.5,1.6
		c2.3,1.1,4.7,2.2,7,3.2c4.8,2,9.5,4,14.4,5.8c4.8,1.9,9.7,3.6,14.7,5.2c19.8,6.5,40.2,11.3,61,14.6c41.5,6.2,84.3,6.4,125.7-2.2
		c7.1-1.5,14.2-3.2,21.2-5.2h0c0,0,0,0,0.1,0c0.7,0.5,1.5,1,2.2,1.5l0.6,0.4l0,0c1.3,0.8,2.6,1.6,3.9,2.4c0.5,0.3,1.1,0.6,1.6,1
		c1,0.6,2,1.2,2.9,1.7c0.8,0.5,1.6,0.9,2.3,1.3c0.7,0.4,1.5,0.8,2.2,1.2c0.5,0.3,1,0.6,1.6,0.9
		C1087.3,900.5,1087.5,900.6,1087.8,900.7z"/>
	<path class="st1" d="M908.6,629.1c-0.5,0-1,0-1.4,0c-4.3-0.1-8.5-0.1-12.8-0.1l-7.4,0.2c-2.5,0-4.9,0.2-7.4,0.4
		c-4.9,0.2-9.8,0.7-14.7,1.1c-2.5,0.2-4.9,0.6-7.3,0.9l-3.7,0.4c-1.2,0.2-2.4,0.4-3.6,0.6l-7.3,1.1l-7.2,1.4
		c-19.1,3.8-37.6,9.7-54.7,17.8c-16.9,8.2-32.3,18.5-44.2,31.2c-11.9,12.7-19.8,27.5-22.4,43.6c-2.7,16.1,0.1,33.3,7.7,49.7
		c7.6,16.4,19.6,31.8,33.9,45.4c3.6,3.3,7.2,6.6,11,9.7c0,0,42.5,62,75.6,78.4c-18.5-5.2-36.7-11.9-54.4-20.2
		c-20.8-9.8-40.9-21.9-59.3-36.9c-9.2-7.6-17.9-15.9-25.9-25.1c-8-9.2-15.4-19.3-21.5-30.5c-6.1-11.1-11-23.3-14-36.3
		c-3-12.9-4.1-26.6-2.9-40.1c1.2-13.5,4.6-26.9,10-39.3c5.3-12.4,12.4-23.9,20.6-34.1c2.8-3.5,5.8-6.9,8.9-10.1l0.4-0.5
		c5.7-6,11.7-11.5,18-16.5c9.8-8,20.2-14.9,30.9-21.1c21.5-12.1,44.2-21,67.3-27.4c1.2-0.3,2.3-0.6,3.5-1h0c1,0.5,2,1,3,1.6
		c1.7,0.9,3.3,1.7,4.9,2.6c1.3,0.7,2.7,1.5,4,2.2c4.1,2.3,8,4.4,11.9,6.9l4,2.4c1.4,0.8,2.5,1.5,3.7,2.3l9.7,6.2l9.5,6.6
		c1.3,0.9,2.4,1.7,3.5,2.5c1.2,0.9,2.3,1.7,3.5,2.6c3.9,2.9,7.5,5.6,11.1,8.5l0.2,0.1c4.7,3.6,9.2,7.4,13.6,11.2
		C907.4,628.1,908,628.6,908.6,629.1z"/>
	<path class="st0" d="M1186.9,782.9c-1.6,10.5-4.9,20.7-9.7,30.1c-4.5,8.8-10.2,17-16.7,24.4c1,0.3,2.1,0.6,3.1,0.9
		c0.3,0.1,0.7,0.2,1,0.3c0.7,0.2,1.4,0.4,2.1,0.6c1,0.3,2.1,0.5,3.1,0.7c5.4-7.5,10.1-15.5,13.6-24c4.4-10.3,7.1-21.3,8-32.4"/>
	<path class="st0" d="M1177.5,389.2c13.2,15.1,25.4,31.1,36,47.9c1.7,2.7,3.4,5.4,5,8.2c7.5-11.3,12.4-23,14.8-35
		c-11.7-15-24.4-29-37.9-42.2c-3.1-3-6.2-5.9-9.4-8.8C1183.6,369.3,1180.7,379.3,1177.5,389.2z"/>
	<path class="st0" d="M1301.6,593.9c-21.6,27.9-73.2,57.6-76.7,59.6c1.3-1,2.6-2,3.8-3.1c12.3-10.7,21.1-25.8,25.6-43.3
		c4.6-17.5,5-37,2.7-56.6c-0.5-3.4-1-6.9-1.6-10.3c0.3-0.3,0.6-0.6,1-1c11.3-11.6,21.2-23.9,29.4-36.6c5,13.3,9,27,11.8,41.2
		c2.3,11.7,3.7,23.6,4.1,35.8C1301.8,584.4,1301.8,589.1,1301.6,593.9z"/>
	<path class="st1" d="M1301.6,593.9c-0.4,7.6-1.2,15.3-2.6,23c-2.3,12.5-6.3,25-12.2,36.9c-5.9,11.9-13.7,23.1-23.3,32.8
		c-9.5,9.7-20.7,17.9-32.7,24.1c-12,6.2-24.7,10.6-37.6,13.2c-4.4,0.9-8.9,1.7-13.4,2.2c-0.2,0-0.3,0-0.5,0.1
		c-8.2,1-16.4,1.4-24.5,1.4c-12.7-0.1-25.1-1.3-37.3-3.3c-24.3-4.3-47.5-11.8-69.4-21.5c-2.8-1.3-5.7-2.6-8.4-3.9l0,0
		c-0.3-0.8-0.6-1.6-0.9-2.4c-0.6-1.6-1.1-3.1-1.7-4.6l-0.1-0.2c-1.5-4.2-3-8.2-4.4-12.4l-1.5-4.5c-0.6-1.6-0.9-2.9-1.3-4l-2.7-9.1
		l-0.6-2.1l-2.9-11.3c0-0.1-0.1-0.2-0.1-0.3c14.5-2.2,28.7-5,42.6-8.3l3.3,2l6.4,3.5c17.2,9.2,35.2,16.3,53.5,20.9
		c18.2,4.4,36.8,6.2,54,3.9c15.5-2,29.6-7.4,41.2-16.3c0,0,0,0,0,0C1228.4,651.5,1280,621.8,1301.6,593.9z"/>
	<path class="st0" d="M643,398.1c0.5-13.4,3.2-26.6,7.8-39.1c4.6-12.5,11.1-24.2,18.9-34.9c13.8-18.9,31.3-34.8,50.6-48
		c0.3-8,1-15.9,2.1-23.6c-1.5,1.1-3,2.2-4.5,3.3c-11.4,8.5-22.1,17.8-32,28.1c-9.9,10.2-18.8,21.4-26.3,33.5
		c-7.5,12.1-13.5,25.2-17.4,38.8c-3.9,13.6-5.7,27.9-5.2,41.9"/>
	<path class="st0" d="M1373.9,706.3c-4.9,28.8-12.9,57.4-25,85c-6.2,13.8-13.4,27.3-21.9,40.3c-8.6,13-18.5,25.4-30.1,36.7
		c-11.6,11.3-24.9,21.5-39.8,29.6c-50.9-3.4-117.2-60.9-118.2-61.8c2.8,1.5,5.7,2.9,8.6,4.1c2.5,1.1,5,2.1,7.5,3
		c3.3,1.2,6.6,2.2,10,3c11.1,2.8,22.4,3.7,33.6,2.6c10.1-1,20.1-3.7,29.7-8c9.6-4.3,18.9-10.2,27.5-17.5
		c17.4-14.5,32-34.2,43.8-55.9c11.6-21.9,20.5-46,26.7-71l2.3-9.4l1.9-9.5c0.3-1.6,0.7-3.2,0.9-4.8l0.8-4.8c0.5-3.2,1.1-6.4,1.6-9.6
		c0.8-6.5,1.8-12.9,2.3-19.4l0.5-4.9l0.2-2.5l0.2-2.4l0.6-9.8l0.2-2.5l0.1-2.5l0.2-4.9l0.1-4.9l0.1-2.5l0-2.5
		c0-6.6,0.1-13.2-0.2-19.8c-0.3-13.2-1.5-26.4-2.8-39.6c-1.7-13.2-3.5-26.3-6.2-39.3c-1.2-6.5-2.8-13-4.2-19.5
		c-0.3-1.6-0.8-3.2-1.2-4.8l-1.3-4.8c-0.9-3.2-1.6-6.4-2.6-9.6l-2.9-9.6c-0.5-1.6-1-3.2-1.5-4.7l-1.6-4.7c-0.3-1-0.6-1.9-1-2.9v0
		c3.2-14,4.5-28.2,4.1-42.4c-0.1-5.2-0.6-10.4-1.2-15.6l1.8,3l5.1,9.3c0.8,1.6,1.7,3.1,2.5,4.7l2.4,4.8c1.6,3.2,3.2,6.3,4.7,9.5
		c2.9,6.4,6,12.9,8.6,19.4l2.1,4.9c0.7,1.6,1.4,3.3,2,4.9l3.8,9.9c1.3,3.3,2.4,6.7,3.6,10l1.7,5c0.6,1.7,1.2,3.4,1.7,5.1
		c2.1,6.8,4.3,13.5,6,20.4c3.9,13.7,6.9,27.6,9.7,41.5C1381.5,590.5,1383.7,648.6,1373.9,706.3z"/>
	<path class="st0" d="M1242.3,390.9c-0.2-7.8-1.4-15.7-3.5-23.5c-2.8-10.2-7.2-20.2-13.1-29.9c-8-13.1-18.4-25.4-30.5-36.6v0
		c0.3-5,0.5-9.8,0.5-14.7v0c0-0.3,0-0.6,0-0.9c0-2.6-0.1-5.2-0.1-7.9c-0.2-5-0.5-10.1-1-15.1c-0.3-2.8-0.6-5.6-1-8.4c0,0,0,0,0-0.1
		c-1.1-8.4-2.6-16.6-4.6-24.7c6.5,3.5,12.9,7.3,19.2,11.3c12.7,8.2,25,17.4,36.5,27.8c3.1,2.8,6.1,5.7,9,8.6
		C1267.1,314,1242.3,390.9,1242.3,390.9z"/>
	<path class="st0" d="M1071.2,958.5c-8.8,11-19.4,20.6-31.3,28.4c-11.9,7.8-24.9,13.8-38.5,18.1c-13.6,4.3-27.6,7-41.8,8.3
		c-14.1,1.3-28.4,1.4-42.6,0.4c-28.3-2.1-56.2-8.1-83.1-17l-10.1-3.4l-9.9-3.7c-1.7-0.6-3.3-1.2-5-1.9l-4.9-2.1
		c-3.3-1.4-6.6-2.7-9.8-4.2c-6.4-3-12.9-5.8-19.2-9.1l-4.8-2.4c-1.6-0.8-3.2-1.6-4.7-2.5l-9.4-5.1c-42.2-33.3-74.3-102.3-74.8-103.4
		c8.8,9.8,18.3,19,27.9,28.2c9.8,8.9,19.8,17.7,30.3,25.8c5.2,4.2,10.6,8.1,15.9,12c1.3,1,2.7,2,4.1,2.9l4.1,2.8
		c2.8,1.8,5.4,3.8,8.2,5.6l8.4,5.4c1.4,0.9,2.8,1.8,4.2,2.6l4.3,2.6c5.7,3.5,11.5,6.6,17.4,9.8c2.9,1.6,5.9,3,8.9,4.6l4.4,2.3
		c1.5,0.7,3,1.4,4.5,2.1l9,4.2l9.2,3.9c24.6,10.2,50.3,17.7,76.7,21.7c26.3,3.7,53.3,3.8,79.1-2.3c12.9-3.1,25.4-7.7,37.1-14.2
		c11.6-6.4,22.3-14.7,31.4-24.6L1071.2,958.5z"/>
	<path class="st1" d="M1307.6,426.6c-0.7,4.7-1.6,9.3-2.7,13.9c-0.7,3-1.5,5.9-2.4,8.9c-3.8,13-9.1,25.3-15.5,36.8
		c-1.5,2.7-3,5.3-4.6,7.9c-0.3,0.5-0.6,1-0.9,1.5c-8.2,13.1-17.7,25-27.9,35.8c-0.9,0.9-1.7,1.8-2.6,2.7c-1.2,1.2-2.4,2.4-3.6,3.6
		c-10.2,10.1-21.1,19.3-32.3,27.6c-25.3,18.5-52.6,33.2-80.8,44.7c-21.8,9-44.2,16.1-66.8,21.6c-3.4,0.8-6.7,1.6-10.1,2.4
		c-11.7,2.6-23.5,4.8-35.3,6.6h0c-2.4,0.4-4.8,0.7-7.3,1c0.3,1.3,0.6,2.6,0.9,3.9c0.2,1.1,0.5,2.2,0.8,3.3c0.1,0.4,0.2,0.8,0.3,1.3
		l1.2,4.5l1.2,4.5l0.6,2.2l0.7,2.2l2.6,8.9c0.4,1.5,0.9,3,1.4,4.4l1.5,4.4c1.4,4.3,2.9,8.5,4.4,12.6c0.6,1.6,1.2,3.2,1.8,4.8
		c0.7,1.8,1.4,3.5,2.1,5.3c0.5,1.1,0.9,2.2,1.4,3.3l1.7,4.3c0.6,1.4,1.2,2.8,1.9,4.2l3.8,8.4l4.1,8.2c11,21.9,24.2,42.4,39.6,60.3
		c15.4,17.7,33.1,33,52.2,43.1c0,0,0,0,0,0c1,0.9,67.3,58.4,118.2,61.8c-14.9,8.1-31.4,14.1-48.4,17.2c-17.1,3.1-34.8,3.5-51.8,1.1
		c-17.1-2.3-33.6-7.2-48.9-13.8c-0.9-0.4-1.8-0.8-2.7-1.2c-2.3-1-4.6-2.1-6.8-3.2c-0.4-0.2-0.7-0.4-1.1-0.5
		c-0.3-0.1-0.6-0.3-0.9-0.5h0c-1.9-1-3.8-2-5.7-3c-4-2.1-7.9-4.4-11.7-6.8c-2.7-1.6-5.3-3.4-7.9-5.1c-1.9-1.3-3.9-2.6-5.7-4
		c-13.1-9.4-25.2-19.7-36.3-30.8c-22.1-22.2-40.8-47-56.4-73.1c-25.9-43.2-44.1-90-56.1-138.2c-0.5-2.2-1.1-4.4-1.6-6.6
		c-0.5-1.9-0.9-3.8-1.3-5.8c-1.5-1.3-3-2.6-4.6-3.9c-0.4-0.4-0.9-0.7-1.3-1.1c-1.1-0.9-2.2-1.9-3.4-2.8v0c-2.2-1.8-4.3-3.5-6.6-5.2
		c-4.8-3.9-9.9-7.6-14.9-11.3c-1.2-1-2.5-1.8-3.8-2.7l-3.8-2.6l-3.8-2.7l-1.9-1.3l-2-1.3l-7.8-5c-1.3-0.9-2.6-1.7-4-2.5l-4-2.4
		c-5.3-3.3-10.7-6.2-16.1-9.2c-0.2-0.1-0.5-0.3-0.8-0.4c-2.5-1.3-5-2.5-7.5-3.8l-4.1-2.1c-1.4-0.7-2.8-1.3-4.2-2l-8.4-3.9l-8.5-3.6
		c-22.6-9.5-46-16.4-69.3-20c-23.3-3.4-46.6-3.5-67.7,1.3c-5.3,1.2-10.3,2.7-15.3,4.5c-4.1,1.5-8,3.2-11.8,5.1
		c-10,5-18.9,11.6-26.5,19.6c-7,7.4-12.8,15.9-17.3,25.4c-4.5,9.5-7.7,20.1-9.5,31.2c-3.7,22.3-2,46.8,3.2,71
		c5.4,24.2,14.4,48.2,26,71.2l4.4,8.6l4.7,8.5c0.8,1.4,1.6,2.8,2.4,4.2l2.5,4.2c1.7,2.8,3.3,5.6,5.1,8.3c3.6,5.4,7.1,11,10.9,16.3
		l2.8,4l1.4,2l1.5,2l5.9,7.9l1.5,2l1.5,1.9l3.1,3.8l3.1,3.8l1.6,1.9l1.6,1.9c4.3,5,8.5,10,13.1,14.8c0,0,0,0,0,0
		c0.5,1.1,32.6,70.1,74.8,103.4c-3.2-1.6-6.2-3.5-9.2-5.3l-4.6-2.7c-1.5-0.9-3.1-1.8-4.6-2.8c-6-3.8-12.1-7.5-17.9-11.6
		c-11.9-7.8-23.2-16.4-34.4-25.2c-44.3-35.6-83.9-78.3-114-128.4c-15-25-27.6-52-36.4-80.8c-4.3-14.5-7.6-29.4-9.6-44.9
		c-2-15.4-2.5-31.3-1.1-47.5c1.4-16.1,4.9-32.5,10.9-48.4c6-15.9,14.6-31.1,25.5-44.6c10.9-13.5,24.1-25.3,38.6-34.6
		c14.5-9.4,30.2-16.4,46.1-21.4c2.6-0.8,5.2-1.6,7.8-2.3c0.8-0.2,1.5-0.4,2.3-0.6c0.4-0.1,0.8-0.2,1.2-0.3
		c7.1-1.8,14.3-3.2,21.5-4.3c5.1-0.8,10.3-1.4,15.4-1.8c16-1.5,32-1.4,47.6-0.3c8.8,0.7,17.5,1.7,26.1,3c3.1,0.5,6.1,1,9.1,1.5
		c-1.5-2.7-3-5.4-4.4-8.2c-11.5-22-21.1-45.1-28.4-68.2c-0.4-1.3-0.8-2.6-1.2-3.9c-2.6-8.4-4.8-16.7-6.8-25c-0.4-1.5-0.7-3-1-4.4
		c-4.9-22.2-7.5-43.9-7.5-64.2c0-1.8,0-3.6,0.1-5.4c0.1-3,0.2-6,0.4-9c0.5-8.2,1.4-16.3,2.8-24.3c0.6-3.3,1.2-6.6,1.9-9.9
		C754.8,132.9,847.2,55,957.8,55c102.8,0,189.8,67.3,219.6,160.2c1,3.2,2,6.3,2.8,9.6v0c2.3,8.6,4.2,17.3,5.5,26.2
		c0.4,2.7,0.8,5.5,1.1,8.3c0.1,0.8,0.2,1.6,0.2,2.4c0,0.2,0.1,0.4,0.1,0.7c0,0.1,0,0.2,0,0.3c0,0,0,0.1,0,0.1c0,0.3,0.1,0.7,0.1,1
		c0.1,0.5,0.1,1.1,0.1,1.6c0,0.6,0.1,1.1,0.1,1.6c0.1,1.2,0.2,2.5,0.3,3.7c0.1,0.9,0.1,1.8,0.2,2.7c0,0.2,0,0.5,0,0.7
		c0,0.1,0,0.2,0,0.3c0,0.4,0,0.8,0,1.1c0,0.3,0,0.7,0.1,1v0.1c0,0.5,0,0.9,0,1.4l0,0.4v0.1l0,0.1v0.3c0,1,0.1,2.1,0.1,3.1
		c0,1.2,0,2.4,0,3.6c0,3.1-0.1,6.2-0.2,9.3c-0.1,3.1-0.3,6.1-0.5,9.3c-1.2,16-3.8,32.8-7.8,49.7c0,0,0,0,0,0.1
		c-2.2,9.7-4.9,19.4-8,29.2c-0.8,2.6-1.7,5.3-2.6,7.9c-16.1,47.4-41.5,94.3-73.4,131.5c-1.1,1.3-2.2,2.6-3.3,3.8
		c-3.1,3.5-6.2,6.9-9.5,10.2c1.3-0.3,2.6-0.7,3.8-1.1l0.5-0.1l8.4-2.3l0.8-0.2l0,0l8-2.5c23.3-7.5,45.5-17.5,65.6-30
		c18.4-11.7,35-25.5,47.6-41.4c1-1.2,2-2.5,2.9-3.7c0.7-0.9,1.3-1.8,1.9-2.7c7.6-10.8,13.2-22.4,16.5-34.4c0.8-3.1,1.5-6.3,2-9.4
		c0.6-3.5,1-7,1.1-10.5c0.1-2.3,0.1-4.7,0.1-7.1c0,0,24.8-76.9,11.4-113.9c8.1,8.1,15.8,17,22.7,26.7c8.2,11.4,15.3,23.9,20.8,37.4
		c0,0,0,0,0,0c0.9,2.1,1.7,4.3,2.5,6.4c2.1,5.7,3.8,11.5,5.2,17.4c2.6,10.8,4.1,21.9,4.4,33C1309.6,407.5,1309,417.1,1307.6,426.6z"
		/>
</g>
<g id="Mgsat">
	
		<ellipse transform="matrix(0.6662 -0.7458 0.7458 0.6662 -179.0415 1225.9907)" class="st2" cx="1280" cy="813" rx="26.4" ry="18.8"/>
	<ellipse transform="matrix(0.993 -0.1184 0.1184 0.993 -99.314 127.582)" class="st3" cx="1024.1" cy="899.7" rx="13" ry="9.2"/>
	
		<ellipse transform="matrix(6.773862e-02 -0.9977 0.9977 6.773862e-02 -28.9592 1813.7062)" class="st4" cx="956" cy="922.3" rx="7.4" ry="10.4"/>
	<g>
		<path class="st5" d="M945.7,919.4c-0.2-1.2,0.1-2.5,0.8-3.6c0.7-1.1,1.7-2,2.8-2.7c2.2-1.4,4.9-1.9,7.4-1.7c2.5,0.2,5.1,1,7.1,2.7
			c1,0.8,1.8,1.9,2.4,3c0.5,1.2,0.7,2.5,0.3,3.7c-0.4-2.4-2.1-4-3.9-5c-1.9-1-4-1.6-6.1-1.7c-2.1-0.1-4.3,0.1-6.3,0.9
			C948.2,915.7,946.4,917.1,945.7,919.4z"/>
	</g>
	<g class="st6">
		<path class="st7" d="M962.5,921.9c0.1,0.8-0.1,1.6-0.6,2.2c-0.4,0.7-1.1,1.2-1.8,1.6c-1.4,0.8-3,1.1-4.6,1
			c-1.6-0.1-3.2-0.6-4.4-1.6c-0.6-0.5-1.2-1.1-1.5-1.9c-0.3-0.7-0.5-1.6-0.3-2.3c0.2,1.5,1.2,2.6,2.4,3.3c1.2,0.7,2.6,1.1,3.9,1.2
			c1.4,0.1,2.8-0.1,4.1-0.6C961,924.3,962.1,923.4,962.5,921.9z"/>
	</g>
	
		<ellipse transform="matrix(0.9782 -0.2076 0.2076 0.9782 -186.4014 229.8251)" class="st8" cx="1002.1" cy="1003.2" rx="6.3" ry="4.5"/>
	<g>
		<path class="st5" d="M995.5,1003.2c-0.3-0.7-0.3-1.5,0-2.2c0.2-0.7,0.7-1.4,1.2-2c1.1-1.1,2.5-1.8,4-2.2c1.5-0.3,3.1-0.2,4.5,0.4
			c0.7,0.3,1.4,0.7,1.9,1.3c0.5,0.6,0.8,1.3,0.9,2c-0.6-1.4-1.8-2.1-3.1-2.4c-1.3-0.3-2.6-0.3-3.9-0.1c-1.3,0.3-2.5,0.8-3.6,1.6
			C996.3,1000.6,995.5,1001.7,995.5,1003.2z"/>
	</g>
	<g class="st6">
		<path class="st7" d="M1005.8,1001.9c0.4,0.9,0,2-0.7,2.7c-0.7,0.7-1.6,1.2-2.5,1.4c-1,0.2-2,0.2-2.9-0.2c-0.9-0.3-1.7-1.2-1.7-2.1
			c0.4,0.9,1.1,1.3,1.9,1.5c0.8,0.2,1.7,0.2,2.5,0c0.8-0.2,1.6-0.5,2.3-1C1005.3,1003.5,1005.8,1002.8,1005.8,1001.9z"/>
	</g>
	<g>
		<path class="st5" d="M1037,901.5c0.5,1.4,0.3,3.1-0.3,4.5c-0.6,1.5-1.6,2.8-2.8,3.8c-2.4,2.1-5.4,3.3-8.5,3.7
			c-3.1,0.4-6.4-0.1-9.2-1.6c-1.4-0.7-2.7-1.8-3.6-3.1c-0.9-1.3-1.5-2.9-1.3-4.3c1,2.9,3.3,4.6,5.8,5.5c2.5,0.9,5.3,1.1,8,0.8
			c2.7-0.3,5.3-1.2,7.6-2.7C1034.8,906.7,1036.7,904.5,1037,901.5z"/>
	</g>
	<g class="st6">
		<path class="st7" d="M1013.9,902.1c-0.3-1.1-0.1-2.4,0.4-3.5c0.5-1.1,1.3-2.1,2.2-2.8c1.8-1.6,4.2-2.4,6.5-2.7
			c2.4-0.3,4.8,0,7,1.1c1.1,0.5,2.1,1.3,2.8,2.2c0.7,1,1.2,2.1,1.2,3.3c-0.6-2.3-2.4-3.8-4.4-4.6c-2-0.8-4.3-1-6.4-0.7
			c-2.2,0.3-4.3,1-6.1,2.2C1015.4,897.9,1014,899.8,1013.9,902.1z"/>
	</g>
	<ellipse transform="matrix(0.392 -0.92 0.92 0.392 -287.4458 1340.6859)" class="st9" cx="870.6" cy="887.8" rx="9.4" ry="17.2"/>
	<g class="st6">
		<path class="st7" d="M857.6,883.9c0.4-1.3,1.6-2.5,2.9-3c1.3-0.6,2.8-0.9,4.2-0.9c2.9-0.1,5.7,0.6,8.4,1.7c2.6,1.2,5.1,2.7,7,4.9
			c1,1.1,1.8,2.3,2.3,3.7c0.5,1.4,0.5,3-0.2,4.2c0.3-1.4,0.1-2.7-0.6-3.9c-0.6-1.2-1.5-2.2-2.4-3.1c-1.9-1.8-4.3-3.2-6.7-4.2
			c-2.5-1-5.1-1.8-7.7-1.9c-1.3-0.1-2.7,0-3.9,0.4C859.5,882,858.3,882.7,857.6,883.9z"/>
	</g>
	<g>
		<path class="st5" d="M885.2,899.1c-0.5,1.8-2,3.2-3.7,4c-1.7,0.8-3.6,1.2-5.5,1.3c-3.8,0.2-7.5-0.7-10.9-2.1
			c-3.4-1.5-6.6-3.5-9.1-6.4c-1.2-1.4-2.3-3-2.9-4.8c-0.6-1.8-0.6-3.9,0.4-5.4c-0.4,1.8,0,3.5,0.9,4.9c0.8,1.5,1.9,2.7,3.2,3.9
			c2.5,2.3,5.5,4,8.6,5.4c3.1,1.3,6.4,2.3,9.8,2.5c1.7,0.1,3.4,0,5-0.4C882.7,901.5,884.2,900.6,885.2,899.1z"/>
	</g>
	
		<ellipse transform="matrix(0.3107 -0.9505 0.9505 0.3107 -335.9356 1513.7473)" class="st10" cx="875.7" cy="988.5" rx="9.2" ry="14.6"/>
	<g class="st6">
		<path class="st7" d="M866.3,986.3c0.1-1,0.8-2,1.6-2.7c0.9-0.7,1.9-1.1,3-1.4c2.1-0.5,4.4-0.3,6.4,0.4c2,0.7,4,1.8,5.4,3.5
			c0.7,0.8,1.3,1.8,1.6,2.9c0.3,1.1,0.2,2.3-0.3,3.2c0.1-2.1-1.1-3.6-2.5-4.8c-1.4-1.2-3.1-2-4.9-2.6c-1.8-0.6-3.6-0.9-5.5-0.8
			C869.3,984,867.4,984.5,866.3,986.3z"/>
	</g>
	<g>
		<path class="st5" d="M889.6,996.7c-0.2,1.6-1.3,3.1-2.6,4.1c-1.4,1-3,1.7-4.6,2c-3.3,0.7-6.8,0.3-9.9-0.7
			c-3.2-1.1-6.2-2.8-8.4-5.3c-1.1-1.3-2.1-2.7-2.5-4.4c-0.5-1.6-0.4-3.5,0.3-4.9c-0.4,3.3,1.5,5.8,3.7,7.8c2.2,2,5,3.3,7.8,4.2
			c2.8,0.9,5.8,1.4,8.8,1.2C885,1000.5,888,999.5,889.6,996.7z"/>
	</g>
	
		<ellipse transform="matrix(0.6662 -0.7458 0.7458 0.6662 -69.8355 652.9246)" class="st11" cx="694.4" cy="404.5" rx="11.9" ry="8.5"/>
	<g class="st6">
		<path class="st7" d="M689.1,410.8c-0.8-0.5-1.3-1.4-1.6-2.3c-0.3-0.9-0.3-1.9-0.2-2.9c0.3-1.9,1.2-3.7,2.5-5.1
			c1.3-1.4,2.9-2.6,4.8-3.1c0.9-0.3,1.9-0.3,2.9-0.1c0.9,0.2,1.8,0.6,2.5,1.3c-1.5-1.1-3.5-1-5.1-0.4c-1.7,0.6-3.1,1.7-4.3,3
			c-1.2,1.3-2.1,2.9-2.5,4.6C687.7,407.5,687.9,409.4,689.1,410.8z"/>
	</g>
	<g>
		<path class="st5" d="M704.7,397.8c1.2,0.7,2,2,2.5,3.3c0.5,1.4,0.6,2.9,0.4,4.3c-0.4,2.9-1.8,5.5-3.7,7.7
			c-1.9,2.1-4.4,3.8-7.3,4.5c-1.4,0.4-2.9,0.4-4.3,0.1c-1.4-0.3-2.7-1-3.6-2.1c2.4,1.4,5.1,1.2,7.4,0.3c2.3-0.9,4.4-2.4,6.1-4.3
			c1.7-1.9,3-4.1,3.6-6.5C706.4,402.7,706.4,400,704.7,397.8z"/>
	</g>
	
		<ellipse transform="matrix(0.6519 -0.7583 0.7583 0.6519 210.5511 1024.5726)" class="st12" cx="1221.2" cy="283" rx="16.3" ry="23.5"/>
	<g class="st6">
		<path class="st7" d="M1234.6,291.8c-1,1.5-2.6,2.5-4.3,3.1c-1.7,0.5-3.6,0.6-5.4,0.3c-3.6-0.5-6.9-2.3-9.7-4.6
			c-2.7-2.4-4.9-5.4-6-8.9c-0.5-1.7-0.7-3.6-0.5-5.4c0.3-1.8,1.1-3.5,2.4-4.7c-0.9,1.5-1.4,3.1-1.4,4.8c0,1.6,0.4,3.3,1,4.8
			c1.2,3,3.3,5.7,5.8,7.9c2.5,2.1,5.4,3.8,8.6,4.6c1.6,0.4,3.3,0.5,4.9,0.3C1231.7,293.6,1233.3,292.9,1234.6,291.8z"/>
	</g>
	<g>
		<path class="st5" d="M1205.7,265.4c1.4-2.2,3.9-3.9,6.5-4.7c2.7-0.8,5.5-1,8.2-0.6c5.5,0.8,10.6,3.4,14.8,7
			c4.1,3.6,7.5,8.3,9.1,13.6c0.8,2.6,1.1,5.5,0.7,8.2c-0.4,2.7-1.7,5.4-3.7,7.1c1.4-2.3,2-4.8,2-7.3c0-2.5-0.6-4.9-1.5-7.2
			c-1.9-4.6-5.1-8.6-8.8-11.9c-3.8-3.2-8.2-5.8-13.1-7c-2.4-0.6-4.9-0.8-7.4-0.4C1210.1,262.6,1207.7,263.6,1205.7,265.4z"/>
	</g>
	<g class="st6">
		<path class="st7" d="M1269.2,825.3c-1.7-1-2.8-2.9-3.2-4.8c-0.4-2-0.3-4.1,0.1-6c0.8-3.9,2.9-7.5,5.5-10.5
			c2.7-2.9,5.9-5.4,9.8-6.7c1.9-0.6,3.9-1,6-0.7c2,0.2,4,1.1,5.2,2.7c-1.7-0.9-3.5-1.2-5.2-1c-1.7,0.2-3.4,0.8-4.9,1.6
			c-3.1,1.5-5.9,3.9-8.2,6.4c-2.3,2.6-4.3,5.6-5.5,8.9c-0.6,1.6-1,3.4-1,5.1C1267.7,822,1268.1,823.7,1269.2,825.3z"/>
	</g>
	<g>
		<path class="st5" d="M1303.2,799c2.6,1.5,4.6,4.3,5.7,7.3c1.1,3.1,1.3,6.4,0.9,9.6c-0.8,6.5-3.9,12.4-8.1,17.2
			c-4.3,4.7-9.9,8.5-16.2,10c-3.1,0.7-6.5,0.9-9.6,0.1c-3.1-0.8-6.1-2.4-7.9-4.9c2.7,1.5,5.5,2.2,8.2,2.1c2.8,0,5.5-0.6,8-1.6
			c5.1-2,9.6-5.4,13.3-9.5c3.6-4.1,6.5-8.9,8-14.2c0.7-2.6,1-5.4,0.7-8.1C1306,804.2,1305,801.4,1303.2,799z"/>
	</g>
	
		<ellipse transform="matrix(0.2064 -0.9785 0.9785 0.2064 408.6738 1838.7845)" class="st13" cx="1337.9" cy="667.5" rx="24.1" ry="12.9"/>
	<g class="st6">
		<path class="st7" d="M1334.6,680.9c-0.7,0-1.4-0.5-1.9-1c-0.5-0.5-0.8-1.2-1.1-1.9c-0.5-1.3-0.8-2.8-1-4.2c-0.2-1.4-0.1-2.8,0-4.2
			c0.1-1.4,0.3-2.8,0.6-4.2c0.3-1.4,0.7-2.7,1.2-4.1c0.5-1.3,1-2.6,1.8-3.9c0.7-1.2,1.5-2.4,2.6-3.4c0.6-0.5,1.1-1,1.8-1.3
			c0.7-0.3,1.5-0.5,2.1-0.2c-0.7,0-1.3,0.3-1.8,0.7c-0.5,0.4-0.9,0.9-1.3,1.5c-0.7,1.1-1.3,2.3-1.8,3.5c-1,2.5-1.7,5-2.3,7.6
			c-0.6,2.6-0.9,5.3-1,7.9c0,1.3,0,2.6,0.3,3.9c0.1,0.6,0.3,1.3,0.6,1.8C1333.5,680,1333.9,680.6,1334.6,680.9z"/>
	</g>
	<g>
		<path class="st5" d="M1348.5,643.8c1.2,0.1,2.6,0.4,3.7,1.2c0.3,0.2,0.6,0.4,0.8,0.6c0.3,0.2,0.5,0.4,0.8,0.7c0.4,0.5,1,1,1.3,1.5
			c1.6,2.2,2.6,4.7,3.2,7.2c1.3,5.1,1.1,10.5,0,15.6c-1.1,5.1-3.1,10-6.3,14.2c-1.6,2.1-3.6,4-5.9,5.3c-0.6,0.4-1.2,0.6-1.8,0.8
			c-0.3,0.1-0.7,0.2-1,0.3c-0.3,0.1-0.6,0.2-1,0.2c-1.3,0.2-2.7,0-3.9-0.4c2.6-0.1,4.7-1.1,6.3-2.8c1.7-1.6,3.1-3.5,4.2-5.5
			c2.3-4,3.8-8.6,4.8-13.2c0.9-4.6,1.4-9.4,0.9-14c-0.3-2.3-0.7-4.6-1.6-6.7C1352.3,646.8,1350.8,644.9,1348.5,643.8z"/>
	</g>
	
		<ellipse transform="matrix(0.9852 -0.1711 0.1711 0.9852 -64.6646 234.4648)" class="st14" cx="1327.7" cy="492.3" rx="8.5" ry="19"/>
	<g class="st6">
		<path class="st7" d="M1331.6,506.1c-0.6,0.3-1.4,0.1-2-0.3c-0.6-0.3-1.1-0.8-1.6-1.3c-0.9-1-1.7-2.1-2.3-3.3c-1.2-2.4-2-5-2.5-7.6
			c-0.4-2.6-0.6-5.3-0.2-8c0.2-1.3,0.5-2.7,1-3.9c0.3-0.6,0.6-1.2,1.1-1.8c0.5-0.5,1.1-0.9,1.8-0.9c-0.6,0.3-1,0.8-1.2,1.3
			c-0.3,0.5-0.4,1.1-0.5,1.7c-0.2,1.2-0.3,2.4-0.3,3.7c0,2.5,0.3,4.9,0.7,7.4c0.4,2.4,1,4.9,1.8,7.2c0.4,1.2,0.9,2.3,1.5,3.4
			c0.3,0.5,0.6,1,1.1,1.5C1330.5,505.7,1331,506.1,1331.6,506.1z"/>
	</g>
	<g>
		<path class="st5" d="M1327.8,473.6c0.9-0.3,1.9-0.3,2.9,0c0.5,0.2,1,0.4,1.4,0.6c0.4,0.2,0.9,0.5,1.2,0.8c1.6,1.3,2.8,2.8,3.8,4.5
			c2,3.4,3.3,7.1,4,10.9c0.6,3.8,0.7,7.8,0,11.6c-0.4,1.9-1,3.8-2.1,5.5c-0.3,0.4-0.5,0.8-0.9,1.2c-0.3,0.4-0.7,0.7-1.1,1.1
			c-0.8,0.6-1.8,1-2.7,1c0.9-0.4,1.5-1,2.1-1.7c0.5-0.7,0.9-1.5,1.1-2.3c0.6-1.6,0.8-3.4,0.9-5.2c0.2-3.5-0.1-7.1-0.7-10.7
			c-0.6-3.5-1.5-7-3-10.3c-0.7-1.6-1.5-3.2-2.6-4.6c-0.5-0.7-1.2-1.3-1.9-1.8C1329.6,474,1328.8,473.7,1327.8,473.6z"/>
	</g>
	
		<ellipse transform="matrix(4.870253e-02 -0.9988 0.9988 4.870253e-02 623.0534 1810.5027)" class="st15" cx="1262" cy="578.2" rx="19" ry="13.1"/>
	
		<ellipse transform="matrix(4.870253e-02 -0.9988 0.9988 4.870253e-02 557.795 2059.7324)" class="st16" cx="1360.2" cy="737" rx="13.7" ry="10.1"/>
	<g class="st6">
		<path class="st7" d="M1359.9,727.6c1.1-0.1,2.2,0.3,3.2,0.9c1,0.6,1.8,1.5,2.4,2.4c1.2,1.9,1.7,4.3,1.6,6.6
			c-0.1,2.3-0.8,4.5-2.2,6.4c-0.7,0.9-1.6,1.7-2.6,2.2c-1,0.5-2.2,0.8-3.3,0.6c2.2-0.1,4-1.6,5.1-3.3c1.1-1.8,1.7-3.8,1.8-5.9
			c0.1-2.1-0.3-4.2-1.2-6.1C1363.8,729.5,1362.1,727.9,1359.9,727.6z"/>
	</g>
	<g>
		<path class="st5" d="M1356.1,750.7c-1.6,0.3-3.3-0.1-4.8-0.9c-1.5-0.8-2.8-2.1-3.7-3.5c-1.9-2.9-2.7-6.4-2.6-9.8
			c0.2-3.4,1.3-6.8,3.5-9.5c1.1-1.3,2.5-2.4,4.1-3.1c1.6-0.7,3.4-0.9,4.9-0.4c-3.2,0.6-5.4,2.7-6.8,5.1c-1.4,2.5-2.1,5.3-2.3,8.1
			c-0.1,2.8,0.3,5.7,1.5,8.3C1351,747.5,1353,749.8,1356.1,750.7z"/>
	</g>
	<g class="st6">
		<path class="st7" d="M1260.4,589c-1.2,0.2-2.5-0.3-3.5-1.1c-1-0.8-1.7-1.9-2.3-3c-1.1-2.3-1.4-4.8-1.4-7.3
			c0.2-2.5,0.7-4.9,2.1-7.1c0.6-1.1,1.5-2.1,2.5-2.8c1-0.7,2.4-1.1,3.6-0.8c-2.4,0.5-3.7,2.5-4.5,4.4c-0.8,2-1.3,4.2-1.4,6.4
			c-0.1,2.2,0.1,4.4,0.7,6.5C1257,586.2,1258.1,588.4,1260.4,589z"/>
	</g>
	<g>
		<path class="st5" d="M1268.6,559.2c2.2-0.4,4.5,0.3,6.5,1.5c2,1.2,3.6,3,4.8,5c2.4,4,3.3,8.7,3.1,13.2c-0.3,4.6-1.6,9.1-4.4,12.9
			c-1.4,1.8-3.2,3.5-5.3,4.5c-2.1,1-4.5,1.4-6.6,0.8c4.3-0.8,7.1-3.9,8.8-7.3c1.8-3.4,2.6-7.3,2.9-11.1c0.2-3.9-0.3-7.8-1.8-11.4
			C1275.2,563.8,1272.8,560.5,1268.6,559.2z"/>
	</g>
	
		<ellipse transform="matrix(4.870253e-02 -0.9988 0.9988 4.870253e-02 710.8192 1934.4263)" class="st17" cx="1370.9" cy="594.1" rx="14.7" ry="10.2"/>
	<g class="st6">
		<path class="st7" d="M1371,584.8c1.1-0.1,2.2,0.2,3.1,0.8c0.9,0.6,1.7,1.5,2.3,2.5c1.2,1.9,1.6,4.2,1.5,6.4
			c-0.1,2.2-0.8,4.4-2.1,6.3c-0.7,0.9-1.5,1.7-2.5,2.2c-1,0.5-2.2,0.7-3.2,0.5c2.1-0.3,3.6-1.8,4.5-3.5c0.9-1.7,1.4-3.6,1.5-5.6
			c0.1-1.9-0.2-3.9-0.9-5.7C1374.4,587,1373.1,585.3,1371,584.8z"/>
	</g>
	<g>
		<path class="st5" d="M1366.8,608.8c-1.7,0.2-3.4-0.4-4.8-1.4c-1.4-1-2.6-2.4-3.5-3.9c-1.8-3-2.4-6.6-2.3-10
			c0.2-3.4,1.2-6.9,3.2-9.8c1-1.4,2.3-2.7,3.8-3.5c1.5-0.8,3.3-1.2,5-0.9c-3.4,0.4-5.8,2.7-7.3,5.4c-0.7,1.4-1.3,2.8-1.7,4.3
			c-0.4,1.5-0.6,3-0.7,4.6c-0.1,3.1,0.3,6.3,1.6,9.1C1361.3,605.5,1363.5,608.1,1366.8,608.8z"/>
	</g>
	
		<ellipse transform="matrix(0.8105 -0.5858 0.5858 0.8105 -13.1772 781.3912)" class="st18" cx="1201" cy="411.1" rx="11" ry="16.7"/>
	<g class="st6">
		<path class="st7" d="M1206.9,419c-0.8,0.7-1.9,1.1-3,1.2c-1.1,0-2.2-0.2-3.2-0.6c-2-0.9-3.7-2.4-5-4.1c-1.2-1.8-2.2-3.8-2.3-6
			c-0.1-1.1,0-2.2,0.4-3.3c0.4-1,1.1-1.9,2-2.4c-1.5,1.5-1.7,3.6-1.3,5.5c0.4,1.9,1.2,3.7,2.4,5.3c1.2,1.6,2.6,3,4.3,3.9
			C1202.9,419.4,1204.9,419.9,1206.9,419z"/>
	</g>
	<g>
		<path class="st5" d="M1195.8,395.3c1.3-1.4,3.2-2.1,5.2-2.3c2-0.1,4,0.3,5.8,1c3.7,1.5,6.7,4.2,9,7.3c2.3,3.2,3.8,6.9,4.1,10.9
			c0.1,2-0.1,4-0.9,5.8c-0.8,1.8-2.1,3.5-3.8,4.2c1.3-1.4,2-3,2.2-4.7c0.3-1.7,0.1-3.4-0.2-5c-0.7-3.3-2.2-6.4-4.2-9.2
			c-2-2.7-4.5-5.2-7.4-6.9c-1.5-0.8-3.1-1.5-4.7-1.8C1199.3,394.4,1197.5,394.5,1195.8,395.3z"/>
	</g>
</g>
<g id="Wrinkles">
	<path class="st19" d="M1138.8,836.1C1138.8,836.1,1138.8,836.1,1138.8,836.1"/>
	<path class="st19" d="M1224.8,653.5C1224.8,653.5,1224.8,653.5,1224.8,653.5c-0.1,0.1-0.2,0.1-0.2,0.1"/>
	<g class="st20">
		<path class="st5" d="M1047.8,766.7c-0.1,1.4-0.3,2.8-0.6,4.1c-0.3,1.3-0.7,2.5-1.2,3.7c-0.9,2.3-2.1,4.4-3.4,6.4
			c-2.7,3.9-6.1,7.2-10,9.7c-1.9,1.3-4,2.3-6.2,3.3c-1.1,0.4-2.2,0.9-3.3,1.2c-0.6,0.2-1.1,0.4-1.7,0.5l-1.8,0.4
			c-0.6,0.1-1.2,0.2-1.8,0.3c-0.6,0.1-1.2,0.2-1.8,0.2c-1.2,0.1-2.5,0.1-3.7,0.1c-0.6,0-1.2,0-1.9-0.1c-0.6-0.1-1.3-0.2-1.9-0.3
			c-1.3-0.2-2.6-0.6-3.9-1.1l-0.3-1l3-1.2c1-0.4,2-0.8,2.9-1.3l2.9-1.4c1-0.5,1.9-1,2.8-1.5c1.9-1,3.7-2.1,5.6-3.1
			c1.8-1.1,3.7-2.2,5.4-3.4c3.6-2.3,7-4.9,10.4-7.5c1.7-1.3,3.3-2.7,4.9-4.1c1.6-1.4,3.2-2.8,4.7-4.3L1047.8,766.7z"/>
	</g>
	<g class="st20">
		<path class="st5" d="M993.6,649.2c-0.6,1.3-1.3,2.5-2.1,3.5c-0.8,1.1-1.6,2-2.5,2.9c-1.8,1.8-3.7,3.3-5.7,4.5c-4,2.5-8.4,4.2-13,5
			c-2.3,0.5-4.6,0.6-7,0.6c-1.2,0-2.4-0.1-3.5-0.2c-0.6-0.1-1.2-0.1-1.8-0.2l-1.8-0.4c-0.6-0.1-1.2-0.3-1.8-0.4
			c-0.6-0.2-1.2-0.3-1.7-0.5c-1.2-0.4-2.3-0.9-3.4-1.4c-0.6-0.3-1.1-0.5-1.7-0.9c-0.6-0.3-1.1-0.7-1.7-1c-1.1-0.7-2.1-1.6-3.2-2.5
			l0.1-1l3.2,0c1.1,0,2.1,0,3.2-0.1l3.2-0.1c1.1-0.1,2.1-0.2,3.2-0.2c2.1-0.1,4.3-0.4,6.4-0.7c2.1-0.3,4.2-0.6,6.3-1.1
			c4.2-0.7,8.4-1.7,12.5-2.9c2.1-0.6,4.1-1.2,6.1-1.9c2-0.7,4.1-1.4,6-2.1L993.6,649.2z"/>
	</g>
	<g class="st20">
		<path class="st5" d="M786.2,531.6c-1.2-0.8-2.3-1.6-3.2-2.6c-1-0.9-1.8-1.9-2.6-2.8c-1.5-2-2.8-4.1-3.8-6.2
			c-2-4.3-3.1-8.9-3.3-13.5c-0.2-2.3,0-4.7,0.3-7c0.2-1.2,0.4-2.3,0.7-3.5c0.1-0.6,0.2-1.1,0.4-1.7l0.6-1.7c0.2-0.6,0.4-1.1,0.6-1.7
			c0.2-0.6,0.4-1.1,0.7-1.7c0.5-1.1,1.2-2.2,1.8-3.2c0.4-0.5,0.7-1,1.1-1.6c0.4-0.5,0.8-1,1.3-1.5c0.9-1,1.8-1.9,2.9-2.8l1,0.2
			l-0.4,3.2c-0.2,1.1-0.3,2.1-0.4,3.2l-0.3,3.2c-0.1,1.1-0.1,2.1-0.2,3.2c-0.1,2.1-0.1,4.3-0.2,6.4c0.1,2.1,0.1,4.3,0.2,6.4
			c0.2,4.3,0.6,8.5,1.2,12.8c0.3,2.1,0.6,4.2,1,6.3c0.4,2.1,0.8,4.2,1.3,6.3L786.2,531.6z"/>
	</g>
	<g class="st20">
		<path class="st5" d="M830,629.4c-1.4,0.1-2.8,0-4.1-0.2c-1.3-0.2-2.5-0.5-3.7-0.8c-2.4-0.7-4.6-1.7-6.7-2.9
			c-4.1-2.4-7.6-5.5-10.5-9.2c-1.5-1.8-2.7-3.8-3.8-5.9c-0.5-1.1-1-2.1-1.5-3.2c-0.2-0.6-0.5-1.1-0.6-1.7l-0.5-1.7
			c-0.2-0.6-0.3-1.2-0.4-1.8c-0.1-0.6-0.3-1.2-0.4-1.8c-0.2-1.2-0.3-2.5-0.4-3.7c0-0.6-0.1-1.2,0-1.9c0-0.7,0.1-1.3,0.2-1.9
			c0.1-1.3,0.4-2.6,0.8-4l0.9-0.4l1.5,2.9c0.5,1,1,1.9,1.6,2.8l1.6,2.8c0.6,0.9,1.1,1.8,1.7,2.7c1.1,1.8,2.4,3.6,3.6,5.3
			c1.3,1.7,2.5,3.5,3.9,5.1c2.6,3.4,5.4,6.6,8.4,9.7c1.5,1.6,3,3.1,4.5,4.6c1.5,1.5,3.1,3,4.7,4.3L830,629.4z"/>
	</g>
	<g class="st20">
		<path class="st5" d="M709.1,745c-1.3,3.9-3.6,6.6-6.2,8.8c-2.6,2.2-5.5,3.8-8.7,4.8c-0.8,0.2-1.6,0.5-2.4,0.7
			c-0.8,0.2-1.6,0.4-2.5,0.5c-0.8,0.1-1.7,0.2-2.5,0.2c-0.4,0-0.8,0-1.3,0l-1.3-0.1c-3.4-0.2-6.9-1.2-10.2-3.4l-0.1-0.7
			c1.5-0.2,3-0.4,4.5-0.7l2.3-0.4c0.7-0.1,1.5-0.3,2.2-0.5c1.5-0.3,3-0.7,4.4-1.1c1.5-0.5,2.9-0.9,4.4-1.4c2.9-0.9,5.8-2,8.6-3.2
			c1.4-0.6,2.8-1.3,4.1-2c1.4-0.7,2.7-1.4,4.1-2.1L709.1,745z"/>
	</g>
	<g class="st20">
		<path class="st5" d="M632.4,537c-1.4,0-2.8-0.1-4.1-0.3c-1.3-0.2-2.5-0.6-3.7-0.9c-2.4-0.8-4.5-1.8-6.6-3.1
			c-4-2.5-7.5-5.7-10.2-9.4c-1.4-1.8-2.6-3.9-3.6-6c-0.5-1.1-1-2.1-1.4-3.3c-0.2-0.6-0.4-1.1-0.6-1.7l-0.5-1.7
			c-0.2-0.6-0.3-1.2-0.4-1.8c-0.1-0.6-0.3-1.2-0.3-1.8c-0.2-1.2-0.2-2.5-0.3-3.7c0-0.6,0-1.2,0-1.9c0.1-0.6,0.1-1.3,0.2-1.9
			c0.2-1.3,0.5-2.6,0.9-4l0.9-0.4l1.4,2.9c0.5,1,0.9,1.9,1.5,2.9l1.5,2.8c0.5,0.9,1.1,1.8,1.6,2.8c1.1,1.9,2.3,3.6,3.4,5.4
			c1.2,1.7,2.4,3.5,3.7,5.2c2.5,3.5,5.2,6.8,8.1,9.9c1.4,1.6,2.9,3.2,4.4,4.7c1.5,1.5,3,3.1,4.6,4.5L632.4,537z"/>
	</g>
	<g class="st20">
		<path class="st5" d="M582.1,687.8c-0.9,2.1-2.2,3.8-3.5,5.2c-1.4,1.5-2.8,2.7-4.4,3.8c-3.1,2.1-6.6,3.6-10.2,4.3
			c-0.9,0.2-1.8,0.4-2.7,0.5c-0.9,0.1-1.9,0.2-2.8,0.2c-0.9,0-1.9,0-2.8-0.1c-0.5,0-0.9,0-1.4-0.1l-1.4-0.2
			c-0.5-0.1-0.9-0.2-1.4-0.3c-0.5-0.1-0.9-0.2-1.4-0.4c-0.9-0.3-1.9-0.6-2.8-1c-0.9-0.4-1.8-0.9-2.7-1.4c-0.9-0.5-1.8-1.2-2.6-1.9
			l0-0.8c1.7-0.1,3.4,0,5.1-0.2l2.6-0.2c0.8-0.1,1.7-0.2,2.5-0.3c1.7-0.2,3.4-0.5,5.1-0.7c1.7-0.3,3.4-0.6,5-1
			c3.3-0.7,6.6-1.6,9.9-2.6c1.6-0.5,3.2-1.1,4.9-1.6c1.6-0.6,3.2-1.2,4.8-1.9L582.1,687.8z"/>
	</g>
	<g class="st20">
		<path class="st5" d="M639.5,813.9c-0.3,3.3-1.6,5.9-3.2,8.1c-1.6,2.2-3.6,4.1-5.9,5.5c-0.6,0.3-1.2,0.7-1.8,1
			c-0.6,0.3-1.2,0.6-1.8,0.8c-0.6,0.2-1.3,0.5-1.9,0.6c-0.6,0.2-1.3,0.3-2,0.5c-2.7,0.5-5.7,0.4-8.7-0.8l-0.2-0.6
			c1.1-0.5,2.3-0.9,3.4-1.4l1.7-0.7l1.7-0.8c1.1-0.5,2.2-1.2,3.3-1.7c1.1-0.6,2.1-1.2,3.2-1.9c2.1-1.3,4.2-2.7,6.1-4.2
			c1-0.8,1.9-1.5,2.9-2.3c1-0.8,1.9-1.6,2.8-2.5L639.5,813.9z"/>
	</g>
	<g class="st20">
		<path class="st5" d="M1075.7,559.5c1.2,0.8,2.3,1.6,3.3,2.5c1,0.9,1.8,1.8,2.6,2.8c1.6,1.9,2.8,4,3.9,6.1
			c2.1,4.3,3.3,8.8,3.6,13.5c0.2,2.3,0.1,4.7-0.1,7c-0.2,1.2-0.3,2.3-0.6,3.5c-0.1,0.6-0.2,1.2-0.4,1.7l-0.5,1.7
			c-0.2,0.6-0.4,1.1-0.6,1.7c-0.2,0.6-0.4,1.1-0.7,1.7c-0.5,1.1-1.1,2.2-1.8,3.3c-0.3,0.5-0.6,1.1-1,1.6c-0.4,0.5-0.8,1-1.2,1.5
			c-0.8,1-1.8,2-2.9,2.9l-1-0.2l0.4-3.2c0.1-1.1,0.2-2.1,0.3-3.2l0.2-3.2c0.1-1.1,0.1-2.1,0.1-3.2c0.1-2.1,0-4.3,0-6.4
			c-0.1-2.1-0.2-4.3-0.4-6.4c-0.3-4.3-0.8-8.5-1.5-12.7c-0.3-2.1-0.7-4.2-1.2-6.3c-0.4-2.1-0.9-4.2-1.5-6.2L1075.7,559.5z"/>
	</g>
	<g class="st20">
		<path class="st5" d="M1189.6,504.2c1.4,0.1,2.8,0.3,4.1,0.6c1.3,0.3,2.5,0.7,3.6,1.2c2.3,1,4.4,2.2,6.4,3.5
			c3.9,2.8,7.1,6.2,9.6,10.2c1.3,1.9,2.3,4.1,3.2,6.2c0.4,1.1,0.8,2.2,1.1,3.4c0.2,0.6,0.4,1.1,0.5,1.7l0.3,1.8
			c0.1,0.6,0.2,1.2,0.3,1.8c0.1,0.6,0.2,1.2,0.2,1.8c0.1,1.2,0.1,2.5,0,3.7c-0.1,0.6-0.1,1.2-0.2,1.9c-0.1,0.6-0.2,1.3-0.3,1.9
			c-0.3,1.3-0.6,2.6-1.2,3.9l-1,0.3l-1.2-3c-0.4-1-0.8-2-1.3-3l-1.3-2.9c-0.5-1-1-1.9-1.4-2.9c-0.9-1.9-2-3.8-3-5.7
			c-1.1-1.8-2.2-3.7-3.4-5.5c-2.3-3.6-4.8-7.1-7.4-10.5c-1.3-1.7-2.7-3.4-4-5c-1.4-1.6-2.8-3.3-4.3-4.8L1189.6,504.2z"/>
	</g>
	<g class="st20">
		<path class="st5" d="M1256.6,407.8c2.9-2.9,6.1-4.3,9.4-5.2c3.3-0.8,6.6-1,9.9-0.5c0.8,0.1,1.6,0.2,2.5,0.4
			c0.8,0.2,1.6,0.4,2.4,0.7c0.8,0.3,1.6,0.6,2.3,0.9c0.4,0.2,0.8,0.3,1.2,0.5l1.1,0.6c3,1.7,5.7,4.1,7.6,7.6l-0.3,0.7
			c-1.5-0.5-2.9-1-4.4-1.4l-2.2-0.7c-0.7-0.2-1.5-0.4-2.2-0.6c-1.5-0.4-3-0.6-4.5-1c-1.5-0.2-3-0.5-4.5-0.7c-3-0.4-6.1-0.7-9.1-0.9
			c-1.5-0.1-3.1-0.1-4.6-0.1c-1.5,0-3.1,0-4.6,0.1L1256.6,407.8z"/>
	</g>
	<g class="st20">
		<path class="st5" d="M1095.5,665.8c1.3,2,1.9,4,2.4,6c0.5,2,0.6,3.9,0.7,5.9c0,3.9-0.8,7.6-2.2,11.1c-0.4,0.9-0.7,1.7-1.2,2.6
			c-0.5,0.8-0.9,1.7-1.4,2.5c-0.5,0.8-1.1,1.6-1.7,2.3c-0.3,0.4-0.6,0.8-0.9,1.1l-1,1.1c-0.3,0.4-0.7,0.7-1.1,1
			c-0.4,0.3-0.7,0.7-1.1,1c-0.8,0.6-1.6,1.2-2.5,1.8c-0.9,0.6-1.8,1-2.8,1.5c-1,0.4-2,0.8-3.1,1.1l-0.7-0.5l1.4-2.2
			c0.5-0.7,0.9-1.5,1.4-2.2l1.3-2.3c0.4-0.8,0.8-1.5,1.2-2.3c0.8-1.5,1.5-3.1,2.3-4.7c0.7-1.6,1.4-3.2,2-4.8
			c1.3-3.2,2.5-6.5,3.5-9.9c0.5-1.7,1-3.4,1.4-5c0.4-1.7,0.8-3.4,1.2-5.1L1095.5,665.8z"/>
	</g>
	<g class="st20">
		<path class="st5" d="M1207.7,672.1c3.9,0.4,6.9,1.9,9.5,3.8c2.6,1.9,4.8,4.3,6.4,7c0.4,0.7,0.8,1.4,1.2,2.1c0.3,0.7,0.7,1.4,1,2.2
			c0.3,0.8,0.5,1.5,0.7,2.3c0.1,0.4,0.2,0.8,0.3,1.2l0.2,1.2c0.5,3.2,0.4,6.7-1,10.2l-0.7,0.2c-0.5-1.4-1-2.8-1.6-4.1l-0.8-2
			c-0.3-0.7-0.6-1.3-0.9-2c-0.6-1.3-1.3-2.6-2-3.9c-0.7-1.3-1.5-2.5-2.3-3.8c-1.5-2.5-3.1-4.9-4.9-7.3c-0.9-1.2-1.8-2.3-2.7-3.4
			c-0.9-1.1-1.9-2.3-2.9-3.3L1207.7,672.1z"/>
	</g>
	<g class="st20">
		<path class="st5" d="M1131.8,852.3c0.5,2.4,0.4,4.5,0.1,6.6c-0.3,2.1-0.8,4-1.5,5.9c-1.4,3.7-3.6,7-6.2,9.9
			c-0.7,0.7-1.3,1.4-2.1,2c-0.8,0.6-1.5,1.3-2.3,1.9c-0.8,0.6-1.6,1.1-2.5,1.6c-0.4,0.2-0.8,0.5-1.3,0.7l-1.4,0.6
			c-0.4,0.2-0.9,0.4-1.4,0.6c-0.5,0.2-0.9,0.4-1.4,0.5c-1,0.3-2,0.6-3,0.8c-0.5,0.1-1,0.2-1.6,0.3c-0.5,0-1.1,0.1-1.6,0.1
			c-1.1,0.1-2.2,0-3.4-0.1l-0.5-0.7l2.2-1.6c0.7-0.5,1.4-1.1,2.1-1.7l2.1-1.7c0.7-0.6,1.3-1.2,2-1.8c1.4-1.2,2.6-2.4,3.9-3.6
			c1.2-1.3,2.5-2.5,3.7-3.9c2.5-2.6,4.8-5.4,6.9-8.2c1.1-1.4,2.2-2.9,3.2-4.3c1-1.5,2.1-2.9,3-4.5L1131.8,852.3z"/>
	</g>
	<g class="st20">
		<path class="st21" d="M1230.5,854.7c4.1-0.7,7.6,0,10.8,1.2c3.2,1.2,6.1,3.1,8.6,5.4c0.6,0.6,1.2,1.2,1.8,1.8
			c0.5,0.7,1.1,1.3,1.6,2c0.5,0.7,1,1.4,1.4,2.2c0.2,0.4,0.5,0.7,0.6,1.1l0.6,1.2c1.5,3.1,2.3,6.7,1.9,10.8l-0.6,0.4
			c-0.9-1.2-1.8-2.5-2.8-3.7l-1.4-1.8c-0.5-0.6-1-1.2-1.5-1.8c-1-1.2-2.1-2.3-3.2-3.4c-1.1-1.1-2.2-2.2-3.4-3.2
			c-2.2-2.1-4.6-4.2-7.1-6.1c-1.2-0.9-2.5-1.9-3.8-2.7c-1.3-0.9-2.6-1.8-3.9-2.6L1230.5,854.7z"/>
	</g>
	<g class="st20">
		<path class="st21" d="M781.5,949.3c1.2,1.9,1.5,3.8,1.6,5.6c0,1.8-0.3,3.6-0.9,5.3c-0.6,1.7-1.6,3.3-2.8,4.6
			c-1.3,1.4-2.8,2.5-4.9,3.1l-0.3-0.2c0.4-0.7,0.9-1.4,1.3-2.1c0.4-0.7,0.8-1.4,1.2-2.2c0.7-1.5,1.4-3,1.9-4.6
			c0.6-1.5,1.1-3.1,1.5-4.7c0.2-0.8,0.4-1.6,0.6-2.4c0.2-0.8,0.4-1.6,0.5-2.4L781.5,949.3z"/>
	</g>
	<g class="st20">
		<path class="st21" d="M917.7,901.1c1.6,1.5,2.4,3.3,2.9,5.1c0.5,1.8,0.6,3.6,0.4,5.4c-0.2,1.8-0.8,3.5-1.7,5.2
			c-0.9,1.6-2.2,3.1-4,4.2l-0.4-0.1c0.2-0.8,0.5-1.6,0.7-2.4c0.2-0.8,0.5-1.6,0.6-2.4c0.4-1.6,0.6-3.2,0.8-4.9
			c0.2-1.6,0.4-3.3,0.4-4.9c0-0.8,0-1.7,0-2.5c0-0.8,0-1.7-0.1-2.5L917.7,901.1z"/>
	</g>
	<g class="st20">
		<path class="st21" d="M952.4,999.2c1.3,0.7,2,1.6,2.7,2.6c0.6,1,1,2.1,1.2,3.3c0.2,1.1,0.2,2.3-0.1,3.5c-0.3,1.2-0.8,2.3-1.8,3.3
			l-0.3,0c0-1.1,0.1-2.1,0-3.2c-0.1-1.1-0.2-2.1-0.4-3.2c-0.2-1.1-0.4-2.1-0.6-3.1c-0.3-1-0.6-2.1-0.9-3.1L952.4,999.2z"/>
	</g>
	<g class="st20">
		<path class="st21" d="M1311.6,758.6c3.5-2.2,7.1-2.8,10.5-2.9c3.4-0.1,6.8,0.6,10,1.8c0.8,0.3,1.6,0.6,2.3,1
			c0.7,0.4,1.5,0.8,2.2,1.2c0.7,0.5,1.4,0.9,2.1,1.5c0.3,0.3,0.7,0.5,1,0.8l1,0.9c2.5,2.4,4.7,5.4,5.8,9.3l-0.4,0.6
			c-1.3-0.8-2.6-1.7-4-2.4l-2-1.2c-0.7-0.4-1.4-0.7-2.1-1.1c-1.4-0.7-2.8-1.3-4.2-2c-1.4-0.6-2.9-1.2-4.3-1.7
			c-2.9-1.1-5.8-2.1-8.8-3c-1.5-0.4-3-0.8-4.5-1.1c-1.5-0.4-3-0.7-4.6-0.9L1311.6,758.6z"/>
	</g>
	<g class="st20">
		<path class="st21" d="M1341.8,629.4c2.4-2.9,5.4-4.4,8.4-5.5c3-1,6.1-1.4,9.2-1.2c0.8,0.1,1.5,0.1,2.3,0.2
			c0.8,0.1,1.5,0.3,2.3,0.4c0.8,0.2,1.5,0.4,2.2,0.7c0.4,0.1,0.7,0.2,1.1,0.4l1.1,0.5c2.9,1.4,5.6,3.4,7.6,6.5l-0.2,0.6
			c-1.4-0.3-2.8-0.7-4.2-1l-2.1-0.4c-0.7-0.1-1.4-0.2-2.1-0.3c-1.4-0.2-2.8-0.4-4.2-0.6c-1.4-0.1-2.8-0.3-4.2-0.3
			c-2.8-0.2-5.7-0.2-8.5-0.1c-1.4,0-2.8,0.1-4.3,0.2c-1.4,0.1-2.8,0.2-4.2,0.4L1341.8,629.4z"/>
	</g>
	<g class="st20">
		<path class="st21" d="M1262.7,549.5c1.1-2.9,3-4.9,5-6.5c2-1.6,4.3-2.8,6.8-3.5c2.4-0.7,5-1,7.6-0.7c2.6,0.3,5.2,1.1,7.7,2.9
			l0,0.6c-1.2,0.1-2.3,0.2-3.5,0.4l-1.7,0.2l-1.7,0.3c-2.3,0.4-4.6,1-6.8,1.7c-2.3,0.6-4.5,1.4-6.6,2.2c-1.1,0.4-2.2,0.9-3.2,1.4
			c-1.1,0.5-2.1,1-3.2,1.5L1262.7,549.5z"/>
	</g>
	<g class="st20">
		<path class="st21" d="M1340.3,528.1c1.4-2.2,3.3-3.5,5.2-4.5c2-1,4-1.5,6.2-1.6c2.1-0.2,4.3,0.1,6.4,0.8c2.1,0.7,4.1,1.8,5.8,3.8
			l-0.1,0.5c-1-0.1-1.9-0.3-2.9-0.3c-1-0.1-2-0.2-2.9-0.2c-2-0.1-3.9,0-5.9,0.2c-2,0.1-3.9,0.3-5.8,0.7c-1,0.2-1.9,0.4-2.9,0.6
			c-1,0.2-1.9,0.4-2.9,0.7L1340.3,528.1z"/>
	</g>
	<g class="st20">
		<path class="st21" d="M659,336.3c-0.7,0.2-1.3,0.2-1.8,0.1c-0.6-0.1-1.1-0.4-1.6-0.6c-0.5-0.3-0.9-0.7-1.2-1.2
			c-0.3-0.5-0.6-1-0.6-1.7l0.1-0.1c0.7,0.8,1.5,1.4,2.4,2c0.9,0.6,1.8,1.1,2.8,1.5L659,336.3z"/>
	</g>
	<g class="st20">
		<path class="st21" d="M709.8,281.1c-1.2,0-2.3-0.3-3.2-0.8c-0.9-0.5-1.7-1.2-2.3-2c-0.6-0.8-1.1-1.7-1.4-2.7
			c-0.3-1-0.4-2.1-0.1-3.3l0.2-0.1c0.4,0.8,0.9,1.6,1.4,2.4c0.5,0.8,1.1,1.5,1.7,2.3c0.6,0.7,1.2,1.4,1.9,2.1
			c0.7,0.7,1.3,1.3,2.1,1.9L709.8,281.1z"/>
	</g>
	<g class="st20">
		<path class="st21" d="M724.9,394.5c-2.2,0.1-3.9-0.6-5.5-1.4c-1.6-0.9-2.9-2-4-3.4c-1.1-1.4-2-3-2.5-4.7c-0.5-1.7-0.7-3.7-0.2-5.7
			l0.4-0.2c0.4,0.7,0.7,1.4,1.2,2.1c0.4,0.7,0.8,1.4,1.3,2.1c0.9,1.4,1.9,2.7,2.9,3.9c1,1.3,2.1,2.5,3.2,3.7
			c0.6,0.6,1.2,1.1,1.8,1.7c0.6,0.6,1.2,1.1,1.8,1.6L724.9,394.5z"/>
	</g>
	<g class="st20">
		<path class="st21" d="M687,438.8c-1.7,0.6-3.2,0.5-4.7,0.3c-1.5-0.3-2.8-0.9-4-1.7c-1.2-0.8-2.3-1.8-3.2-3.1
			c-0.8-1.2-1.5-2.7-1.6-4.4l0.2-0.2c1,0.9,1.9,1.9,3,2.7c1,0.9,2.1,1.6,3.3,2.3c1.1,0.7,2.3,1.4,3.5,2.1c1.2,0.6,2.4,1.2,3.6,1.7
			L687,438.8z"/>
	</g>
	<g class="st20">
		<path class="st21" d="M651.1,570.7c-0.2,0.5-0.4,0.9-0.8,1.2c-0.3,0.3-0.7,0.5-1.1,0.7c-0.8,0.3-1.8,0.4-2.7-0.2l0-0.1
			c0.8-0.1,1.6-0.3,2.4-0.6C649.6,571.4,650.3,571.1,651.1,570.7L651.1,570.7z"/>
	</g>
	<path class="st19" d="M681.5,859.2C681.5,859.2,681.5,859.2,681.5,859.2"/>
</g>
</svg>
