<?xml version="1.0" encoding="utf-8"?>
<!-- Generator: Adobe Illustrator 22.1.0, SVG Export Plug-In . SVG Version: 6.00 Build 0)  -->
<svg version="1.1" id="Layer_1" xmlns="http://www.w3.org/2000/svg" xmlns:xlink="http://www.w3.org/1999/xlink" x="0px" y="0px"
	 viewBox="0 0 369 289" style="enable-background:new 0 0 369 289;" xml:space="preserve">
<style type="text/css">
	.st0{fill:#8E2CE1;}
</style>
<g>
	<path class="st0" d="M228.3,35.6c6.4,2.1,12.6,5,18.3,8.4c3.7-0.2,7.3-0.7,10.2-1.2c1.8-0.3,3.6-0.6,5.4-0.8
		c-9.8-6.4-20.5-11.2-31.7-14c-0.3-0.1-0.6-0.1-1-0.1c-1.8,0-3.4,1.2-3.8,3C225.2,32.9,226.3,35,228.3,35.6z"/>
	<path class="st0" d="M288.3,148.8c0.4,0.9,0.8,1.8,1.3,2.7c1.4,2.8,3.2,5.9,5.6,9.6c1.3,2.1,2.7,4.2,4.2,6.4
		c0.8,1.3,1.7,2.6,2.5,3.9c0,0.1,0.1,0.1,0.1,0.2c3.4-8.4,5.7-17.3,6.9-26.2c1.6-11.7,1.2-23.6-1-35.1c-0.2-1.1-0.4-2.2-0.7-3.3
		c-0.1-0.6-0.3-1.1-0.4-1.7c-1-4.3-2.4-8.5-3.9-12.6c-0.4-1-0.8-2-1.2-3c-3-7.2-6.8-14.1-11.3-20.5c-3.7-5.2-7.8-10.1-12.4-14.5
		c-0.5,0-0.9,0-1.4,0c-1.7,0.1-3.6,0.2-5.9,0.4c-2.1,0.2-4.3,0.4-6.5,0.6c-0.6,0.1-1.2,0.1-1.8,0.2C269,62,274.6,69,279.2,76.6
		c4.1,6.8,7.2,14.2,9.4,21.7c0.3,1,0.6,2.1,0.8,3.1c0.6,2.4,1.1,4.8,1.5,7.2c0.5,3.3,0.9,6.6,1.1,10c0.1,1.5,0.1,2.9,0.1,4.4
		c0,6.5-0.7,12.9-2,19.2C289.5,144.4,289,146.6,288.3,148.8z"/>
	<path class="st0" d="M312,197.9c-1.5-5.2-3.6-9.6-5.8-13.6c-1.8-3.3-3.7-6.4-5.6-9.3c-0.4-0.7-0.8-1.3-1.3-1.9
		c-0.4-0.7-0.8-1.3-1.3-1.9c-0.8-1.2-1.6-2.4-2.3-3.6c-0.5-0.8-1.1-1.6-1.6-2.4c-0.5-0.8-1-1.6-1.5-2.4c-0.6-0.9-1.2-1.8-1.7-2.7
		c-0.2-0.3-0.4-0.6-0.6-0.9c-0.2-0.4-0.5-0.8-0.7-1.2c-0.2-0.4-0.5-0.8-0.7-1.2c-0.2-0.4-0.5-0.8-0.7-1.2c-0.2-0.3-0.3-0.6-0.5-0.9
		c0,0,0,0,0-0.1c-0.1-0.2-0.2-0.3-0.3-0.5c-0.2-0.3-0.3-0.6-0.5-1l-0.1-0.1c-0.1-0.2-0.2-0.5-0.4-0.7c-0.1-0.2-0.2-0.5-0.4-0.7
		c-0.1-0.2-0.2-0.5-0.3-0.7c-0.2-0.5-0.4-0.9-0.6-1.4v-0.1c0-0.1-0.1-0.2-0.1-0.3c-0.8-1.9-1.4-3.8-1.9-5.6c-0.8-3.1-0.9-6-0.4-8.7
		c0.1-0.7,0.3-1.4,0.5-2.1l0.2-0.5c0.1-0.2,0.1-0.3,0.2-0.5l0.4-1.2c0.6-1.5,1.4-3,2.2-4.5c0.8-1.4,1.7-2.7,2.7-4
		c0-1.1-0.1-2.1-0.1-3.2c-0.2-3.2-0.5-6.5-1-9.6c-0.3-2-0.7-3.9-1.2-5.9c-1.4,1-2.9,2.1-4.2,3.2c-3.6,3.1-7,6.6-9.8,10.7
		c-1.4,2-2.6,4.2-3.7,6.4l-0.8,1.7c-0.1,0.3-0.3,0.6-0.4,0.9l-0.4,0.9c-0.5,1.3-0.9,2.6-1.2,3.9c-0.7,2.7-1,5.4-1.1,8.1
		c-0.1,2.7,0.2,5.3,0.6,7.8c0.9,5,2.4,9.6,4.3,13.9c1.8,4.2,3.9,8.2,5.9,12c0.2,0.4,0.4,0.7,0.6,1.1c1.9,3.4,3.8,6.7,5.6,9.9
		c2,3.5,3.8,7,5.4,10.3c0.3,0.7,0.7,1.4,1,2.2c1.1,2.6,1.9,5,2.4,7.2c0.3,1.4,0.4,2.7,0.4,3.9c0,1.2-0.2,2.2-0.5,3.1
		s-0.7,1.8-1.3,2.7c-0.6,0.9-1.3,1.8-2.3,2.8c-0.3,0.2-0.5,0.5-0.7,0.7l-0.8,0.7c-0.6,0.4-1.1,0.9-1.7,1.3c-1.2,0.8-2.4,1.6-3.8,2.3
		c-5.4,2.8-12,4.3-19.1,4.9c-2,0.2-4.1,0.3-6.2,0.3c1.8-1.1,3.6-2.2,5.4-3.3c3.3-2.2,6.4-4.5,9.4-7c6.1-5,11.7-10.7,16.5-16.8
		c-0.4-1.2-1-2.4-1.6-3.7c-1.6-3.4-3.6-7-5.3-10.1c-0.7-1.3-1.4-2.5-2.2-3.8c-0.9-1.5-1.8-3.1-2.7-4.8c-5.6,7.5-12.4,14.1-20,19.4
		c-7.1,5-14.9,8.8-23,11.4h-1.1c17.3-17.6,28.6-44.3,28.6-66.6c0-30.5-21.3-56.3-50.2-64.2c-6-1.6-12.2-2.5-18.7-2.5h-0.2
		c-6.6,0-12.9,0.9-18.9,2.6c-28.8,8-49.9,33.7-49.9,64.1c0,22.2,11.2,48.8,28.5,66.4h-1.2c-7.9-2.6-15.6-6.4-22.5-11.2
		c-7.6-5.3-14.4-11.9-20-19.4c-0.9,1.6-1.8,3.2-2.7,4.8c-0.7,1.3-1.5,2.6-2.2,3.8c-1.7,3.1-3.7,6.6-5.3,10.1
		c-0.6,1.3-1.1,2.5-1.6,3.7c4.9,6.2,10.4,11.8,16.5,16.8c3,2.5,6.2,4.8,9.4,7c1.8,1.2,3.5,2.3,5.4,3.3c-2.1,0-4.1-0.1-6.2-0.3
		c-7.1-0.6-13.7-2.2-19.1-4.9c-1.4-0.7-2.6-1.5-3.8-2.3c-0.6-0.4-1.1-0.9-1.7-1.3l-0.8-0.7c-0.3-0.2-0.5-0.5-0.7-0.7
		c-0.9-0.9-1.7-1.9-2.3-2.8c-0.6-0.9-1-1.8-1.3-2.7c-0.3-0.9-0.5-1.9-0.5-3.1s0.1-2.5,0.4-3.9c0.4-2.2,1.3-4.7,2.4-7.2
		c0.3-0.7,0.6-1.4,1-2.2c1.5-3.3,3.4-6.8,5.4-10.3c1.8-3.2,3.7-6.5,5.6-9.9c0.2-0.4,0.4-0.7,0.6-1.1c2.1-3.8,4.1-7.7,5.9-12
		c1.8-4.2,3.4-8.8,4.3-13.9c0.4-2.5,0.7-5.1,0.6-7.8c-0.1-2.7-0.4-5.4-1.1-8.1c-0.3-1.3-0.7-2.6-1.2-3.9l-0.4-0.9
		c-0.1-0.3-0.3-0.6-0.4-0.9l-0.8-1.7c-1.1-2.2-2.3-4.4-3.7-6.4c-2.8-4.1-6.2-7.7-9.8-10.7c-1.4-1.2-2.8-2.2-4.2-3.2
		c-0.5,2-0.9,4-1.2,5.9c-0.5,3.2-0.9,6.4-1,9.6c-0.1,1-0.1,2.1-0.1,3.2c1,1.3,1.9,2.6,2.7,4c0.8,1.4,1.6,2.9,2.2,4.5l0.4,1.2
		c0.1,0.2,0.1,0.4,0.2,0.5l0.2,0.5c0.2,0.7,0.4,1.4,0.5,2.1c0.5,2.8,0.3,5.6-0.4,8.7c-0.4,1.8-1.1,3.7-1.9,5.6
		c0,0.1-0.1,0.2-0.1,0.3v0.1c-0.2,0.5-0.4,0.9-0.6,1.4c-0.1,0.2-0.2,0.5-0.3,0.7c-0.1,0.2-0.2,0.5-0.4,0.7c-0.1,0.2-0.2,0.5-0.4,0.7
		l-0.1,0.1c-0.2,0.3-0.3,0.6-0.5,1c-0.1,0.2-0.2,0.3-0.3,0.5c0,0,0,0,0,0.1c-0.2,0.3-0.3,0.6-0.5,0.9c-0.2,0.4-0.5,0.8-0.7,1.2
		c-0.2,0.4-0.5,0.8-0.7,1.2c-0.2,0.4-0.5,0.8-0.7,1.2c-0.2,0.3-0.4,0.6-0.6,0.9c-0.6,0.9-1.1,1.8-1.7,2.7c-0.5,0.8-1,1.6-1.5,2.4
		s-1,1.6-1.6,2.4c-0.8,1.2-1.6,2.4-2.3,3.6c-0.4,0.6-0.8,1.3-1.3,1.9c-0.4,0.6-0.8,1.3-1.3,1.9c-1.9,2.9-3.8,6-5.6,9.3
		c-2.2,4-4.3,8.4-5.8,13.6c-0.7,2.6-1.3,5.4-1.4,8.3c-0.2,3,0,6.1,0.6,9.2c0.7,3.1,1.8,6.1,3.2,8.8c1.4,2.7,3.2,5.1,5,7.2
		c0.5,0.5,0.9,1.1,1.4,1.6l1.4,1.5c1,0.9,2,1.8,3,2.7c2.1,1.7,4.2,3.3,6.5,4.6c2.2,1.4,4.5,2.6,6.9,3.6c2.3,1,4.7,1.9,7,2.7
		c2.4,0.8,4.7,1.4,7.1,2c2.3,0.5,4.7,1,7,1.3c9.3,1.4,18.5,1.6,27.5,1.2c9-0.5,17.7-1.5,26.4-3.1c4.3-0.8,8.6-1.6,12.9-2.6
		c2.1-0.5,4.3-1,6.4-1.6c0.3-0.1,0.6-0.2,0.9-0.2c0.3,0.1,0.6,0.2,0.9,0.2c2.1,0.6,4.3,1.1,6.4,1.6c4.3,1,8.6,1.9,12.9,2.6
		c8.7,1.5,17.4,2.6,26.4,3.1c9,0.4,18.1,0.3,27.5-1.2c2.3-0.4,4.7-0.8,7-1.3s4.7-1.2,7.1-2c2.4-0.8,4.7-1.7,7-2.7s4.6-2.3,6.9-3.6
		c2.2-1.3,4.4-2.9,6.5-4.6c1-0.8,2-1.8,3-2.7l1.4-1.5c0.5-0.5,0.9-1,1.4-1.6c1.8-2.1,3.6-4.5,5-7.2c1.4-2.7,2.6-5.7,3.2-8.8
		c0.7-3.1,0.8-6.2,0.6-9.2C313.2,203.3,312.7,200.5,312,197.9z"/>
	<path class="st0" d="M322.9,75.3c-0.3-2.5-0.7-5-1.5-7.3c-0.8-2.4-1.7-4.6-2.9-6.8c-2.4-4.3-5.6-8-9.6-11c-0.5-0.4-1-0.7-1.5-1.1
		l-1.6-1c-1.1-0.6-2.1-1.2-3.2-1.7c-2.2-1-4.4-1.7-6.7-2.3c-2.3-0.6-4.5-0.9-6.8-1.1c-2.2-0.2-4.5-0.3-6.7-0.3s-4.4,0.2-6.6,0.4
		c-2.1,0.2-4.2,0.5-6.3,0.8c-1.2,0.2-2.4,0.4-3.6,0.5c-2.9,0.5-5.8,0.9-8.7,1.3c-2.1,0.3-4.2,0.6-6.4,0.8c-1.9,0.2-3.8,0.4-5.6,0.4
		c-4,0.2-7.9,0.1-11.7-0.6c-3.1-0.5-6.1-1.4-8.9-2.7c-0.3-0.1-0.7-0.2-1-0.2c-0.9,0-1.7,0.5-2.2,1.3c-0.7,1.2-0.2,2.8,1,3.4
		c3.1,1.6,6.5,2.9,9.9,3.7c4.3,1,8.6,1.5,12.9,1.5c4.7,0.1,9.3-0.2,13.9-0.6c0.1,0,0.2,0,0.3,0c3.1-0.3,6.2-0.6,9.3-0.8
		c0.1,0,0.2,0,0.2,0c0.4,0,0.9-0.1,1.3-0.1c0,0,0,0,0.1,0c0.4,0,0.9-0.1,1.3-0.1c0.4,0,0.8-0.1,1.2-0.1c0.3,0,0.6,0,1-0.1
		c0.3,0,0.6,0,1-0.1c0.5,0,1.1-0.1,1.6-0.1c0.4,0,0.8,0,1.2,0h0.1c0.1,0,0.2,0,0.3,0c0.4,0,0.8,0,1.3,0c1,0,2,0,3.1,0.1
		c3.8,0.2,7.6,0.7,11,1.9c1.7,0.6,3.4,1.2,4.9,2.1c0.8,0.4,1.5,0.9,2.2,1.3l1,0.7c0.3,0.2,0.6,0.5,1,0.8c2.6,2.2,4.6,5,6.1,8
		c0.7,1.5,1.3,3.1,1.7,4.7c0.4,1.6,0.6,3.3,0.6,4.9V77l-0.1,1.2c0,0.4-0.1,0.8-0.2,1.2l-0.2,1.2c-0.4,1.6-0.7,3.1-1.4,4.4
		c-0.3,0.7-0.7,1.3-1.1,2c-0.2,0.3-0.4,0.6-0.7,0.9l-0.3,0.5l-0.4,0.4c-0.4,0.5-0.8,0.9-1.2,1.3c0.1,0.4,0.3,0.7,0.4,1.1
		c1.6,4.2,3,8.5,4,12.9c0,0.1,0.1,0.2,0.1,0.3c0.3-0.3,0.6-0.5,1-0.8l1.3-1.2c1.8-1.7,3.5-3.5,5-5.6l0.6-0.8
		c0.2-0.3,0.3-0.6,0.5-0.8c0.3-0.6,0.7-1.1,1-1.7c0.6-1.2,1.2-2.4,1.6-3.6l0.3-0.9c0.1-0.3,0.2-0.6,0.3-0.9l0.5-1.9
		c0.2-0.6,0.3-1.3,0.4-1.9l0.3-1.9l0.2-1.9c0-0.6,0.1-1.2,0.1-1.9l0.1-1.4L322.9,75.3z"/>
	<path class="st0" d="M133.7,44c5.8-3.4,11.9-6.3,18.3-8.4c1.9-0.6,3.1-2.7,2.6-4.7c-0.4-1.8-2-3-3.8-3c-0.3,0-0.6,0-1,0.1
		c-11.2,2.8-22,7.5-31.7,14c1.8,0.3,3.6,0.6,5.4,0.8C126.3,43.3,130,43.8,133.7,44z"/>
	<path class="st0" d="M89.4,108.6c0.4-2.4,0.9-4.8,1.5-7.2c0.3-1,0.5-2.1,0.8-3.1c2.2-7.6,5.3-14.9,9.4-21.7
		c4.5-7.6,10.2-14.6,16.8-20.7c-0.6-0.1-1.2-0.1-1.8-0.2c-2.2-0.2-4.4-0.4-6.5-0.6c-2.3-0.2-4.2-0.3-5.9-0.4c-0.5,0-1,0-1.4,0
		c-4.5,4.4-8.7,9.3-12.4,14.5c-4.5,6.4-8.3,13.2-11.3,20.5c-0.4,1-0.8,2-1.2,3c-1.6,4.1-2.9,8.3-3.9,12.6c-0.1,0.6-0.3,1.1-0.4,1.7
		c-0.3,1.1-0.5,2.2-0.7,3.3c-2.2,11.5-2.6,23.4-1,35.1c1.2,8.9,3.5,17.7,6.9,26.2c0-0.1,0.1-0.1,0.1-0.2c0.9-1.3,1.7-2.6,2.5-3.9
		c1.5-2.2,2.8-4.3,4.2-6.4c2.4-3.7,4.2-6.8,5.6-9.6c0.5-0.9,0.9-1.8,1.3-2.7c-0.6-2.2-1.2-4.4-1.7-6.6c-1.4-6.3-2-12.7-2-19.2
		c0-1.5,0-2.9,0.1-4.4C88.5,115.2,88.9,111.9,89.4,108.6z"/>
	<path class="st0" d="M69.4,104.1c0.3,0.3,0.6,0.5,1,0.8c0-0.1,0.1-0.2,0.1-0.3c1.1-4.4,2.4-8.7,4-12.9c0.1-0.4,0.3-0.7,0.4-1.1
		c-0.4-0.4-0.8-0.9-1.2-1.3l-0.4-0.4L73,88.4c-0.2-0.3-0.4-0.6-0.7-0.9c-0.4-0.7-0.8-1.3-1.1-2c-0.7-1.3-1.1-2.9-1.4-4.4l-0.2-1.2
		c-0.1-0.4-0.2-0.8-0.2-1.2l-0.1-1.2v-1.2c0.1-1.6,0.3-3.3,0.6-4.9c0.4-1.6,1-3.2,1.7-4.7c1.5-3,3.5-5.8,6.1-8
		c0.3-0.3,0.6-0.6,1-0.8l1-0.7c0.7-0.5,1.4-0.9,2.2-1.3c1.5-0.8,3.2-1.5,4.9-2.1c3.4-1.1,7.2-1.7,11-1.9c1-0.1,2-0.1,3.1-0.1
		c0.4,0,0.8,0,1.3,0c0.1,0,0.2,0,0.3,0h0.1c0.4,0,0.8,0,1.2,0c0.5,0,1.1,0,1.6,0.1c0.3,0,0.6,0,1,0.1c0.3,0,0.6,0,1,0.1
		c0.4,0,0.8,0.1,1.2,0.1c0.4,0,0.9,0.1,1.3,0.1c0,0,0,0,0.1,0c0.4,0,0.9,0.1,1.3,0.1c0.1,0,0.2,0,0.2,0c3.1,0.3,6.2,0.6,9.3,0.8
		c0.1,0,0.2,0,0.3,0c4.6,0.4,9.2,0.7,13.9,0.6c4.3-0.1,8.7-0.5,12.9-1.5c3.4-0.8,6.8-2.1,9.9-3.7c1.3-0.7,1.7-2.2,1-3.4
		c-0.5-0.8-1.3-1.3-2.2-1.3c-0.3,0-0.7,0.1-1,0.2c-2.9,1.3-5.9,2.1-8.9,2.7c-3.8,0.7-7.8,0.8-11.7,0.6c-1.9-0.1-3.7-0.2-5.6-0.4
		c-2.1-0.2-4.2-0.5-6.4-0.8c-2.9-0.4-5.7-0.9-8.7-1.3c-1.2-0.2-2.4-0.4-3.6-0.5c-2.1-0.3-4.2-0.6-6.3-0.8c-2.2-0.2-4.3-0.4-6.6-0.4
		c-2.2,0-4.4,0-6.7,0.3c-2.3,0.2-4.5,0.6-6.8,1.1c-2.3,0.6-4.5,1.3-6.7,2.3c-1.1,0.5-2.2,1.1-3.2,1.7l-1.6,1c-0.5,0.3-1,0.7-1.5,1.1
		c-3.9,2.9-7.2,6.7-9.6,11c-1.2,2.1-2.2,4.4-2.9,6.8c-0.7,2.4-1.2,4.8-1.5,7.3l-0.1,1.9v1.9c0,0.6,0.1,1.2,0.1,1.9l0.2,1.9l0.3,1.9
		c0.1,0.6,0.2,1.3,0.4,1.9l0.5,1.9c0.1,0.3,0.2,0.6,0.3,0.9l0.3,0.9c0.4,1.2,1.1,2.4,1.6,3.6c0.3,0.6,0.7,1.1,1,1.7
		c0.2,0.3,0.3,0.6,0.5,0.8l0.6,0.8c1.6,1.6,3.4,3.4,5.1,5.1L69.4,104.1z"/>
</g>
</svg>
